<svg width="64" height="65" viewBox="0 0 64 65" fill="none" xmlns="http://www.w3.org/2000/svg">
<g opacity="0.8">
<path d="M38 42.2502C39.6569 42.2502 41 40.9071 41 39.2502C41 37.5934 39.6569 36.2502 38 36.2502C36.3431 36.2502 35 37.5934 35 39.2502C35 40.9071 36.3431 42.2502 38 42.2502Z" stroke="#EE333A" stroke-width="1.5" stroke-linecap="round" stroke-linejoin="round"/>
<path d="M38 28.2502C39.6569 28.2502 41 26.9071 41 25.2502C41 23.5934 39.6569 22.2502 38 22.2502C36.3431 22.2502 35 23.5934 35 25.2502C35 26.9071 36.3431 28.2502 38 28.2502Z" stroke="#EE333A" stroke-width="1.5" stroke-linecap="round" stroke-linejoin="round"/>
<path d="M26 35.2502C27.6569 35.2502 29 33.9071 29 32.2502C29 30.5934 27.6569 29.2502 26 29.2502C24.3431 29.2502 23 30.5934 23 32.2502C23 33.9071 24.3431 35.2502 26 35.2502Z" stroke="#EE333A" stroke-width="1.5" stroke-linecap="round" stroke-linejoin="round"/>
<path d="M35.5 26.7502L28.5 30.7502" stroke="#EE333A" stroke-width="1.5"/>
<path d="M28.5 33.7502L35.5 37.7502" stroke="#EE333A" stroke-width="1.5"/>
</g>
<rect x="1" y="1.25024" width="62" height="62" rx="31" stroke="#EE333A" stroke-opacity="0.8" stroke-width="2"/>
</svg>
