<svg width="100" height="49" viewBox="0 0 100 49" fill="none" xmlns="http://www.w3.org/2000/svg">
<path d="M39.4853 32.3711L30.5264 19.3672C30.2585 19.0384 30.0926 18.6385 30.0492 18.2168C30.0998 17.7956 30.2649 17.3963 30.5264 17.0621L39.4853 4.05967C42.2319 0.254004 45.0425 0.00379755 45.0425 0.00379755H30.8633C29.9325 -0.0318142 29.0098 0.187684 28.195 0.638497C27.3802 1.08931 26.7045 1.75425 26.241 2.56129L18.6611 14.8756C17.7384 16.5013 17.4642 17.1577 17.4548 18.2139C17.4635 19.2687 17.7384 19.9259 18.6611 21.5508L26.2446 33.8695C26.708 34.6766 27.3837 35.3417 28.1985 35.7926C29.0133 36.2436 29.9361 36.4632 30.8669 36.4277H45.0461C45.0461 36.4277 42.2319 36.1775 39.4853 32.3711Z" fill="black"/>
<path d="M76.9907 32.371L68.0332 19.3672C67.7655 19.0383 67.5999 18.6384 67.5567 18.2168C67.6071 17.7956 67.7719 17.3964 68.0332 17.0621L76.9907 4.05963C79.7373 0.253958 82.5479 0.0037524 82.5479 0.0037524H68.3722C67.4415 -0.0319393 66.5187 0.187543 65.7039 0.638364C64.8891 1.08918 64.2134 1.75415 63.7499 2.56124L56.1658 14.8784C55.2431 16.5041 54.9688 17.1605 54.9595 18.2168C54.9688 19.2715 55.2431 19.9287 56.1658 21.5536L63.7499 33.8709C64.2133 34.6781 64.889 35.3432 65.7038 35.7942C66.5186 36.2451 67.4414 36.4647 68.3722 36.4291H82.5479C82.5479 36.4291 79.7373 36.1774 76.9907 32.371Z" fill="#EC1C24"/>
<path d="M42.5925 32.371L51.5506 19.3672C51.819 19.0385 51.9851 18.6386 52.0286 18.2168C51.9778 17.7955 51.8126 17.3961 51.5506 17.0621L42.5925 4.05962C39.8445 0.253953 37.0352 0.00374713 37.0352 0.00374713H51.2145C52.1451 -0.0319182 53.0676 0.187571 53.8822 0.638402C54.6967 1.08923 55.3722 1.75421 55.8354 2.56124L63.4195 14.8784C64.3437 16.5041 64.6172 17.1605 64.6258 18.2168C64.6172 19.2715 64.3437 19.9287 63.4195 21.5536L55.8332 33.8694C55.3702 34.6766 54.6947 35.3417 53.8802 35.7926C53.0656 36.2436 52.143 36.4632 51.2124 36.4276H37.0331C37.0331 36.4276 39.8445 36.1774 42.5925 32.371Z" fill="#EC1C24"/>
<path d="M4.55896 43.3767H3.04746V48.5277H1.51077V43.3767H-0.000732422V42.0034H4.55679L4.55896 43.3767Z" fill="black"/>
<path d="M14.1375 48.5268L12.6433 46.2878H11.5378V48.5268H9.99963V42.0033H14.4377C14.641 41.9976 14.8388 42.0699 14.9904 42.2053C15.0611 42.2649 15.1178 42.3393 15.1565 42.4232C15.1951 42.5071 15.2149 42.5984 15.2143 42.6907V45.5868C15.2163 45.682 15.1974 45.7764 15.1587 45.8634C15.12 45.9504 15.0625 46.0279 14.9904 46.0902C14.8388 46.2256 14.641 46.2979 14.4377 46.2922L15.9319 48.5312L14.1375 48.5268ZM11.5378 44.8995H13.6747V43.3896H11.5378V44.8995Z" fill="black"/>
<path d="M25.3011 48.5269L24.7929 46.9897H22.3724L21.8491 48.5269H20.2656L22.4026 42.0185H24.749L26.886 48.5269H25.3011ZM23.5823 43.3918L22.8352 45.5862H24.3143L23.5823 43.3918Z" fill="black"/>
<path d="M37.6133 48.5269H36.2687L33.34 44.1079V48.5269H31.8156V42.0034H34.0123L36.0744 45.1382V42.0034H37.6133V48.5269Z" fill="black"/>
<path d="M46.9104 48.5269H43.0698V47.1385H46.1331V45.9162H43.8443C43.6435 45.9195 43.4488 45.8474 43.2987 45.7142C43.2245 45.6532 43.1652 45.5762 43.125 45.489C43.0849 45.4019 43.065 45.3068 43.0669 45.2109V42.6584C43.0668 42.5654 43.0875 42.4737 43.1277 42.3898C43.1678 42.306 43.2262 42.2321 43.2987 42.1738C43.4488 42.0406 43.6435 41.9685 43.8443 41.9718H47.6698V43.3601H44.6216V44.5106H46.9104C47.1088 44.5066 47.3012 44.5786 47.4481 44.7118C47.5201 44.7741 47.5776 44.8515 47.6163 44.9385C47.655 45.0255 47.674 45.12 47.6719 45.2152V47.8281C47.674 47.9232 47.655 48.0176 47.6163 48.1046C47.5776 48.1916 47.5201 48.269 47.4481 48.3313C47.3003 48.4624 47.108 48.5323 46.9104 48.5269Z" fill="black"/>
<path d="M57.6226 42.0034C57.8213 41.9993 58.0141 42.0717 58.161 42.2054C58.2317 42.265 58.2884 42.3393 58.3272 42.4232C58.366 42.507 58.386 42.5984 58.3856 42.6908V45.5869C58.3875 45.6821 58.3683 45.7766 58.3295 45.8636C58.2907 45.9506 58.2332 46.028 58.161 46.0902C58.0141 46.224 57.8213 46.2963 57.6226 46.2923H54.7111V48.5313H53.1572V42.0077L57.6226 42.0034ZM56.846 43.3918H54.7111V44.9017H56.8481L56.846 43.3918Z" fill="black"/>
<path d="M68.352 48.5269H64.6165C64.419 48.5313 64.2269 48.4618 64.0781 48.3321C64.0062 48.272 63.9488 48.1966 63.9101 48.1113C63.8713 48.0261 63.8523 47.9332 63.8543 47.8396V42.6901C63.8538 42.5978 63.8736 42.5065 63.9123 42.4226C63.9509 42.3387 64.0075 42.2644 64.0781 42.2048C64.225 42.0711 64.4177 41.9988 64.6165 42.0027H68.352C68.5507 41.9988 68.7434 42.0711 68.8904 42.2048C68.9612 42.2643 69.018 42.3386 69.0568 42.4224C69.0956 42.5063 69.1155 42.5977 69.115 42.6901V47.8396C69.117 47.9333 69.0979 48.0261 69.059 48.1114C69.0201 48.1967 68.9625 48.2721 68.8904 48.3321C68.7416 48.4618 68.5495 48.5313 68.352 48.5269ZM65.3938 47.1386H67.5754V43.3918H65.3938V47.1386Z" fill="black"/>
<path d="M78.9024 48.5268L77.4081 46.2878H76.3026V48.5268H74.7631V42.0033H79.2018C79.4052 41.9976 79.6029 42.0699 79.7546 42.2053C79.8252 42.2649 79.8818 42.3393 79.9205 42.4232C79.9592 42.5071 79.979 42.5984 79.9784 42.6907V45.5868C79.9805 45.682 79.9614 45.7764 79.9227 45.8634C79.884 45.9504 79.8266 46.0279 79.7546 46.0902C79.6029 46.2256 79.4052 46.2979 79.2018 46.2922L80.696 48.5312L78.9024 48.5268ZM76.3026 44.8995H78.4395V43.3896H76.3026V44.8995Z" fill="black"/>
<path d="M89.9744 43.3767H88.463V48.5277H86.9241V43.3767H85.4126V42.0034H89.9701L89.9744 43.3767Z" fill="black"/>
<path d="M99.2392 48.5269H95.3986V47.1385H98.4618V45.9162H96.1752C95.9742 45.9195 95.7792 45.8474 95.6288 45.7142C95.5548 45.6531 95.4955 45.5762 95.4555 45.489C95.4155 45.4019 95.3958 45.3068 95.3978 45.2109V42.6584C95.3976 42.5655 95.4181 42.4737 95.4581 42.3898C95.4981 42.306 95.5565 42.2322 95.6288 42.1738C95.7792 42.0406 95.9742 41.9685 96.1752 41.9718H100.001V43.3601H96.9518V44.5106H99.2385C99.4369 44.5065 99.6293 44.5785 99.7762 44.7118C99.8484 44.7741 99.9059 44.8515 99.9447 44.9385C99.9835 45.0255 100.003 45.12 100.001 45.2152V47.8281C100.003 47.9233 99.9835 48.0177 99.9447 48.1047C99.9059 48.1917 99.8484 48.2691 99.7762 48.3313C99.6286 48.4623 99.4365 48.5322 99.2392 48.5269Z" fill="black"/>
</svg>
