<?xml version="1.0" standalone="no"?>
<!DOCTYPE svg PUBLIC "-//W3C//DTD SVG 1.1//EN" "http://www.w3.org/Graphics/SVG/1.1/DTD/svg11.dtd" >
<svg xmlns="http://www.w3.org/2000/svg">
<metadata>
<json>
<![CDATA[
{
	"fontFamily": "KX-Transports-icons",
	"majorVersion": 1,
	"minorVersion": 0,
	"version": "Version 1.0",
	"fontId": "KX-Transports-icons",
	"psName": "KX-Transports-icons",
	"subFamily": "Regular",
	"fullName": "KX-Transports-icons",
	"description": "Font generated by IcoMoon."
}
]]>
</json>
</metadata>
<defs>
<font id="KX-Transports-icons" horiz-adv-x="1024">
<font-face units-per-em="1024" ascent="960" descent="-64" />
<missing-glyph horiz-adv-x="1024" />
<glyph unicode="&#x20;" horiz-adv-x="512" d="" />
<glyph unicode="&#xe900;" d="M550.227 254.043c17.001 0 26.472 12.142 26.472 30.843v63.143h11.659c72.37 0 111.227 39.828 111.227 111.23v186.029c0 71.399-38.856 111.227-111.227 111.227h-312.801c-72.372 0-111.229-40.071-111.229-111.227v-186.029c0-71.159 38.857-111.23 111.229-111.23h155.915l83.784-74.556c14.816-13.116 23.072-19.43 34.971-19.43zM540.271 298.484l-77.713 77.23c-9.231 9.471-16.030 11.413-29.629 11.413h-157.372c-48.814 0-72.129 25.015-72.129 72.373v185.786c0 47.356 23.314 72.128 72.129 72.128h312.801c49.055 0 72.128-24.771 72.128-72.128v-185.786c0-47.359-23.072-72.373-72.128-72.373h-29.872c-13.116 0-18.215-5.1-18.215-18.213v-70.431z" />
<glyph unicode="&#xe901;" d="M424.229 608.914h204.8c48.475 0 87.771-39.297 87.771-87.771v-117.029c0-48.475-39.297-87.771-87.771-87.771h-204.8c-48.475 0-87.771 39.297-87.771 87.771v117.029c0 48.475 39.297 87.771 87.771 87.771z" />
<glyph unicode="&#xe902;" d="M454.873 106.3c9.471 0 16.513 4.857 27.929 15.544l87.669 80.141 164.174-0.243c72.37-0.243 111.227 40.071 111.227 111.23v186.029c0 71.156-38.856 111.227-111.227 111.227h-312.8c-72.373 0-111.23-39.828-111.23-111.227v-186.029c0-71.402 38.856-110.987 111.23-110.987h11.413v-70.671c0-15.059 7.771-25.015 21.615-25.015zM449.284 475.2c-8.014 0-14.57 6.314-14.57 14.57 0 7.774 6.557 14.33 14.57 14.33h255.002c8.014 0 14.327-6.557 14.327-14.33 0-8.256-6.314-14.57-14.327-14.57h-255.002zM449.284 393.599c-8.014 0-14.57 6.557-14.57 14.816 0 7.771 6.557 14.327 14.57 14.327h255.002c8.014 0 14.327-6.557 14.327-14.327 0-8.259-6.314-14.816-14.327-14.816h-255.002zM449.284 312.244c-8.014 0-14.57 6.314-14.57 14.327 0 8.256 6.557 14.816 14.57 14.816h165.873c8.014 0 14.327-6.559 14.327-14.816 0-8.014-6.314-14.327-14.327-14.327h-165.873z" />
<glyph unicode="&#xe903;" d="M781.034 548.071c0-146.71-165.841-327.504-280.087-465.785-110.56 145.557-257.975 319.075-257.975 465.785s120.449 265.643 269.031 265.643c148.582 0 269.031-118.933 269.031-265.643z" />
<glyph unicode="&#xe904;" d="M713.776 548.882c0-113.758-92.219-205.977-205.977-205.977s-205.977 92.219-205.977 205.977c0 113.758 92.219 205.977 205.977 205.977s205.977-92.219 205.977-205.977z" />
<glyph unicode="&#xe905;" d="M554.030 544.692c0-23.216-18.82-42.036-42.036-42.036s-42.036 18.82-42.036 42.036c0 23.216 18.82 42.036 42.036 42.036s42.036-18.82 42.036-42.036z" />
<glyph unicode="&#xe906;" d="M507.79 721.243v0c11.608 0 21.018-9.41 21.018-21.018v-151.33c0-11.608-9.41-21.018-21.018-21.018v0c-11.608 0-21.018 9.41-21.018 21.018v151.33c0 11.608 9.41 21.018 21.018 21.018z" />
<glyph unicode="&#xe907;" d="M621.579 442.851v0c-7.913-8.493-21.213-8.962-29.706-1.049l-98.132 91.436c-8.493 7.913-8.962 21.213-1.049 29.706v0c7.913 8.493 21.213 8.962 29.706 1.049l98.132-91.436c8.493-7.913 8.962-21.213 1.049-29.706z" />
<glyph unicode="&#xe908;" glyph-name="FDS" data-tags="FDS" d="M512 458.629c-20 0-34.286-15.714-34.286-34.286 1.431-104.284-12.856-202.857-40-302.858-4.283-14.283 2.858-42.856 32.859-42.856 15.714 0 28.57 8.572 32.856 24.286 20 68.57 44.287 178.571 42.859 321.428 0 18.572-15.714 34.286-34.286 34.286zM510.572 574.344c-87.142 0-148.574-67.145-147.143-144.287 0-68.57-5.714-137.143-20-202.857-2.858-18.57 8.569-37.142 27.142-41.428 18.572-2.855 37.142 8.572 40 27.142 15.714 71.428 21.428 144.287 21.428 218.571-1.428 37.145 28.573 74.287 77.142 74.287 44.287 0 81.428-35.714 82.859-78.57 0-68.573-4.286-138.574-15.714-205.716-2.858-18.572 10-35.714 28.57-38.57 28.573-5.717 38.573 21.428 38.573 27.142 12.856 71.428 17.142 145.715 17.142 218.571-1.428 78.57-68.57 144.285-149.998 145.715zM351.999 602.914c-14.283 11.428-35.714 10-48.57-4.286-35.714-45.714-55.714-102.856-54.286-159.999 0-54.287-4.286-108.57-14.286-160.001-2.857-20 10-37.142 28.572-39.997 28.571-5.717 38.572 19.997 40 27.142 10 57.142 14.286 115.715 14.286 172.857-1.431 42.856 12.856 82.856 40 115.715 11.428 15.714 8.569 37.142-5.717 48.57zM509.142 691.486c-22.856 1.428-44.284-1.429-65.714-7.143-18.57-4.286-29.997-22.856-25.714-40.001 4.286-18.57 22.859-30 41.431-25.714 15.714 2.858 31.428 4.286 48.57 4.286 107.143-1.428 197.143-87.142 198.571-191.429 0-54.284-2.855-108.57-8.569-162.857-1.431-18.57 11.428-35.714 29.997-37.142 24.286-2.855 37.145 15.714 38.573 30 5.714 50 8.572 100.001 8.572 151.429 0 7.142 0 12.856 0 20-2.858 139.998-121.429 257.142-265.716 258.571zM869.142 518.63c-4.286 18.57-22.856 30-41.428 25.714s-30-21.431-25.714-40c5.714-31.428 7.142-54.287 5.714-88.573 0-18.57 15.714-34.284 34.286-34.284 20 0 34.286 14.283 34.286 34.284 1.428 31.431 1.428 62.859-7.145 102.859zM810.572 648.628c-68.573 98.572-182.857 158.572-304.286 160.001-98.573 1.429-191.429-34.286-260-102.857-65.714-67.144-101.429-155.714-100-248.57v-31.431c-1.429-18.57 14.286-34.284 32.857-34.284 0 0 0 0 1.429 0 17.143 0 32.857 14.283 32.857 32.856l1.429 34.286c-1.429 74.284 27.143 144.285 79.999 198.571 55.714 54.285 130.001 84.285 211.43 82.857 98.57-1.429 191.429-50 248.572-131.43 11.428-15.714 32.856-18.57 48.57-8.569 14.286 11.428 18.572 32.856 7.145 48.57z" />
<glyph unicode="&#xe909;" glyph-name="fragile" data-tags="fragile" d="M652.443 112.403l-109.969 24.438v237.404c103.199 14.868 182.857 103.638 182.857 210.897 0 9.315-0.775 19.181-2.352 30.073 0.029 0.892-0.029 1.817-0.178 2.724l-28.125 182.857c-1.132 7.425-7.531 12.917-15.059 12.917h-134.109c-7.262 0-13.511-5.134-14.939-12.247l-18.274-91.429c-0.895-4.479 0.266-9.121 3.154-12.649s7.232-5.58 11.785-5.58h66.785l-58.631-117.217 6.995 69.986c0.448 4.286-0.954 8.558-3.841 11.741-2.888 3.201-6.992 5.015-11.308 5.015h-73.871l19.286 134.986c0.626 4.376-0.685 8.81-3.569 12.143-2.888 3.331-7.112 5.251-11.516 5.251h-113.184c-7.531 0-13.929-5.492-15.062-12.917l-28.154-182.857c-0.149-0.936-0.208-1.875-0.149-2.812-1.577-10.863-2.349-20.702-2.349-29.986 0-107.263 79.655-196.032 182.857-210.9v-237.401l-109.972-24.438c-7.589-1.697-12.677-8.824-11.846-16.545 0.863-7.724 7.382-13.572 15.149-13.572h274.286c7.768 0 14.286 5.849 15.149 13.572 0.831 7.721-4.257 14.851-11.846 16.545z" />
<glyph unicode="&#xe90a;" glyph-name="fulfillment" data-tags="fulfillment" d="M675.46 221.883c64.872 48.052 106.926 125.159 106.926 212.088 0 145.668-118.088 263.757-263.756 263.757-145.671 0-263.758-118.089-263.758-263.757 0-88.728 43.812-167.225 110.983-215.034 7.042 77.148 46.887 141.095 100.741 167.225-24.409 17.554-40.308 46.206-40.308 78.57 0 53.412 43.298 96.709 96.712 96.709 53.412 0 96.709-43.298 96.709-96.709 0-33.166-16.694-62.429-42.136-79.852 51.87-26.548 90.238-88.398 97.886-162.997zM570.877 813.965c67.505-10.861 130.695-40.184 182.573-84.724l-24.146-28.123c-46.691 40.086-103.559 66.477-164.317 76.252l5.889 36.596zM851.98 595.664c27.238-62.716 36.601-131.745 27.048-199.449l-36.703 5.179c8.599 60.934 0.173 123.058-24.342 179.504l33.997 14.766zM801.602 216.62c-42.68-53.418-99.305-93.991-163.612-117.228l-12.595 34.86c57.874 20.913 108.837 57.429 147.251 105.504l28.956-23.137zM438.395 84.966c-66.964 13.833-128.796 45.916-178.656 92.704l25.364 27.031c44.875-42.11 100.525-70.987 160.788-83.433l-7.496-36.302zM157.988 338.122c-20.268 65.302-22.077 134.94-5.229 201.207l35.923-9.134c-15.164-59.641-13.535-122.312 4.706-181.084l-35.4-10.989zM227.388 685.463c43.806 52.5 101.281 91.861 166.065 113.728l11.852-35.12c-58.304-19.68-110.030-55.105-149.457-102.356l-28.46 23.748zM270.563 631.969c-3.987-37.66-37.75-64.96-75.411-60.972s-64.959 37.75-60.972 75.41c3.987 37.662 37.75 64.961 75.411 60.973s64.959-37.75 60.972-75.411zM168.276 642.8c-1.994-18.833 11.655-35.714 30.486-37.707s35.712 11.656 37.705 30.486c1.994 18.83-11.655 35.712-30.486 37.705s-35.712-11.655-37.705-30.485zM252.545 286.755c0-37.87-30.701-68.573-68.573-68.573s-68.572 30.702-68.572 68.573c0 37.873 30.701 68.573 68.572 68.573s68.573-30.7 68.573-68.573zM149.686 286.755c0-18.935 15.35-34.286 34.286-34.286s34.286 15.351 34.286 34.286c0 18.938-15.351 34.286-34.286 34.286s-34.286-15.348-34.286-34.286zM578.709 805.699c0-37.872-30.7-68.573-68.573-68.573-37.87 0-68.573 30.701-68.573 68.573s30.702 68.572 68.573 68.572c37.873 0 68.573-30.701 68.573-68.572zM475.85 805.699c0-18.936 15.351-34.286 34.286-34.286s34.286 15.351 34.286 34.286c0 18.936-15.351 34.286-34.286 34.286s-34.286-15.35-34.286-34.286zM563.15 83.836c-1.767-37.829-33.865-67.066-71.698-65.302-37.829 1.767-67.066 33.865-65.299 71.698 1.764 37.829 33.865 67.066 71.695 65.299 37.829-1.764 67.066-33.865 65.302-71.695zM460.402 88.632c-0.884-18.915 13.736-34.965 32.651-35.846 18.915-0.884 34.965 13.733 35.846 32.648 0.884 18.918-13.733 34.965-32.651 35.849-18.915 0.884-34.962-13.736-35.846-32.651zM885.962 646.384c4.023-37.657-23.245-71.446-60.902-75.469s-71.446 23.242-75.469 60.902c-4.023 37.656 23.242 71.444 60.902 75.468 37.657 4.023 71.443-23.243 75.469-60.9zM783.685 635.456c2.010-18.827 18.906-32.461 37.733-30.448 18.83 2.010 32.461 18.906 30.451 37.733-2.013 18.83-18.906 32.462-37.736 30.451-18.827-2.012-32.461-18.906-30.448-37.736zM891.056 264.198c-2.221-37.806-34.673-66.654-72.479-64.43-37.806 2.221-66.651 34.673-64.43 72.479 2.224 37.806 34.673 66.651 72.479 64.43 37.806-2.224 66.654-34.673 64.43-72.479zM788.375 270.234c-1.112-18.903 13.312-35.129 32.215-36.238 18.903-1.112 35.129 13.312 36.238 32.215 1.112 18.903-13.312 35.126-32.215 36.238s-35.126-13.312-36.238-32.215z" />
<glyph unicode="&#xe90b;" horiz-adv-x="2110" d="M833.191 276.925l-189.048 274.408c-5.656 6.938-9.154 15.377-10.073 24.276 1.067 8.888 4.551 17.314 10.073 24.366l189.048 274.378c57.961 80.307 117.272 85.587 117.272 85.587h-299.214c-19.638 0.751-39.113-3.88-56.306-13.393s-31.452-23.545-41.233-40.575l-159.951-259.858c-19.472-34.304-25.258-48.157-25.456-70.445 0.182-22.258 5.984-36.125 25.456-70.415l160.027-259.949c9.776-17.035 24.035-31.065 41.228-40.582 17.197-9.517 36.668-14.149 56.31-13.403h299.214c0 0-59.387 5.283-117.348 85.604z" />
<glyph unicode="&#xe90c;" horiz-adv-x="2110" d="M1624.633 276.925l-189.024 274.408c-5.646 6.94-9.139 15.379-10.053 24.276 1.062 8.886 4.541 17.312 10.053 24.366l189.024 274.378c57.956 80.307 117.267 85.587 117.267 85.587h-299.132c-19.643 0.753-39.118-3.878-56.31-13.392s-31.452-23.545-41.233-40.577l-160.041-259.918c-19.47-34.305-25.255-48.157-25.456-70.445 0.201-22.258 5.986-36.126 25.456-70.415l160.041-259.917c9.781-17.035 24.035-31.069 41.233-40.587 17.193-9.517 36.668-14.149 56.31-13.398h299.132c0 0-59.311 5.311-117.267 85.633z" />
<glyph unicode="&#xe90d;" horiz-adv-x="2110" d="M898.761 276.925l189.033 274.407c5.665 6.935 9.168 15.374 10.087 24.276-1.072 8.89-4.56 17.317-10.087 24.366l-189.033 274.378c-57.99 80.307-117.272 85.587-117.272 85.587h299.214c19.638 0.753 39.103-3.879 56.291-13.393 17.193-9.513 31.447-23.546 41.218-40.576l160.041-259.918c19.504-34.305 25.275-48.158 25.456-70.446-0.182-22.258-5.953-36.125-25.456-70.415l-160.084-259.887c-9.776-17.035-24.026-31.069-41.218-40.587-17.188-9.513-36.653-14.149-56.291-13.398h-299.214c0 0 59.325 5.283 117.315 85.604z" />
<glyph unicode="&#xe90e;" horiz-adv-x="2110" d="M96.173 44.678h-31.896v-108.692h-32.427v108.692h-31.896v28.983h96.173l0.045-28.983z" />
<glyph unicode="&#xe90f;" horiz-adv-x="2110" d="M298.301-64l-31.531 47.248h-23.329v-47.248h-32.458v137.661h93.652c4.291 0.12 8.465-1.407 11.665-4.263 1.491-1.258 2.687-2.828 3.504-4.598s1.233-3.694 1.22-5.646v-61.11c0.043-2.010-0.357-4.005-1.174-5.838-0.816-1.837-2.028-3.474-3.55-4.785-3.2-2.857-7.374-4.383-11.665-4.263l31.532-47.248-37.865 0.091zM243.44 12.546h45.094v31.859h-45.094v-31.859z" />
<glyph unicode="&#xe910;" horiz-adv-x="2110" d="M533.872-64l-10.723 32.438h-51.077l-11.042-32.438h-33.414l45.094 137.34h49.515l45.094-137.34h-33.447zM497.602 44.362l-15.762-46.305h31.213l-15.451 46.305z" />
<glyph unicode="&#xe911;" horiz-adv-x="2110" d="M793.686-64h-28.371l-61.804 93.251v-93.251h-32.17v137.661h46.358l43.515-66.153v66.153h32.471v-137.661z" />
<glyph unicode="&#xe912;" horiz-adv-x="2110" d="M989.878-64h-81.049v29.299h64.646v25.791h-48.3c-4.24-0.072-8.345 1.45-11.513 4.263-1.565 1.287-2.818 2.914-3.665 4.752s-1.268 3.847-1.225 5.871v53.86c-0.005 1.962 0.435 3.9 1.282 5.665 0.842 1.77 2.077 3.33 3.608 4.56 3.168 2.809 7.273 4.33 11.513 4.263h80.724v-29.299h-64.321v-24.275h48.3c4.187 0.081 8.245-1.436 11.345-4.249 1.517-1.311 2.732-2.948 3.546-4.78 0.818-1.837 1.22-3.833 1.177-5.838v-55.138c0.043-2.010-0.359-4-1.177-5.838-0.813-1.833-2.029-3.469-3.546-4.785-3.12-2.766-7.178-4.24-11.345-4.125z" />
<glyph unicode="&#xe913;" horiz-adv-x="2110" d="M1215.923 73.661c4.196 0.086 8.264-1.44 11.364-4.263 1.493-1.258 2.689-2.828 3.507-4.594 0.818-1.77 1.239-3.699 1.23-5.651v-61.11c0.043-2.010-0.364-4.005-1.182-5.843s-2.034-3.469-3.555-4.78c-3.101-2.823-7.168-4.35-11.364-4.263h-61.435v-47.248h-32.792v137.661l94.227 0.091zM1199.539 44.362h-45.051v-31.864h45.094l-0.043 31.864z" />
<glyph unicode="&#xe914;" horiz-adv-x="2110" d="M1442.337-64h-78.824c-4.173-0.091-8.225 1.373-11.364 4.115-1.517 1.268-2.727 2.857-3.546 4.656s-1.22 3.761-1.177 5.732v108.668c-0.010 1.948 0.407 3.876 1.225 5.642 0.818 1.77 2.010 3.34 3.498 4.598 3.101 2.823 7.168 4.345 11.364 4.263h78.824c4.196 0.081 8.259-1.44 11.364-4.263 1.493-1.254 2.689-2.823 3.507-4.594 0.823-1.77 1.239-3.699 1.23-5.646v-108.668c0.043-1.976-0.359-3.933-1.182-5.732-0.818-1.799-2.038-3.393-3.555-4.656-3.144-2.742-7.197-4.206-11.364-4.115zM1379.912-34.701h46.037v79.063h-46.037v-79.063z" />
<glyph unicode="&#xe915;" horiz-adv-x="2110" d="M1664.971-64l-31.529 47.248h-23.332v-47.248h-32.486v137.661h93.667c4.287 0.12 8.46-1.407 11.661-4.263 1.493-1.258 2.689-2.828 3.503-4.598 0.818-1.77 1.235-3.694 1.225-5.646v-61.11c0.043-2.010-0.359-4.005-1.177-5.838-0.818-1.837-2.029-3.474-3.551-4.785-3.201-2.857-7.374-4.383-11.661-4.263l31.529-47.248-37.85 0.091zM1610.111 12.546h45.094v31.859h-45.094v-31.859z" />
<glyph unicode="&#xe916;" horiz-adv-x="2110" d="M1898.616 44.678h-31.897v-108.692h-32.471v108.692h-31.897v28.983h96.175l0.091-28.983z" />
<glyph unicode="&#xe917;" horiz-adv-x="2110" d="M2094.118-64h-81.044v29.299h64.641v25.791h-48.252c-4.24-0.067-8.355 1.45-11.527 4.263-1.565 1.287-2.814 2.914-3.661 4.752-0.842 1.837-1.258 3.847-1.215 5.871v53.86c-0.005 1.962 0.431 3.9 1.273 5.665 0.842 1.77 2.077 3.33 3.603 4.56 3.172 2.814 7.288 4.335 11.527 4.263h80.729v-29.299h-64.34v-24.275h48.252c4.187 0.086 8.249-1.431 11.35-4.249 1.522-1.311 2.737-2.943 3.555-4.78s1.22-3.828 1.182-5.838v-55.138c0.038-2.010-0.364-4.005-1.182-5.838-0.818-1.837-2.034-3.469-3.555-4.785-3.115-2.761-7.168-4.24-11.336-4.125z" />
<glyph unicode="&#xe918;" glyph-name="merchant" data-tags="merchant" d="M834.285 604.573l-74.284 118.856c-6.858 10.286-18.286 17.143-30.858 17.143h-461.715c-12.571 0-25.143-6.857-32-17.143l-73.143-118.856c-38.857-61.715-4.572-146.286 66.286-155.429 5.714-1.144 10.286-1.144 16-1.144 34.286 0 64.001 14.857 84.571 37.715 20.571-22.859 50.287-37.715 84.571-37.715 33.142 0 62.859 14.857 83.43 37.715 20.571-22.859 51.428-37.715 84.571-37.715 34.286 0 64 14.857 84.571 37.715 20.574-22.859 50.287-37.715 84.574-37.715 5.714 0 10.284 0 15.998 1.144 70.858 9.143 105.144 93.714 67.429 155.429zM750.858 411.429c-11.431 0-22.859 1.144-33.145 3.429v-113.143h-438.856v113.143c-11.429-2.285-22.857-3.429-34.286-3.429-6.857 0-13.715 0-20.572 1.144-6.857 1.141-12.572 2.285-18.286 3.426v-223.999c0-20.571 16-36.571 36.571-36.571h511.999c19.43 0 36.571 16.001 36.571 36.571v223.999c-6.855-1.141-12.569-3.426-19.427-3.426-6.858-1.144-13.716-1.144-20.571-1.144z" />
<glyph unicode="&#xe919;" d="M666.513 810.057h-319.997c-38.573 0-68.573-31.429-68.573-68.571v-594.284c0-38.573 30-68.573 68.573-68.573h319.997c37.145 0 68.573 30 68.573 68.573v594.284c0 37.143-31.428 68.571-68.573 68.571zM506.514 124.343c-25.714 0-45.714 20-45.714 45.714 0 24.286 20 45.714 45.714 45.714 24.286 0 45.714-21.428 45.714-45.714 0-25.714-21.428-45.714-45.714-45.714z" />
<glyph unicode="&#xe91a;" d="M367.543 592.244c13.201 0 20.272 7.385 20.272 20.427v32.686c0 13.514 6.755 19.643 19.327 19.643h33.315c13.201 0 20.427 7.228 20.427 20.271s-7.227 20.271-20.427 20.271h-37.715c-35.828 0-55.472-19.486-55.472-55.156v-37.715c0-13.201 7.229-20.427 20.272-20.427zM644.743 592.244c13.201 0 20.272 7.227 20.272 20.427v37.715c0 35.671-19.485 55.156-55.472 55.156h-37.557c-13.356 0-20.585-7.229-20.585-20.271s7.385-20.271 20.585-20.271h33.157c12.572 0 19.327-6.129 19.327-19.643v-32.686c0-13.201 7.229-20.427 20.272-20.427zM438.257 553.428h54.371c3.929 0 6.755 2.829 6.755 6.758v54.371c0 3.926-2.826 6.755-6.755 6.755h-54.371c-3.929 0-6.913-2.829-6.913-6.755v-54.371c0-3.929 2.984-6.758 6.913-6.758zM519.657 553.428h54.371c3.929 0 6.913 2.829 6.913 6.758v54.371c0 3.926-2.984 6.755-6.913 6.755h-54.371c-3.771 0-6.755-2.829-6.755-6.755v-54.371c0-3.929 2.984-6.758 6.755-6.758zM445.013 567.1v40.7h40.703v-40.7h-40.703zM526.57 567.1v40.7h40.703v-40.7h-40.703zM456.959 578.885h16.969v16.972h-16.969v-16.972zM538.358 578.885h16.972v16.972h-16.972v-16.972zM438.257 471.871h54.371c3.929 0 6.755 2.829 6.755 6.913v54.216c0 3.929-2.826 6.755-6.755 6.755h-54.371c-3.929 0-6.913-2.826-6.913-6.755v-54.216c0-4.084 2.984-6.913 6.913-6.913zM514.785 520.9h17.13v16.972h-17.13v-16.972zM561.927 520.9h16.972v16.972h-16.972v-16.972zM445.013 485.543v40.7h40.703v-40.7h-40.703zM456.959 497.486h16.969v16.972h-16.969v-16.972zM538.358 497.328h16.972v16.972h-16.972v-16.972zM402.742 387.643h37.715c13.201 0 20.427 7.229 20.427 20.43 0 13.043-7.227 20.269-20.427 20.269h-33.315c-12.572 0-19.327 6.129-19.327 19.485v32.686c0 13.359-7.229 20.43-20.272 20.43-13.201 0-20.272-7.071-20.272-20.43v-37.712c0-35.673 19.643-55.158 55.472-55.158zM571.986 387.643h37.557c35.986 0 55.472 19.643 55.472 55.158v37.712c0 13.359-7.071 20.43-20.272 20.43-13.043 0-20.272-7.229-20.272-20.43v-32.686c0-13.356-6.755-19.485-19.327-19.485h-33.157c-13.356 0-20.585-7.227-20.585-20.269 0-13.201 7.229-20.43 20.585-20.43zM514.785 473.913h17.13v16.814h-17.13v-16.814zM561.927 473.913h16.972v16.814h-16.972v-16.814z" />
<glyph unicode="&#xe91b;" glyph-name="p2p" data-tags="p2p" d="M199.619 539.429h53.333v-320c0-16.852 13.623-30.477 30.476-30.477 16.852 0 30.477 13.625 30.477 30.477v320h53.333c29.409 0 53.333 23.924 53.333 53.333v7.619h-137.143c-42.027 0-76.191 34.164-76.191 76.191s34.164 76.191 76.191 76.191h137.143v7.619c0 29.41-23.924 53.333-53.333 53.333h-167.619c-29.41 0-53.333-23.924-53.333-53.333v-167.619c0-29.409 23.924-53.333 53.333-53.333zM824.381 356.566h-53.333v320.001c0 16.853-13.625 30.476-30.477 30.476s-30.477-13.623-30.477-30.476v-320.001h-53.333c-29.409 0-53.333-23.924-53.333-53.333v-7.619h137.143c42.028 0 76.191-34.164 76.191-76.191 0-42.025-34.164-76.189-76.191-76.189h-137.143v-7.619c0-29.412 23.924-53.336 53.333-53.336h167.62c29.409 0 53.333 23.924 53.333 53.336v167.617c0 29.409-23.924 53.333-53.333 53.333zM824.384 813.714h-167.617c-29.409 0-53.333-23.924-53.333-53.333v-53.333h-320.001c-16.853 0-30.476-13.623-30.476-30.476s13.623-30.477 30.476-30.477h320.001v-53.333c0-29.409 23.924-53.333 53.333-53.333h7.619v137.143c0 42.027 34.164 76.191 76.191 76.191 42.025 0 76.189-34.164 76.189-76.191v-137.143h7.619c29.412 0 53.336 23.924 53.336 53.333v167.619c0 29.41-23.924 53.333-53.336 53.333zM199.619 82.286h167.619c29.409 0 53.333 23.924 53.333 53.333v53.333h320c16.852 0 30.477 13.625 30.477 30.477s-13.625 30.477-30.477 30.477h-320v53.333c0 29.409-23.924 53.333-53.333 53.333h-7.619v-137.143c0-42.028-34.164-76.191-76.191-76.191s-76.191 34.164-76.191 76.191v137.143h-7.619c-29.41 0-53.333-23.924-53.333-53.333v-167.62c0-29.409 23.924-53.333 53.333-53.333z" />
<glyph unicode="&#xe91c;" glyph-name="packaing-service" data-tags="packaing-service" d="M843.428 451.485l-137.143 52.859v154.285c0 21.429-14.286 40.001-34.284 48.572l-142.86 52.857c-11.428 4.286-24.283 4.286-35.714 0l-142.857-52.857c-20-8.571-34.286-27.143-34.286-48.572v-154.285l-137.141-52.859c-20-7.142-32.857-25.714-32.857-47.142v-157.143c0-20 10-38.57 27.143-47.142l142.856-71.428c15.717-7.145 32.859-7.145 47.145 0l148.571 74.284 147.143-74.284c15.714-7.145 32.856-7.145 47.142 0l142.857 71.428c17.145 8.572 28.573 27.142 28.573 47.142v157.143c0 21.428-14.286 40-34.286 47.142zM657.715 502.916l-121.429-45.714v97.142l121.429 52.856v-104.284zM366.285 660.056l145.715 55.716 145.715-55.716-145.715-59.998-145.715 59.998zM486.286 244.344l-121.429-60.001v112.857l121.429 55.714v-108.57zM486.286 404.342l-145.715-58.57-145.713 58.57v1.428l145.713 54.287 145.715-54.287v-1.428zM829.142 244.344l-121.426-60.001v112.857l121.426 55.714v-108.57zM829.142 404.342l-145.712-58.57-145.715 58.57v1.428l145.715 54.287 145.712-54.287v-1.428z" />
<glyph unicode="&#xe91d;" glyph-name="parcel" data-tags="parcel" d="M317.373 114.629h361.428c60.027 0 93.971 33.312 93.971 92.713v180.086h1.258c26.712 10.372 39.913 35.515 39.913 73.228v74.802c0 49.971-27.97 80.457-76.999 80.457h-39.6c16.969 17.914 27.341 41.484 27.341 68.827 0 65.371-52.8 112.514-117.857 112.514-49.971 0-93.971-29.543-108.743-82.029-14.456 52.486-58.456 82.029-108.743 82.029-65.056 0-117.542-47.143-117.542-112.514 0-27.344 10.371-50.913 27.343-68.827h-39.6c-48.086 0-77-30.486-77-80.457v-74.802c0-37.712 13.2-62.856 39.914-73.228h1.257v-180.086c0-59.401 33.943-92.713 93.659-92.713zM461.628 615.916h-44.313c-45.887 0-71.973 24.512-71.973 57.827 0 31.743 20.743 52.486 53.429 52.486 34.57 0 62.856-29.857 62.856-70.714v-39.6zM534.543 615.916v39.6c0 40.856 28.599 70.714 62.856 70.714 33.002 0 53.745-20.743 53.745-52.486 0-33.316-26.086-57.827-71.973-57.827h-44.629zM460.057 450.601h-178.2c-13.514 0-19.8 6.284-19.8 20.114v54.998c0 13.517 6.286 20.117 19.8 20.117h178.2v-95.229zM536.43 450.601v95.229h178.199c13.827 0 19.798-6.6 19.798-20.117v-56.569c0-13.83-5.971-18.543-19.798-18.543h-178.199zM460.057 186.286h-121.944c-22.627 0-35.199 13.514-35.199 34.886v159.027h157.143v-193.913zM536.43 186.286v193.913h157.143v-159.027c0-21.372-12.888-34.886-35.515-34.886h-121.628z" />
<glyph unicode="&#xe91e;" glyph-name="SME-Delivery" data-tags="SME-Delivery" d="M520.227 417.83c24.687-6.858 46.63-19.201 67.201-34.286l222.173 74.056c10.971 4.116 17.826 16.457 13.713 27.429l-83.658 248.229c-2.741 12.343-15.085 17.829-27.426 13.714l-83.658-27.429 45.255-135.772-82.283-27.429-46.63 135.772-83.658-28.799c-12.341-2.744-17.829-15.085-13.713-27.429l72.684-218.056zM905.599 350.629l-13.713 42.514c-4.114 10.971-16.457 16.457-28.801 13.716l-292.115-98.743c-23.312 30.17-60.343 50.741-101.484 50.741l-135.774 410.058c-5.483 17.828-23.312 30.171-41.141 30.171h-153.6c-12.343 0-21.943-10.971-21.943-21.943v-43.886c0-12.343 9.6-21.943 21.943-21.943h120.686l127.544-379.886c-35.659-28.801-57.601-74.056-49.371-124.799 8.227-53.485 52.113-98.743 105.598-108.342 82.289-15.088 153.6 47.999 154.972 127.541l293.487 97.374c10.971 4.114 17.829 16.457 13.713 27.429zM468.114 162.743c-37.028 0-65.829 28.801-65.829 65.829 0 35.659 28.801 65.829 65.829 65.829 35.659 0 65.829-30.17 65.829-65.829 0-37.028-30.17-65.829-65.829-65.829z" />
<glyph unicode="&#xe91f;" glyph-name="truck" data-tags="truck" d="M837.992 500.686c-1.123 1.454-2.206 2.858-3.239 4.222-12.894 16.99-23.315 36.109-32.511 52.982-9.017 16.542-17.534 32.168-26.832 42.973-20.743 24.105-40.264 35.822-59.673 35.822h-95.843c-0.091 0-9.248-0.111-20.266-0.111h-15.629c-11.17 0-20.913-7.586-23.69-18.447l-0.129-0.506v-211.617l0.023-0.436c0.012-0.129 0.249-3.16-2.142-5.767-2.636-2.882-7.698-4.403-14.637-4.403h-373.312c-13.139 0.003-23.828-10.053-23.828-22.414v-77.052c0-12.358 10.689-22.414 23.828-22.414h81.989c4.296-49.085 45.601-87.722 95.786-87.722 50.188 0 91.496 38.637 95.791 87.722h137.219c4.295-49.085 45.6-87.722 95.785-87.722 50.188 0 91.496 38.637 95.791 87.722h62.362c23.643 0 42.876 19.231 42.876 42.87v73.57c0.003 59.208-23.9 90.211-39.719 110.727zM712.546 281.963c0-19.766-16.089-35.849-35.863-35.849-19.766 0-35.849 16.083-35.849 35.849 0 19.769 16.083 35.855 35.849 35.855 19.775 0 35.863-16.083 35.863-35.855zM795.007 468.618c-0.749-1.238-2.891-1.77-6.138-1.562l-164.77 0.009v134.401h71.235c19.166 0 32.748-8.344 46.882-28.798 9.397-13.605 34.281-56.437 35.55-58.623 0.884-1.706 1.793-3.441 2.709-5.19 7.18-13.722 18.031-34.453 14.532-40.237zM347.888 317.817c19.775 0 35.863-16.086 35.863-35.855 0-19.766-16.089-35.849-35.863-35.849-19.766 0-35.849 16.083-35.849 35.849 0 19.772 16.083 35.855 35.849 35.855zM196.506 429.48h112.95c11.451 0 20.764 9.313 20.764 20.761v83.052c0 11.451-9.313 20.764-20.764 20.764h-112.95c-11.449 0-20.763-9.313-20.763-20.764v-83.052c0-11.448 9.315-20.761 20.763-20.761zM384.205 429.48h112.953c11.448 0 20.761 9.313 20.761 20.761v83.052c0 11.451-9.313 20.764-20.761 20.764h-112.953c-11.448 0-20.761-9.313-20.761-20.764v-83.052c0-11.448 9.315-20.761 20.761-20.761zM196.506 585.623h112.95c11.451 0 20.764 9.313 20.764 20.764v83.050c0 11.449-9.313 20.763-20.764 20.763h-112.95c-11.449 0-20.763-9.313-20.763-20.763v-83.050c0-11.451 9.315-20.764 20.763-20.764zM384.205 585.623h112.953c11.448 0 20.761 9.313 20.761 20.764v83.050c0 11.449-9.313 20.763-20.761 20.763h-112.953c-11.448 0-20.761-9.313-20.761-20.763v-83.050c0-11.451 9.315-20.764 20.761-20.764z" />
<glyph unicode="&#xe920;" d="M854.636 622.89l-336.194 189.136c-1.966 1.107-4.184 1.688-6.442 1.688-2.256 0-4.476-0.581-6.442-1.688l-336.193-189.136c-2.026-1.141-3.713-2.8-4.886-4.804s-1.792-4.286-1.793-6.606v-516.093c0-3.476 1.382-6.808 3.843-9.266 2.461-2.455 5.798-3.836 9.278-3.836h672.386c3.479 0 6.817 1.381 9.277 3.836 2.461 2.458 3.844 5.79 3.844 9.266v516.111c-0.006 2.32-0.626 4.596-1.799 6.597s-2.855 3.654-4.88 4.795z" />
<glyph unicode="&#xe921;" d="M244.686 448.53c0 32.315 26.198 58.514 58.515 58.514h417.602c32.317 0 58.514-26.2 58.514-58.514v-366.241h-534.631v366.241z" />
<glyph unicode="&#xe922;" d="M622.191 208.299h-236.576c-14.866 0-26.914-12.048-26.914-26.914v-42.022c0-14.866 12.048-26.917 26.914-26.917h236.576c14.866 0 26.917 12.051 26.917 26.917v42.022c0 14.866-12.051 26.914-26.917 26.914z" />
<glyph unicode="&#xe923;" d="M447.321 148.43c7.019 0 12.712 5.693 12.712 12.715 0 7.019-5.693 12.712-12.712 12.712-7.022 0-12.715-5.693-12.715-12.712 0-7.022 5.693-12.715 12.715-12.715z" />
<glyph unicode="&#xe924;" d="M401.885 173.858c-2.516 0-4.974-0.746-7.063-2.142-2.092-1.398-3.722-3.385-4.684-5.708s-1.214-4.877-0.723-7.344c0.492-2.466 1.703-4.731 3.479-6.51 1.779-1.779 4.043-2.99 6.51-3.479 2.466-0.492 5.023-0.24 7.346 0.723s4.307 2.592 5.705 4.681c1.396 2.092 2.142 4.549 2.142 7.066 0 3.37-1.34 6.603-3.724 8.988-2.382 2.384-5.617 3.724-8.988 3.724v0z" />
<glyph unicode="&#xe925;" d="M622.191 312.528h-236.576c-14.866 0-26.914-12.048-26.914-26.914v-42.022c0-14.866 12.048-26.917 26.914-26.917h236.576c14.866 0 26.917 12.051 26.917 26.917v42.022c0 14.866-12.051 26.914-26.917 26.914z" />
<glyph unicode="&#xe926;" d="M451.999 278.086c-2.513-0.003-4.971-0.752-7.060-2.15s-3.716-3.385-4.675-5.708c-0.96-2.323-1.211-4.877-0.72-7.344 0.494-2.466 1.706-4.728 3.485-6.507 1.779-1.776 4.043-2.984 6.51-3.476 2.463-0.489 5.021-0.237 7.344 0.726 2.32 0.963 4.307 2.592 5.702 4.684 1.396 2.089 2.142 4.547 2.142 7.063 0 1.671-0.331 3.324-0.968 4.865-0.641 1.545-1.577 2.946-2.759 4.128-1.182 1.179-2.586 2.115-4.131 2.753-1.542 0.638-3.198 0.965-4.868 0.965v0z" />
<glyph unicode="&#xe927;" d="M406.563 278.086c-2.513 0-4.974-0.746-7.063-2.142-2.092-1.398-3.722-3.385-4.684-5.708-0.96-2.323-1.211-4.877-0.723-7.344 0.492-2.466 1.703-4.731 3.479-6.51 1.779-1.779 4.043-2.99 6.51-3.479 2.466-0.492 5.023-0.24 7.346 0.723s4.31 2.592 5.705 4.681c1.396 2.092 2.142 4.549 2.142 7.066 0 1.668-0.328 3.321-0.965 4.863-0.641 1.545-1.577 2.946-2.756 4.125-1.182 1.182-2.583 2.118-4.125 2.756s-3.195 0.968-4.865 0.968v0z" />
<glyph unicode="&#xe928;" d="M622.191 416.572h-236.576c-14.866 0-26.914-12.051-26.914-26.917v-42.022c0-14.866 12.048-26.917 26.914-26.917h236.576c14.866 0 26.917 12.051 26.917 26.917v42.022c0 14.866-12.051 26.917-26.917 26.917z" />
<glyph unicode="&#xe929;" d="M451.999 382.142c-2.513-0.003-4.971-0.749-7.060-2.15-2.092-1.398-3.719-3.385-4.678-5.711-0.96-2.323-1.208-4.88-0.714-7.346s1.706-4.731 3.487-6.507c1.782-1.776 4.046-2.981 6.516-3.47 2.466-0.489 5.023-0.231 7.344 0.734 2.323 0.965 4.307 2.598 5.699 4.69 1.396 2.095 2.136 4.552 2.133 7.069-0.006 3.37-1.349 6.6-3.736 8.979-2.384 2.382-5.62 3.716-8.991 3.713z" />
<glyph unicode="&#xe92a;" d="M406.563 382.142c-2.516 0-4.974-0.746-7.066-2.145-2.092-1.396-3.719-3.382-4.681-5.708-0.963-2.323-1.214-4.88-0.72-7.346 0.492-2.466 1.703-4.734 3.485-6.51 1.779-1.776 4.046-2.987 6.513-3.476 2.469-0.489 5.026-0.234 7.349 0.731 2.32 0.965 4.307 2.598 5.699 4.693 1.396 2.092 2.139 4.552 2.133 7.069-0.003 3.367-1.343 6.597-3.727 8.979-2.384 2.379-5.617 3.716-8.985 3.713v0z" />
<glyph unicode="&#xe92b;" d="M512.003 577.864c32.607 0 59.041 26.434 59.041 59.041s-26.434 59.038-59.041 59.038-59.038-26.433-59.038-59.038c0-32.607 26.431-59.041 59.038-59.041z" />
<glyph unicode="&#xe92c;" d="M512.003 676.287c13.944-0.008 27.434-4.953 38.078-13.958 10.647-9.008 17.759-21.492 20.076-35.24 1.486 8.485 1.097 17.194-1.138 25.515-2.238 8.321-6.27 16.049-11.811 22.646s-12.461 11.901-20.269 15.54c-7.809 3.639-16.32 5.524-24.936 5.524s-17.127-1.886-24.936-5.524c-7.809-3.639-14.728-8.943-20.269-15.54s-9.573-14.325-11.808-22.646c-2.238-8.321-2.627-17.031-1.141-25.515 2.32 13.748 9.43 26.232 20.076 35.24 10.644 9.005 24.134 13.95 38.078 13.958v0z" />
</font>
</defs>
</svg>
