<svg width="79" height="77" viewBox="0 0 79 77" fill="none" xmlns="http://www.w3.org/2000/svg">
<g filter="url(#filter0_d_350_52592)">
<path d="M18.2734 31.5078C19.7734 31.5078 20.5703 30.6875 20.5703 29.1875V23.8906C20.5703 21.6172 21.7656 20.4922 23.9453 20.4922H29.3594C30.8594 20.4922 31.6797 19.6719 31.6797 18.1953C31.6797 16.7188 30.8594 15.8984 29.3594 15.8984H23.6641C18.6016 15.8984 15.9766 18.5 15.9766 23.4922V29.1875C15.9766 30.6875 16.7969 31.5078 18.2734 31.5078ZM60.1094 31.5078C61.6094 31.5078 62.4062 30.6875 62.4062 29.1875V23.4922C62.4062 18.5 59.7812 15.8984 54.7188 15.8984H49.0234C47.5234 15.8984 46.7031 16.7188 46.7031 18.1953C46.7031 19.6719 47.5234 20.4922 49.0234 20.4922H54.4375C56.5938 20.4922 57.8125 21.6172 57.8125 23.8906V29.1875C57.8125 30.6875 58.6328 31.5078 60.1094 31.5078ZM29.9219 52.0156H48.4375C50.1484 52.0156 50.9219 51.3359 50.9219 49.625V28.5781C50.9219 26.8672 50.1484 26.2109 48.4375 26.2109H29.9219C28.2109 26.2109 27.4375 26.8672 27.4375 28.5781V49.625C27.4375 51.3359 28.2109 52.0156 29.9219 52.0156ZM31.4688 48.6641C31.0234 48.6641 30.7891 48.4766 30.7891 47.9375V30.2656C30.7891 29.75 31.0234 29.5391 31.4688 29.5391H46.8906C47.3359 29.5391 47.5703 29.75 47.5703 30.2656V47.9375C47.5703 48.4766 47.3359 48.6641 46.8906 48.6641H31.4688ZM34.6328 35.4922H43.7266C44.5234 35.4922 45.0625 34.9297 45.0625 34.1562C45.0625 33.3828 44.5234 32.8203 43.7266 32.8203H34.6328C33.8359 32.8203 33.2969 33.3828 33.2969 34.1562C33.2969 34.9297 33.8359 35.4922 34.6328 35.4922ZM34.6328 40.4609H39.625C40.3984 40.4609 40.9375 39.8984 40.9375 39.125C40.9375 38.3516 40.3984 37.7891 39.625 37.7891H34.6328C33.8359 37.7891 33.2969 38.3516 33.2969 39.125C33.2969 39.8984 33.8359 40.4609 34.6328 40.4609ZM23.6641 62.3281H29.3594C30.8594 62.3281 31.6797 61.5078 31.6797 60.0312C31.6797 58.5547 30.8594 57.7344 29.3594 57.7344H23.9453C21.7656 57.7344 20.5703 56.6094 20.5703 54.3125V49.0156C20.5703 47.5156 19.75 46.6953 18.2734 46.6953C16.7734 46.6953 15.9766 47.5156 15.9766 49.0156V54.7109C15.9766 59.7266 18.6016 62.3281 23.6641 62.3281ZM49.0234 62.3281H54.7188C59.7812 62.3281 62.4062 59.7266 62.4062 54.7109V49.0156C62.4062 47.5156 61.5859 46.6953 60.1094 46.6953C58.6094 46.6953 57.8125 47.5391 57.8125 49.0156V54.3125C57.8125 56.6094 56.5938 57.7344 54.4375 57.7344H49.0234C47.5234 57.7344 46.7031 58.5547 46.7031 60.0312C46.7031 61.5078 47.5234 62.3281 49.0234 62.3281Z" fill="#EB444B"/>
</g>
<defs>
<filter id="filter0_d_350_52592" x="-4" y="0" width="87" height="85" filterUnits="userSpaceOnUse" color-interpolation-filters="sRGB">
<feFlood flood-opacity="0" result="BackgroundImageFix"/>
<feColorMatrix in="SourceAlpha" type="matrix" values="0 0 0 0 0 0 0 0 0 0 0 0 0 0 0 0 0 0 127 0" result="hardAlpha"/>
<feOffset dy="4"/>
<feGaussianBlur stdDeviation="2"/>
<feComposite in2="hardAlpha" operator="out"/>
<feColorMatrix type="matrix" values="0 0 0 0 0 0 0 0 0 0 0 0 0 0 0 0 0 0 0.25 0"/>
<feBlend mode="normal" in2="BackgroundImageFix" result="effect1_dropShadow_350_52592"/>
<feBlend mode="normal" in="SourceGraphic" in2="effect1_dropShadow_350_52592" result="shape"/>
</filter>
</defs>
</svg>
