<svg width="78" height="78" viewBox="0 0 78 78" fill="none" xmlns="http://www.w3.org/2000/svg">
<path d="M38.687 63.1299C52.0137 63.1299 63.0913 52.0522 63.0913 38.7256C63.0913 25.375 51.9897 14.3213 38.6631 14.3213C26.1978 14.3213 15.79 23.9155 14.4502 36.0459C15.6226 35.8306 17.3213 35.7349 18.5894 35.8784C19.9053 25.9492 28.3271 18.3887 38.6631 18.3887C49.9321 18.3887 59.0239 27.4326 59.0239 38.7256C59.0239 43.9893 57.062 48.7744 53.7842 52.3394C51.4395 49.54 45.8887 46.8604 38.6631 46.8604C36.3662 46.8604 34.2607 47.1475 32.3706 47.6021C32.6577 48.7505 32.8013 49.9946 32.8013 51.2148C32.8013 54.9473 31.4375 58.4165 29.1406 61.1201C32.0835 62.4121 35.3135 63.1299 38.687 63.1299ZM38.6631 42.793C43.2568 42.8408 46.8696 38.917 46.8696 33.7729C46.8696 28.9399 43.2329 24.9443 38.6631 24.9443C34.0693 24.9443 30.4087 28.9399 30.4565 33.7729C30.4805 38.8931 34.0693 42.7451 38.6631 42.793ZM17.3691 63.3931C23.9487 63.3931 29.5234 57.8901 29.5234 51.2388C29.5234 44.5635 24.0444 39.0845 17.3691 39.0845C10.7178 39.0845 5.21484 44.5874 5.21484 51.2388C5.21484 57.938 10.7178 63.3931 17.3691 63.3931ZM17.3691 53.2964C16.5317 53.2964 15.9336 52.7222 15.9097 51.9087L15.7183 45.0659C15.6943 44.085 16.3643 43.415 17.3691 43.415C18.374 43.415 19.0439 44.085 19.02 45.0659L18.8286 51.9087C18.8047 52.7222 18.2065 53.2964 17.3691 53.2964ZM17.3691 58.9907C16.2686 58.9907 15.3354 58.1055 15.3354 56.981C15.3354 55.8804 16.2686 54.9473 17.3691 54.9473C18.4937 54.9473 19.4028 55.8804 19.3789 56.981C19.3789 58.1055 18.4697 58.9907 17.3691 58.9907Z" fill="#EB444B"/>
</svg>
