<svg width="79" height="77" viewBox="0 0 79 77" fill="none" xmlns="http://www.w3.org/2000/svg">
<path d="M52.5025 33.0383H65.5225C66.1763 33.0383 66.6164 32.5162 66.6164 31.9881V31.7031C66.6164 31.1751 66.1763 30.6529 65.5225 30.6529H52.5025C51.9613 30.6529 51.4086 31.0674 51.4086 31.7031V31.9881C51.4086 32.5162 51.8487 33.0383 52.5025 33.0383Z" fill="#EB444B" stroke="#EB444B" stroke-width="0.2"/>
<path d="M46.5395 37.884H59.5595C60.2133 37.884 60.6534 37.3619 60.6534 36.8339V36.5488C60.6534 36.0208 60.2133 35.4986 59.5595 35.4986H46.5395C45.9983 35.4986 45.4456 35.9131 45.4456 36.5488V36.8339C45.4456 37.3619 45.8857 37.884 46.5395 37.884Z" fill="#EB444B" stroke="#EB444B" stroke-width="0.2"/>
<path d="M54.9861 42.636H68.0061C68.3256 42.636 68.6003 42.5338 68.7957 42.347C68.9916 42.1597 69.1 41.895 69.1 41.5858V41.3008C69.1 40.7727 68.6599 40.2506 68.0061 40.2506H54.9861C54.4449 40.2506 53.8922 40.665 53.8922 41.3008V41.5858C53.8922 42.1138 54.3323 42.636 54.9861 42.636Z" fill="#EB444B" stroke="#EB444B" stroke-width="0.2"/>
<path d="M22.2869 20.1113V20.0113H22.1869H15.5278C13.986 20.0113 12.6449 21.2871 12.6449 22.7718V29.1379V29.2379H12.7449H22.1869H22.2869V29.1379V20.1113Z" fill="#EB444B" stroke="#EB444B" stroke-width="0.2"/>
<path d="M12.7457 31.9841H12.6457V32.0841V38.4502C12.6457 39.9326 13.885 41.2107 15.5286 41.2107H22.1876H22.2876V41.1107V32.0841V31.9841H22.1876H12.7457Z" fill="#EB444B" stroke="#EB444B" stroke-width="0.2"/>
<path d="M34.7128 29.2379H34.8128V29.1379V22.7718C34.8128 21.2894 33.5734 20.0113 31.9299 20.0113H25.2708H25.1708V20.1113V29.1379V29.2379H25.2708H34.7128Z" fill="#EB444B" stroke="#EB444B" stroke-width="0.2"/>
<path d="M25.2728 31.984H25.1728V32.084V41.1106V41.2106H25.2728H31.9319C33.4713 41.2106 34.8148 40.0321 34.8148 38.4501V32.084V31.984H34.7148H25.2728Z" fill="#EB444B" stroke="#EB444B" stroke-width="0.2"/>
<path d="M57.7066 24.1156H57.7067C58.7249 24.2134 59.6448 23.5083 59.8282 22.4137C60.0127 21.3123 59.2747 20.3101 58.2574 20.1094L58.2478 20.1075H58.238H58.1585C52.1058 19.1039 47.9516 21.8663 44.8573 25.654C43.3105 27.5474 42.0266 29.6988 40.9 31.7668C40.4441 32.6038 40.0148 33.4254 39.6043 34.2111C38.9982 35.371 38.4332 36.4523 37.8842 37.3883L37.8841 37.3886C37.1697 38.6159 36.4939 39.934 35.9425 41.0096C35.6809 41.5198 35.4473 41.9755 35.2508 42.3411C35.1674 42.4882 35.094 42.6219 35.0265 42.745C34.9495 42.8853 34.8801 43.0119 34.8119 43.1289C34.6855 43.3456 34.5729 43.512 34.4452 43.6395C34.1978 43.8864 33.8783 44.003 33.2326 44.003H13.7548C12.7269 44.003 11.9 44.9124 11.9 46.007C11.9 46.9908 12.5334 47.9002 13.4683 48.0091C13.4705 48.0097 13.4724 48.0101 13.4739 48.0105C13.4818 48.0124 13.4899 48.0137 13.4966 48.0145C13.5105 48.0164 13.5284 48.018 13.5489 48.0194C13.5905 48.0224 13.6495 48.0251 13.7242 48.0277C13.874 48.0329 14.0904 48.0378 14.3635 48.0423C14.91 48.0512 15.6856 48.0586 16.6138 48.0646C18.4703 48.0765 20.9382 48.0824 23.406 48.0824C25.8737 48.0824 28.3416 48.0765 30.1981 48.0646C31.1263 48.0586 31.9019 48.0512 32.4484 48.0423C32.7215 48.0378 32.9379 48.0329 33.0877 48.0277C33.1624 48.0251 33.2215 48.0224 33.263 48.0194C33.2835 48.018 33.3014 48.0164 33.3153 48.0145C33.3214 48.0137 33.3286 48.0126 33.3358 48.011C34.6598 48.0088 35.643 47.7192 36.4618 47.1107C37.2806 46.5022 37.9251 45.5818 38.5852 44.3403L38.5853 44.3404L38.5867 44.3375C38.6612 44.1859 38.7397 44.0257 38.8216 43.8584C39.5123 42.4485 40.4518 40.5308 41.391 38.9172L41.391 38.9173L41.3927 38.9142C41.8103 38.1357 42.231 37.3054 42.6644 36.4499C44.0127 33.7885 45.4842 30.8839 47.3706 28.5408C49.8576 25.4517 53.0492 23.3606 57.6075 24.1142L57.6156 24.1156H57.6238H57.6244H57.6249H57.6254H57.6259H57.6264H57.6269H57.6274H57.6279H57.6284H57.6289H57.6294H57.6299H57.6304H57.6308H57.6313H57.6318H57.6323H57.6328H57.6332H57.6337H57.6342H57.6347H57.6351H57.6356H57.6361H57.6365H57.637H57.6375H57.6379H57.6384H57.6388H57.6393H57.6397H57.6402H57.6406H57.6411H57.6415H57.642H57.6424H57.6428H57.6433H57.6437H57.6441H57.6446H57.645H57.6454H57.6458H57.6463H57.6467H57.6471H57.6475H57.6479H57.6484H57.6488H57.6492H57.6496H57.65H57.6504H57.6508H57.6512H57.6516H57.652H57.6524H57.6528H57.6532H57.6536H57.654H57.6544H57.6547H57.6551H57.6555H57.6559H57.6563H57.6566H57.657H57.6574H57.6578H57.6581H57.6585H57.6589H57.6592H57.6596H57.66H57.6603H57.6607H57.661H57.6614H57.6617H57.6621H57.6624H57.6628H57.6631H57.6635H57.6638H57.6642H57.6645H57.6649H57.6652H57.6655H57.6659H57.6662H57.6665H57.6669H57.6672H57.6675H57.6678H57.6681H57.6685H57.6688H57.6691H57.6694H57.6697H57.6701H57.6704H57.6707H57.671H57.6713H57.6716H57.6719H57.6722H57.6725H57.6728H57.6731H57.6734H57.6737H57.674H57.6743H57.6746H57.6748H57.6751H57.6754H57.6757H57.676H57.6763H57.6765H57.6768H57.6771H57.6774H57.6777H57.6779H57.6782H57.6785H57.6787H57.679H57.6793H57.6795H57.6798H57.68H57.6803H57.6806H57.6808H57.6811H57.6813H57.6816H57.6818H57.6821H57.6823H57.6826H57.6828H57.6831H57.6833H57.6835H57.6838H57.684H57.6843H57.6845H57.6847H57.685H57.6852H57.6854H57.6857H57.6859H57.6861H57.6863H57.6866H57.6868H57.687H57.6872H57.6874H57.6877H57.6879H57.6881H57.6883H57.6885H57.6887H57.6889H57.6891H57.6893H57.6895H57.6898H57.69H57.6902H57.6904H57.6906H57.6908H57.6909H57.6911H57.6913H57.6915H57.6917H57.6919H57.6921H57.6923H57.6925H57.6927H57.6928H57.693H57.6932H57.6934H57.6936H57.6937H57.6939H57.6941H57.6943H57.6944H57.6946H57.6948H57.695H57.6951H57.6953H57.6955H57.6956H57.6958H57.696H57.6961H57.6963H57.6964H57.6966H57.6968H57.6969H57.6971H57.6972H57.6974H57.6975H57.6977H57.6978H57.698H57.6981H57.6983H57.6984H57.6986H57.6987H57.6988H57.699H57.6991H57.6993H57.6994H57.6995H57.6997H57.6998H57.7H57.7001H57.7002H57.7003H57.7005H57.7006H57.7007H57.7009H57.701H57.7011H57.7012H57.7014H57.7015H57.7016H57.7017H57.7018H57.702H57.7021H57.7022H57.7023H57.7024H57.7025H57.7026H57.7028H57.7029H57.703H57.7031H57.7032H57.7033H57.7034H57.7035H57.7036H57.7037H57.7038H57.7039H57.704H57.7041H57.7042H57.7043H57.7044H57.7045H57.7046H57.7047H57.7048H57.7049H57.705H57.7051H57.7052H57.7053H57.7053H57.7054H57.7055H57.7056H57.7057H57.7058H57.7059H57.7059H57.706H57.7061H57.7062H57.7063H57.7063H57.7064H57.7065H57.7066H57.7066Z" fill="#EB444B" stroke="#EB444B" stroke-width="0.2"/>
<path d="M23.1878 54.6096C24.0701 53.2138 23.6003 51.4019 22.1448 50.561C20.6892 49.7202 18.7929 50.1652 17.9106 51.561C17.0284 52.9568 17.4981 54.7687 18.9537 55.6096C20.4092 56.4505 22.3056 56.0054 23.1878 54.6096Z" fill="#EB444B" stroke="#EB444B" stroke-width="0.2"/>
<path d="M35.5369 54.4641C36.4192 53.0683 35.9494 51.2564 34.4939 50.4155C33.0383 49.5747 31.142 50.0197 30.2597 51.4155C29.3775 52.8113 29.8472 54.6232 31.3028 55.4641C32.7583 56.3049 34.6547 55.8599 35.5369 54.4641Z" fill="#EB444B" stroke="#EB444B" stroke-width="0.2"/>
</svg>
