<svg width="77" height="77" viewBox="0 0 77 77" fill="none" xmlns="http://www.w3.org/2000/svg">
<path d="M62.8 34.2901C60.88 34.2901 59.32 35.5531 58.78 37.2972H49.9V32.2453C49.9 32.1851 49.9 32.125 49.9 32.0649H54.88C55.54 32.0649 56.14 31.5236 56.14 30.8019V25.329C57.88 24.7877 59.14 23.2241 59.14 21.2995C59.14 18.954 57.28 17.0896 54.94 17.0896C52.6 17.0896 50.74 18.954 50.74 21.2995C50.74 23.2241 52 24.7877 53.74 25.329V29.5991H49.24C48.34 28.0955 46.72 27.0731 44.86 27.0731H39.82V21.2394C41.56 20.6981 42.82 19.1344 42.82 17.2099C42.82 14.8644 40.96 13 38.62 13C36.28 13 34.42 14.8644 34.42 17.2099C34.42 19.1344 35.68 20.6981 37.42 21.2394V27.0731H32.38C30.52 27.0731 28.9 28.0955 28 29.5991H23.5V25.329C25.24 24.7877 26.5 23.2241 26.5 21.2995C26.5 18.954 24.64 17.0896 22.3 17.0896C19.96 17.0896 18.1 18.954 18.1 21.2995C18.1 23.2241 19.36 24.7877 21.1 25.329V30.8019C21.1 31.4634 21.64 32.0649 22.36 32.0649H27.1C27.1 32.125 27.1 32.1851 27.1 32.2453V37.2972H18.22C17.68 35.5531 16.12 34.2901 14.2 34.2901C11.86 34.2901 10 36.1545 10 38.5C10 40.8455 11.86 42.7099 14.2 42.7099C16.12 42.7099 17.68 41.4469 18.22 39.7028H27.1V44.7547C27.1 44.8149 27.1 44.875 27.1 44.9351H22.12C21.46 44.9351 20.86 45.4764 20.86 46.1981V51.7311C19.12 52.2724 17.86 53.8361 17.86 55.7606C17.86 58.1061 19.72 59.9705 22.06 59.9705C24.4 59.9705 26.26 58.1061 26.26 55.7606C26.26 53.8361 25 52.2724 23.26 51.7311V47.4009H27.76C28.66 48.9045 30.28 49.9269 32.14 49.9269H37.3V55.7606C35.56 56.3019 34.3 57.8656 34.3 59.7901C34.3 62.1356 36.16 64 38.5 64C40.84 64 42.7 62.1356 42.7 59.7901C42.7 57.8656 41.44 56.3019 39.7 55.7606V49.9269H44.74C46.6 49.9269 48.22 48.9045 49.12 47.4009H53.62V51.7311C51.88 52.2724 50.62 53.8361 50.62 55.7606C50.62 58.1061 52.48 59.9705 54.82 59.9705C57.16 59.9705 59.02 58.1061 59.02 55.7606C59.02 53.8361 57.76 52.2724 56.02 51.7311V46.1981C56.02 45.5366 55.48 44.9351 54.76 44.9351H49.9C49.9 44.875 49.9 44.8149 49.9 44.7547V39.7028H58.78C59.32 41.4469 60.88 42.7099 62.8 42.7099C65.14 42.7099 67 40.8455 67 38.5C67 36.1545 65.14 34.2901 62.8 34.2901ZM53.14 21.2995C53.14 20.3373 53.92 19.5554 54.88 19.5554C55.84 19.5554 56.62 20.3373 56.62 21.2995C56.62 22.2618 55.84 23.0436 54.88 23.0436C53.92 23.0436 53.14 22.2618 53.14 21.2995ZM20.38 21.2995C20.38 20.3373 21.16 19.5554 22.12 19.5554C23.08 19.5554 23.86 20.3373 23.86 21.2995C23.86 22.2618 23.08 23.0436 22.12 23.0436C21.16 23.0436 20.38 22.2618 20.38 21.2995ZM14.2 40.2441C13.24 40.2441 12.46 39.4623 12.46 38.5C12.46 37.5377 13.24 36.7559 14.2 36.7559C15.16 36.7559 15.94 37.5377 15.94 38.5C15.94 39.4623 15.16 40.2441 14.2 40.2441ZM23.86 55.7606C23.86 56.7229 23.08 57.5047 22.12 57.5047C21.16 57.5047 20.38 56.7229 20.38 55.7606C20.38 54.7983 21.16 54.0165 22.12 54.0165C23.08 54.0165 23.86 54.7983 23.86 55.7606ZM36.76 17.2099C36.76 16.2476 37.54 15.4658 38.5 15.4658C39.46 15.4658 40.24 16.2476 40.24 17.2099C40.24 18.1722 39.46 18.954 38.5 18.954C37.54 18.954 36.76 18.1722 36.76 17.2099ZM40.24 59.7901C40.24 60.7524 39.46 61.5342 38.5 61.5342C37.54 61.5342 36.76 60.7524 36.76 59.7901C36.76 58.8278 37.54 58.046 38.5 58.046C39.46 58.046 40.24 58.8278 40.24 59.7901ZM43.84 36.5755L38.32 42.4092C38.02 42.7099 37.66 42.8903 37.24 42.8903C36.82 42.8903 36.46 42.7099 36.16 42.4092L33.16 39.2217C32.62 38.6203 32.62 37.7182 33.22 37.1167C33.82 36.5755 34.72 36.5755 35.32 37.1769L37.24 39.2217L41.68 34.5307C42.22 33.9292 43.18 33.9292 43.78 34.4705C44.38 35.0719 44.38 36.0342 43.84 36.5755ZM56.62 55.7606C56.62 56.7229 55.84 57.5047 54.88 57.5047C53.92 57.5047 53.14 56.7229 53.14 55.7606C53.14 54.7983 53.92 54.0165 54.88 54.0165C55.84 54.0165 56.62 54.7983 56.62 55.7606ZM62.8 40.2441C61.84 40.2441 61.06 39.4623 61.06 38.5C61.06 37.5377 61.84 36.7559 62.8 36.7559C63.76 36.7559 64.54 37.5377 64.54 38.5C64.54 39.4623 63.76 40.2441 62.8 40.2441Z" fill="#EB444B"/>
</svg>
