<svg width="77" height="77" viewBox="0 0 77 77" fill="none" xmlns="http://www.w3.org/2000/svg">
<path fill-rule="evenodd" clip-rule="evenodd" d="M38.1418 31.322C42.1057 31.322 45.3188 34.5352 45.3188 38.4991C45.3188 42.463 42.1057 45.6761 38.1418 45.6761C34.1779 45.6761 30.9647 42.463 30.9647 38.4991C30.9647 34.5352 34.1779 31.322 38.1418 31.322ZM42.493 36.9172L37.7483 41.6619C37.6371 41.7731 37.5039 41.8287 37.3469 41.8287C37.196 41.8287 37.0628 41.7722 36.9534 41.6619L33.7897 38.4982C33.6856 38.3941 33.6326 38.2635 33.6326 38.1047C33.6326 37.9433 33.6856 37.8074 33.7897 37.7042L34.5854 36.9172C34.6948 36.806 34.8272 36.7513 34.9789 36.7513C35.1298 36.7513 35.2604 36.806 35.3724 36.9172L37.3469 38.8917L40.9111 35.3362C41.0223 35.2251 41.1529 35.1695 41.3046 35.1695C41.4555 35.1695 41.5878 35.2251 41.6981 35.3362L42.4939 36.1223C42.598 36.2264 42.6509 36.3605 42.6509 36.5229C42.6509 36.6817 42.598 36.8122 42.4939 36.9163L42.493 36.9172L42.493 36.9172Z" fill="#EB444B"/>
<path fill-rule="evenodd" clip-rule="evenodd" d="M50.1303 10H26.1474C23.8536 10 22 11.8606 22 14.1545V62.8517C22 65.1376 23.8527 67 26.1465 67H50.1303C52.4206 67 54.2804 65.1394 54.2804 62.8517V14.1545C54.2786 11.8606 52.4206 10 50.1303 10H50.1303ZM51.1705 56.1829H25.1107V17.0068H51.1705V56.1829ZM43.6996 14.2154H32.5798V13.0032H43.7005L43.6996 14.2154H43.6996ZM43.7067 62.0109H32.5595V60.3541H43.7067V62.0109Z" fill="#EB444B"/>
</svg>
