<svg width="77" height="77" viewBox="0 0 77 77" fill="none" xmlns="http://www.w3.org/2000/svg">
<path d="M21.3867 55.332H54.7852C59.0039 55.332 61.1914 53.1445 61.1914 48.9844V27.8711C61.1914 23.6914 59.0039 21.5234 54.7852 21.5234H21.3867C17.168 21.5234 14.9805 23.6914 14.9805 27.8711V48.9844C14.9805 53.1641 17.168 55.332 21.3867 55.332ZM18.8086 28.2031C18.8086 26.3086 19.8047 25.3516 21.6211 25.3516H54.5508C56.3477 25.3516 57.3633 26.3086 57.3633 28.2031V29.6289H18.8086V28.2031ZM21.6211 51.5039C19.8047 51.5039 18.8086 50.5469 18.8086 48.6523V34.1797H57.3633V48.6523C57.3633 50.5469 56.3477 51.5039 54.5508 51.5039H21.6211ZM24.2773 47.9492H29.0625C30.1953 47.9492 30.9766 47.1875 30.9766 46.0742V42.4609C30.9766 41.3672 30.1953 40.5859 29.0625 40.5859H24.2773C23.125 40.5859 22.3438 41.3672 22.3438 42.4609V46.0742C22.3438 47.1875 23.125 47.9492 24.2773 47.9492Z" fill="#EB444B"/>
</svg>
