<svg width="77" height="77" viewBox="0 0 77 77" fill="none" xmlns="http://www.w3.org/2000/svg">
<path d="M63.93 40.0948H54.1396L61.1062 32.5594C63.7875 30.2589 65.4496 26.8087 65.3339 22.9737C65.1441 16.6809 60.0728 11.5207 53.7834 11.2294C53.5902 11.2203 53.3981 11.2163 53.2065 11.2163C46.5039 11.2163 41.0735 16.6495 41.0735 23.3493C41.0735 27.0332 42.7163 30.3341 45.3069 32.56L52.2735 40.0954H46.9987L46.9001 40.145C43.0486 40.3992 39.9922 43.614 39.9922 47.5287C39.9922 51.6088 43.3119 54.9285 47.392 54.9285H50.0693L50.0419 54.8464H51.981C53.9316 54.8464 55.5185 56.4333 55.5185 58.3838C55.5185 60.3338 53.9316 61.9207 51.981 61.9207H24.9317L31.3641 54.9627C34.0454 52.6622 35.7075 49.2119 35.5918 45.377C35.402 39.0842 30.3307 33.924 24.0414 33.6327C23.8481 33.6236 23.656 33.6196 23.4645 33.6196C16.7625 33.6196 11.3315 39.0528 11.3315 45.7526C11.3315 49.4365 12.9742 52.7374 15.5649 54.9632L21.9973 61.9212H13.0723C12.0058 61.9201 11.1411 62.7848 11.1411 63.8512C11.1411 64.9177 12.0058 65.7824 13.0723 65.7824H51.9816C56.0617 65.7824 59.3814 62.4633 59.3814 58.3827C59.3814 54.302 56.0622 50.9829 51.9816 50.9829H46.6316C45.0453 50.6347 43.8546 49.2176 43.8546 47.5282C43.8546 45.5776 45.4414 43.9907 47.392 43.9907H47.852L47.9187 43.9571H63.93C64.9964 43.9571 65.8611 43.0924 65.8611 42.026C65.8611 40.9595 64.9964 40.0948 63.93 40.0948ZM18.4012 52.3401L18.2507 52.1771L18.082 52.0323C16.2466 50.4557 15.1944 48.1666 15.1944 45.752C15.1944 41.192 18.9045 37.4819 23.4651 37.4819C23.5968 37.4819 23.7307 37.4848 23.8635 37.491C28.1465 37.6894 31.6024 41.2046 31.7318 45.4933C31.8076 48.0115 30.7571 50.3947 28.8493 52.0317L28.68 52.1771L28.5284 52.3407L23.4651 57.8172L18.4012 52.3401ZM48.1432 29.9374L47.9922 29.7744L47.8235 29.6296C45.9881 28.053 44.9358 25.7638 44.9358 23.3493C44.9358 18.7893 48.646 15.0792 53.2065 15.0792C53.3382 15.0792 53.4722 15.082 53.6044 15.0883C57.8874 15.2867 61.3433 18.8019 61.4727 23.0905C61.5485 25.6088 60.498 27.9914 58.5902 29.6285L58.4209 29.7738L58.2693 29.9374L53.206 35.414L48.1432 29.9374Z" fill="#EB444B"/>
<path d="M53.2065 25.9478C54.8082 25.9478 56.1067 24.6493 56.1067 23.0476C56.1067 21.4459 54.8082 20.1475 53.2065 20.1475C51.6048 20.1475 50.3063 21.4459 50.3063 23.0476C50.3063 24.6493 51.6048 25.9478 53.2065 25.9478Z" fill="#EB444B"/>
<path d="M23.4624 48.3513C25.0641 48.3513 26.3626 47.0529 26.3626 45.4512C26.3626 43.8495 25.0641 42.551 23.4624 42.551C21.8607 42.551 20.5623 43.8495 20.5623 45.4512C20.5623 47.0529 21.8607 48.3513 23.4624 48.3513Z" fill="#EB444B"/>
</svg>
