<svg width="76" height="77" viewBox="0 0 76 77" fill="none" xmlns="http://www.w3.org/2000/svg">
<path d="M12.4062 29.9062L25.9062 16.4062C28.7188 13.5938 33.5 15.5625 33.5 19.5938V24.9375C37.5312 25.125 41.4688 25.5 44.8438 26.625C48.125 27.6562 50.75 29.1562 52.625 31.2188C54.875 33.75 56 36.8438 56 40.5C56 46.3125 52.9062 51.0938 48.125 54.0938C44.5625 56.3438 40.0625 52.9688 41.4688 48.8438C42.875 44.4375 43.0625 42.2812 33.5 41.5312V46.5C33.5 50.5312 28.7188 52.5 25.9062 49.6875L12.4062 36.1875C10.625 34.5 10.625 31.5938 12.4062 29.9062ZM29 46.5V36.8438C41.0938 37.0312 49.4375 39 45.6875 50.25C48.5 48.5625 51.5 45.4688 51.5 40.5C51.5 30.2812 39.4062 29.3438 29 29.3438V19.5L15.5 33L29 46.5ZM26.75 54.4688C27.2188 54.5625 27.5 55.0312 27.5 55.5938V57.9375C27.5 58.3125 27.7812 58.5 28.0625 58.5H59.9375C60.3125 58.5 60.5 58.3125 60.5 57.9375V26.0625C60.5 25.7812 60.3125 25.5 59.9375 25.5H51.875C51.6875 25.5 51.5 25.5 51.3125 25.4062C50.1875 24.75 49.0625 24.0938 47.75 23.625C47.2812 23.4375 47 23.0625 47 22.5938V22.125C47 21.5625 47.5625 21 48.125 21H60.5C63.0312 21 65 23.0625 65 25.5V58.5C65 61.0312 63.0312 63 60.5 63H27.5C25.0625 63 23 61.0312 23 58.5V54.5625C23 53.7188 24.0312 53.1562 24.7812 53.625C25.3438 54 26 54.2812 26.75 54.4688Z" fill="#EB444B"/>
<path d="M12.4062 29.9062L12.5477 30.0477L12.5438 30.0514L12.4062 29.9062ZM33.5 24.9375L33.4907 25.1373L33.3 25.1284V24.9375H33.5ZM44.8438 26.625L44.7838 26.8158L44.7805 26.8147L44.8438 26.625ZM52.625 31.2188L52.773 31.0842L52.7745 31.0859L52.625 31.2188ZM48.125 54.0938L48.0182 53.9247L48.0187 53.9243L48.125 54.0938ZM41.4688 48.8438L41.6593 48.9046L41.6581 48.9083L41.4688 48.8438ZM33.5 41.5312H33.3V41.3149L33.5156 41.3319L33.5 41.5312ZM12.4062 36.1875L12.5438 36.0423L12.5477 36.0461L12.4062 36.1875ZM29 46.5H29.2V46.9828L28.8586 46.6414L29 46.5ZM29 36.8438H28.8V36.6406L29.0031 36.6438L29 36.8438ZM45.6875 50.25L45.7904 50.4215L45.3268 50.6997L45.4978 50.1868L45.6875 50.25ZM29 29.3438V29.5438H28.8V29.3438H29ZM29 19.5L28.8586 19.3586L29.2 19.0172V19.5H29ZM15.5 33L15.3586 33.1414L15.2172 33L15.3586 32.8586L15.5 33ZM26.75 54.4688L26.7107 54.6651L26.7015 54.6628L26.75 54.4688ZM51.3125 25.4062L51.2229 25.5855L51.2117 25.579L51.3125 25.4062ZM47.75 23.625L47.6827 23.8135L47.6757 23.8107L47.75 23.625ZM24.7812 53.625L24.8873 53.4553L24.8922 53.4586L24.7812 53.625ZM12.2648 29.7648L25.7648 16.2648L26.0477 16.5477L12.5477 30.0477L12.2648 29.7648ZM25.7648 16.2648C28.7044 13.3253 33.7 15.3858 33.7 19.5938H33.3C33.3 15.7392 28.7331 13.8622 26.0477 16.5477L25.7648 16.2648ZM33.7 19.5938V24.9375H33.3V19.5938H33.7ZM33.5093 24.7377C37.5431 24.9253 41.5041 25.301 44.907 26.4353L44.7805 26.8147C41.4334 25.699 37.5194 25.3247 33.4907 25.1373L33.5093 24.7377ZM44.9037 26.4342C48.2078 27.4726 50.8674 28.9881 52.773 31.0842L52.477 31.3533C50.6326 29.3244 48.0422 27.8399 44.7838 26.8158L44.9037 26.4342ZM52.7745 31.0859C55.0597 33.6568 56.2 36.799 56.2 40.5H55.8C55.8 36.8885 54.6903 33.8432 52.4755 31.3516L52.7745 31.0859ZM56.2 40.5C56.2 46.3911 53.0621 51.2321 48.2313 54.2632L48.0187 53.9243C52.7504 50.9554 55.8 46.2339 55.8 40.5H56.2ZM48.2318 54.2628C44.5165 56.6093 39.8098 53.0902 41.2794 48.7792L41.6581 48.9083C40.3152 52.8473 44.6085 56.0782 48.0182 53.9247L48.2318 54.2628ZM41.2782 48.7829C41.6303 47.6797 41.8984 46.7394 41.9622 45.932C42.0255 45.1316 41.8865 44.4828 41.4431 43.9434C40.9939 43.3968 40.2099 42.9344 38.9216 42.5628C37.6355 42.1918 35.8697 41.9177 33.4844 41.7306L33.5156 41.3319C35.9115 41.5198 37.7083 41.7965 39.0325 42.1784C40.3546 42.5598 41.2287 43.0525 41.7522 43.6894C42.2815 44.3336 42.4295 45.0969 42.361 45.9635C42.293 46.8231 42.0103 47.8047 41.6593 48.9046L41.2782 48.7829ZM33.7 41.5312V46.5H33.3V41.5312H33.7ZM33.7 46.5C33.7 50.708 28.7044 52.7684 25.7648 49.8289L26.0477 49.5461C28.7331 52.2316 33.3 50.3545 33.3 46.5H33.7ZM25.7648 49.8289L12.2648 36.3289L12.5477 36.0461L26.0477 49.5461L25.7648 49.8289ZM12.2687 36.3327C10.4042 34.5663 10.4042 31.5274 12.2687 29.7611L12.5438 30.0514C10.8458 31.6601 10.8458 34.4337 12.5438 36.0423L12.2687 36.3327ZM28.8 46.5V36.8438H29.2V46.5H28.8ZM29.0031 36.6438C32.0303 36.6907 34.8303 36.8491 37.2683 37.238C39.7046 37.6267 41.7935 38.2475 43.3898 39.228C44.992 40.2121 46.0984 41.5593 46.5568 43.3869C47.0133 45.2071 46.8213 47.4809 45.8772 50.3132L45.4978 50.1868C46.4287 47.3941 46.5999 45.2031 46.1688 43.4842C45.7395 41.7727 44.7073 40.5067 43.1805 39.5689C41.6479 38.6275 39.6177 38.0179 37.2053 37.633C34.7947 37.2485 32.0166 37.0905 28.9969 37.0437L29.0031 36.6438ZM45.5846 50.0785C48.3612 48.4125 51.3 45.3741 51.3 40.5H51.7C51.7 45.5634 48.6388 48.7125 45.7904 50.4215L45.5846 50.0785ZM51.3 40.5C51.3 37.9882 50.5582 36.0607 49.2954 34.5753C48.0294 33.0863 46.2277 32.0273 44.0863 31.2786C39.798 29.7795 34.2047 29.5438 29 29.5438V29.1437C34.2016 29.1437 39.8583 29.3768 44.2183 30.901C46.4012 31.6642 48.2733 32.7555 49.6001 34.3163C50.9301 35.8807 51.7 37.9024 51.7 40.5H51.3ZM28.8 29.3438V19.5H29.2V29.3438H28.8ZM29.1414 19.6414L15.6414 33.1414L15.3586 32.8586L28.8586 19.3586L29.1414 19.6414ZM15.6414 32.8586L29.1414 46.3586L28.8586 46.6414L15.3586 33.1414L15.6414 32.8586ZM26.7892 54.2726C27.3868 54.3921 27.7 54.9772 27.7 55.5938H27.3C27.3 55.0853 27.0507 54.7329 26.7108 54.6649L26.7892 54.2726ZM27.7 55.5938V57.9375H27.3V55.5938H27.7ZM27.7 57.9375C27.7 58.0707 27.748 58.156 27.8087 58.2099C27.873 58.2671 27.9645 58.3 28.0625 58.3V58.7C27.8793 58.7 27.6895 58.6391 27.5429 58.5089C27.3927 58.3753 27.3 58.1793 27.3 57.9375H27.7ZM28.0625 58.3H59.9375V58.7H28.0625V58.3ZM59.9375 58.3C60.0942 58.3 60.1749 58.261 60.218 58.218C60.261 58.1749 60.3 58.0942 60.3 57.9375H60.7C60.7 58.1558 60.6453 58.3563 60.5008 58.5008C60.3563 58.6453 60.1558 58.7 59.9375 58.7V58.3ZM60.3 57.9375V26.0625H60.7V57.9375H60.3ZM60.3 26.0625C60.3 25.9645 60.2671 25.873 60.2099 25.8087C60.156 25.748 60.0707 25.7 59.9375 25.7V25.3C60.1793 25.3 60.3753 25.3927 60.5089 25.5429C60.6391 25.6895 60.7 25.8793 60.7 26.0625H60.3ZM59.9375 25.7H51.875V25.3H59.9375V25.7ZM51.875 25.7C51.6925 25.7 51.4586 25.7029 51.2231 25.5851L51.4019 25.2274C51.5414 25.2971 51.6825 25.3 51.875 25.3V25.7ZM51.2117 25.579C50.0848 24.9216 48.9751 24.2749 47.6827 23.8133L47.8173 23.4367C49.1499 23.9126 50.2902 24.5784 51.4133 25.2335L51.2117 25.579ZM47.6757 23.8107C47.1426 23.5974 46.8 23.1561 46.8 22.5938H47.2C47.2 22.9689 47.4199 23.2776 47.8243 23.4393L47.6757 23.8107ZM46.8 22.5938V22.125H47.2V22.5938H46.8ZM46.8 22.125C46.8 21.7787 46.9711 21.4491 47.2101 21.2101C47.4491 20.9711 47.7787 20.8 48.125 20.8V21.2C47.9088 21.2 47.6759 21.3101 47.493 21.493C47.3101 21.6759 47.2 21.9088 47.2 22.125H46.8ZM48.125 20.8H60.5V21.2H48.125V20.8ZM60.5 20.8C63.1444 20.8 65.2 22.9548 65.2 25.5H64.8C64.8 23.1702 62.9181 21.2 60.5 21.2V20.8ZM65.2 25.5V58.5H64.8V25.5H65.2ZM65.2 58.5C65.2 61.1417 63.1417 63.2 60.5 63.2V62.8C62.9208 62.8 64.8 60.9208 64.8 58.5H65.2ZM60.5 63.2H27.5V62.8H60.5V63.2ZM27.5 63.2C24.9548 63.2 22.8 61.1444 22.8 58.5H23.2C23.2 60.9181 25.1702 62.8 27.5 62.8V63.2ZM22.8 58.5V54.5625H23.2V58.5H22.8ZM22.8 54.5625C22.8 54.0537 23.1109 53.6408 23.5153 53.4251C23.9203 53.209 24.4429 53.1777 24.8872 53.4554L24.6753 53.7946C24.3696 53.6036 24.0015 53.6191 23.7035 53.778C23.4048 53.9374 23.2 54.2275 23.2 54.5625H22.8ZM24.8922 53.4586C25.4331 53.8192 26.0676 54.092 26.7985 54.2747L26.7015 54.6628C25.9324 54.4705 25.2544 54.1808 24.6703 53.7914L24.8922 53.4586Z" fill="white"/>
</svg>
