<svg width="78" height="78" viewBox="0 0 78 78" fill="none" xmlns="http://www.w3.org/2000/svg">
<path d="M63.5679 34.4168C61.6479 34.4168 60.0879 35.6798 59.5479 37.4239H50.6679V32.372C50.6679 32.3118 50.6679 32.2517 50.6679 32.1916H55.6479C56.3079 32.1916 56.9079 31.6503 56.9079 30.9286V25.4557C58.6479 24.9144 59.9079 23.3508 59.9079 21.4262C59.9079 19.0807 58.0479 17.2163 55.7079 17.2163C53.3679 17.2163 51.5079 19.0807 51.5079 21.4262C51.5079 23.3508 52.7679 24.9144 54.5079 25.4557V29.7258H50.0079C49.1079 28.2222 47.4879 27.1998 45.6279 27.1998H40.5879V21.3661C42.3279 20.8248 43.5879 19.2611 43.5879 17.3366C43.5879 14.9911 41.7279 13.1267 39.3879 13.1267C37.0479 13.1267 35.1879 14.9911 35.1879 17.3366C35.1879 19.2611 36.4479 20.8248 38.1879 21.3661V27.1998H33.1479C31.2879 27.1998 29.6679 28.2222 28.7679 29.7258H24.2679V25.4557C26.0079 24.9144 27.2679 23.3508 27.2679 21.4262C27.2679 19.0807 25.4079 17.2163 23.0679 17.2163C20.7279 17.2163 18.8679 19.0807 18.8679 21.4262C18.8679 23.3508 20.1279 24.9144 21.8679 25.4557V30.9286C21.8679 31.5902 22.4079 32.1916 23.1279 32.1916H27.8679C27.8679 32.2517 27.8679 32.3118 27.8679 32.372V37.4239H18.9879C18.4479 35.6798 16.8879 34.4168 14.9679 34.4168C12.6279 34.4168 10.7679 36.2812 10.7679 38.6267C10.7679 40.9722 12.6279 42.8366 14.9679 42.8366C16.8879 42.8366 18.4479 41.5736 18.9879 39.8295H27.8679V44.8814C27.8679 44.9416 27.8679 45.0017 27.8679 45.0619H22.8879C22.2279 45.0619 21.6279 45.6031 21.6279 46.3248V51.8578C19.8879 52.3991 18.6279 53.9628 18.6279 55.8873C18.6279 58.2328 20.4879 60.0972 22.8279 60.0972C25.1679 60.0972 27.0279 58.2328 27.0279 55.8873C27.0279 53.9628 25.7679 52.3991 24.0279 51.8578V47.5277H28.5279C29.4279 49.0312 31.0479 50.0536 32.9079 50.0536H38.0679V55.8873C36.3279 56.4286 35.0679 57.9923 35.0679 59.9168C35.0679 62.2623 36.9279 64.1267 39.2679 64.1267C41.6079 64.1267 43.4679 62.2623 43.4679 59.9168C43.4679 57.9923 42.2079 56.4286 40.4679 55.8873V50.0536H45.5079C47.3679 50.0536 48.9879 49.0312 49.8879 47.5277H54.3879V51.8578C52.6479 52.3991 51.3879 53.9628 51.3879 55.8873C51.3879 58.2328 53.2479 60.0972 55.5879 60.0972C57.9279 60.0972 59.7879 58.2328 59.7879 55.8873C59.7879 53.9628 58.5279 52.3991 56.7879 51.8578V46.3248C56.7879 45.6633 56.2479 45.0619 55.5279 45.0619H50.6679C50.6679 45.0017 50.6679 44.9416 50.6679 44.8814V39.8295H59.5479C60.0879 41.5736 61.6479 42.8366 63.5679 42.8366C65.9079 42.8366 67.7679 40.9722 67.7679 38.6267C67.7679 36.2812 65.9079 34.4168 63.5679 34.4168ZM53.9079 21.4262C53.9079 20.464 54.6879 19.6821 55.6479 19.6821C56.6079 19.6821 57.3879 20.464 57.3879 21.4262C57.3879 22.3885 56.6079 23.1703 55.6479 23.1703C54.6879 23.1703 53.9079 22.3885 53.9079 21.4262ZM21.1479 21.4262C21.1479 20.464 21.9279 19.6821 22.8879 19.6821C23.8479 19.6821 24.6279 20.464 24.6279 21.4262C24.6279 22.3885 23.8479 23.1703 22.8879 23.1703C21.9279 23.1703 21.1479 22.3885 21.1479 21.4262ZM14.9679 40.3708C14.0079 40.3708 13.2279 39.589 13.2279 38.6267C13.2279 37.6644 14.0079 36.8826 14.9679 36.8826C15.9279 36.8826 16.7079 37.6644 16.7079 38.6267C16.7079 39.589 15.9279 40.3708 14.9679 40.3708ZM24.6279 55.8873C24.6279 56.8496 23.8479 57.6314 22.8879 57.6314C21.9279 57.6314 21.1479 56.8496 21.1479 55.8873C21.1479 54.9251 21.9279 54.1432 22.8879 54.1432C23.8479 54.1432 24.6279 54.9251 24.6279 55.8873ZM37.5279 17.3366C37.5279 16.3744 38.3079 15.5925 39.2679 15.5925C40.2279 15.5925 41.0079 16.3744 41.0079 17.3366C41.0079 18.2989 40.2279 19.0807 39.2679 19.0807C38.3079 19.0807 37.5279 18.2989 37.5279 17.3366ZM41.0079 59.9168C41.0079 60.8791 40.2279 61.6609 39.2679 61.6609C38.3079 61.6609 37.5279 60.8791 37.5279 59.9168C37.5279 58.9545 38.3079 58.1727 39.2679 58.1727C40.2279 58.1727 41.0079 58.9545 41.0079 59.9168ZM44.6079 36.7022L39.0879 42.5359C38.7879 42.8366 38.4279 43.017 38.0079 43.017C37.5879 43.017 37.2279 42.8366 36.9279 42.5359L33.9279 39.3484C33.3879 38.747 33.3879 37.8449 33.9879 37.2435C34.5879 36.7022 35.4879 36.7022 36.0879 37.3036L38.0079 39.3484L42.4479 34.6574C42.9879 34.056 43.9479 34.056 44.5479 34.5972C45.1479 35.1986 45.1479 36.1609 44.6079 36.7022ZM57.3879 55.8873C57.3879 56.8496 56.6079 57.6314 55.6479 57.6314C54.6879 57.6314 53.9079 56.8496 53.9079 55.8873C53.9079 54.9251 54.6879 54.1432 55.6479 54.1432C56.6079 54.1432 57.3879 54.9251 57.3879 55.8873ZM63.5679 40.3708C62.6079 40.3708 61.8279 39.589 61.8279 38.6267C61.8279 37.6644 62.6079 36.8826 63.5679 36.8826C64.5279 36.8826 65.3079 37.6644 65.3079 38.6267C65.3079 39.589 64.5279 40.3708 63.5679 40.3708Z" fill="#EE333A"/>
</svg>
