<svg width="78" height="78" viewBox="0 0 78 78" fill="none" xmlns="http://www.w3.org/2000/svg">
<path d="M22.2299 55.395H55.6283C59.847 55.395 62.0345 53.2075 62.0345 49.0474V27.9341C62.0345 23.7544 59.847 21.5864 55.6283 21.5864H22.2299C18.0111 21.5864 15.8236 23.7544 15.8236 27.9341V49.0474C15.8236 53.2271 18.0111 55.395 22.2299 55.395ZM19.6517 28.2661C19.6517 26.3716 20.6478 25.4146 22.4642 25.4146H55.3939C57.1908 25.4146 58.2064 26.3716 58.2064 28.2661V29.6919H19.6517V28.2661ZM22.4642 51.5669C20.6478 51.5669 19.6517 50.6099 19.6517 48.7153V34.2427H58.2064V48.7153C58.2064 50.6099 57.1908 51.5669 55.3939 51.5669H22.4642ZM25.1205 48.0122H29.9056C31.0385 48.0122 31.8197 47.2505 31.8197 46.1372V42.5239C31.8197 41.4302 31.0385 40.6489 29.9056 40.6489H25.1205C23.9681 40.6489 23.1869 41.4302 23.1869 42.5239V46.1372C23.1869 47.2505 23.9681 48.0122 25.1205 48.0122Z" fill="#EE333A"/>
</svg>
