<svg width="78" height="78" viewBox="0 0 78 78" fill="none" xmlns="http://www.w3.org/2000/svg">
<path d="M64.6979 40.4219H54.9076L61.8741 32.8865C64.5554 30.586 66.2175 27.1358 66.1018 23.3008C65.912 17.008 60.8407 11.8478 54.5513 11.5566C54.3581 11.5474 54.166 11.5435 53.9745 11.5435C47.2719 11.5435 41.8415 16.9767 41.8415 23.6765C41.8415 27.3604 43.4842 30.6613 46.0749 32.8871L53.0414 40.4225H47.7666L47.668 40.4721C43.8165 40.7263 40.7602 43.9411 40.7602 47.8559C40.7602 51.9359 44.0799 55.2556 48.1599 55.2556H50.8372L50.8098 55.1735H52.749C54.6995 55.1735 56.2864 56.7604 56.2864 58.711C56.2864 60.6609 54.6995 62.2478 52.749 62.2478H25.6996L32.1321 55.2898C34.8134 52.9893 36.4755 49.5391 36.3598 45.7041C36.17 39.4113 31.0987 34.2511 24.8093 33.9599C24.6161 33.9507 24.424 33.9467 24.2325 33.9467C17.5304 33.9467 12.0994 39.38 12.0994 46.0798C12.0994 49.7637 13.7422 53.0645 16.3328 55.2904L22.7653 62.2484H13.8402C12.7737 62.2472 11.9091 63.1119 11.9091 64.1784C11.9091 65.2449 12.7737 66.1096 13.8402 66.1096H52.7496C56.8296 66.1096 60.1493 62.7905 60.1493 58.7098C60.1493 54.6292 56.8302 51.3101 52.7496 51.3101H47.3995C45.8132 50.9618 44.6225 49.5448 44.6225 47.8553C44.6225 45.9048 46.2094 44.3179 48.1599 44.3179H48.6199L48.6866 44.2843H64.6979C65.7644 44.2843 66.6291 43.4196 66.6291 42.3531C66.6291 41.2866 65.7644 40.4219 64.6979 40.4219ZM19.1691 52.6672L19.0187 52.5042L18.8499 52.3594C17.0145 50.7828 15.9623 48.4937 15.9623 46.0792C15.9623 41.5192 19.6725 37.8091 24.233 37.8091C24.3647 37.8091 24.4986 37.8119 24.6315 37.8182C28.9144 38.0165 32.3703 41.5317 32.4997 45.8204C32.5755 48.3387 31.525 50.7218 29.6172 52.3589L29.448 52.5042L29.2963 52.6678L24.233 58.1444L19.1691 52.6672ZM48.9112 30.2645L48.7601 30.1015L48.5914 29.9567C46.756 28.3801 45.7038 26.091 45.7038 23.6765C45.7038 19.1165 49.4139 15.4063 53.9745 15.4063C54.1062 15.4063 54.2401 15.4092 54.3723 15.4155C58.6553 15.6138 62.1112 19.129 62.2406 23.4177C62.3164 25.936 61.2659 28.3186 59.3581 29.9556L59.1888 30.101L59.0372 30.2645L53.9739 35.7411L48.9112 30.2645Z" fill="#EE333A"/>
<path d="M53.9743 26.2754C55.576 26.2754 56.8744 24.977 56.8744 23.3753C56.8744 21.7735 55.576 20.4751 53.9743 20.4751C52.3725 20.4751 51.0741 21.7735 51.0741 23.3753C51.0741 24.977 52.3725 26.2754 53.9743 26.2754Z" fill="#EE333A"/>
<path d="M24.2306 48.6787C25.8323 48.6787 27.1308 47.3803 27.1308 45.7786C27.1308 44.1769 25.8323 42.8784 24.2306 42.8784C22.6289 42.8784 21.3304 44.1769 21.3304 45.7786C21.3304 47.3803 22.6289 48.6787 24.2306 48.6787Z" fill="#EE333A"/>
</svg>
