<svg width="142" height="90" viewBox="0 0 142 90" fill="none" xmlns="http://www.w3.org/2000/svg">
<rect width="140.535" height="90" transform="translate(0.750122)" fill="white"/>
<path fill-rule="evenodd" clip-rule="evenodd" d="M57.4711 70.7286H58.4758L59.6589 73.8863C59.7357 74.0947 59.8002 74.2772 59.8544 74.4336C59.9072 74.5899 59.9524 74.7367 59.9929 74.8745C60.0924 74.5433 60.1959 74.2209 60.3057 73.9041C60.3187 73.8636 60.329 73.8376 60.3345 73.8232L61.5902 70.4817L62.916 73.8869C63.0409 74.2143 63.1521 74.5468 63.2493 74.8835C63.2781 74.7552 63.3165 74.6139 63.3645 74.461C63.4125 74.306 63.4749 74.1242 63.5524 73.9137L64.728 70.73H65.7403L63.3179 77.229L61.8913 73.662C61.7762 73.3744 61.6737 73.082 61.5841 72.7855C61.534 72.9528 61.486 73.1112 61.438 73.2573C61.39 73.4034 61.3399 73.5454 61.2878 73.6778L59.8873 77.229L57.4711 70.7286ZM66.4494 76.9835V70.7286H67.4659V76.9835H66.4494ZM68.9267 76.9835V70.481L72.9005 74.3046C73.1421 74.5446 73.369 74.7988 73.5801 75.0659V70.7286H74.5204V77.2277L70.4664 73.3348C70.2443 73.1208 70.0424 72.8866 69.8636 72.6353V76.9842H68.9267V76.9835ZM76.9716 76.0645H77.8276C78.2967 76.0645 78.6499 76.0343 78.8845 75.9712C79.119 75.9088 79.3241 75.8018 79.4983 75.655C79.7356 75.452 79.9112 75.2017 80.0298 74.9006C80.1478 74.6002 80.2081 74.2504 80.2081 73.8506C80.2081 73.4528 80.1478 73.1023 80.0298 72.8026C79.9178 72.511 79.7352 72.2518 79.4983 72.0482C79.3136 71.8962 79.097 71.7879 78.8646 71.7313C78.6183 71.6682 78.2308 71.6381 77.7069 71.6381H76.9716V76.0645ZM75.9559 76.9835V70.7286H77.3262C78.2199 70.7286 78.8467 70.7732 79.2095 70.8624C79.5724 70.9529 79.8899 71.1031 80.1649 71.313C80.5264 71.5901 80.8014 71.9446 80.9872 72.3781C81.1731 72.8115 81.2671 73.306 81.2671 73.8595C81.2671 74.4157 81.1731 74.9082 80.9872 75.3368C80.8014 75.7655 80.5264 76.1187 80.1649 76.3985C79.8906 76.609 79.5792 76.7586 79.2315 76.8491C78.8817 76.9382 78.3392 76.9828 77.6012 76.9828H75.9559V76.9835ZM87.7867 73.8684C87.7867 73.5529 87.7277 73.2532 87.6125 72.9672C87.4984 72.6838 87.3294 72.4258 87.1152 72.208C86.9083 71.9911 86.659 71.8191 86.3828 71.7025C86.1043 71.5839 85.8135 71.5242 85.5056 71.5242C85.1976 71.5242 84.9041 71.5825 84.627 71.6991C84.3513 71.8157 84.103 71.9851 83.8863 72.208C83.6721 72.4242 83.5035 72.6812 83.3904 72.9638C83.2763 73.2519 83.2185 73.5592 83.2203 73.8691C83.2171 74.1751 83.2743 74.4787 83.3886 74.7626C83.5029 75.0464 83.672 75.3049 83.8863 75.5234C84.0956 75.7414 84.3471 75.9146 84.6255 76.0323C84.9039 76.1499 85.2033 76.2097 85.5056 76.2078C85.8108 76.2078 86.1002 76.1488 86.3752 76.0323C86.6502 75.9157 86.8978 75.7469 87.1159 75.5234C87.3327 75.3025 87.4979 75.0494 87.6132 74.7655C87.7277 74.4809 87.7867 74.1819 87.7867 73.8684ZM88.8463 73.8684C88.8463 74.3128 88.7633 74.7333 88.5974 75.1283C88.4285 75.5274 88.1807 75.8883 87.869 76.1893C87.546 76.5 87.1831 76.738 86.7799 76.9026C86.3752 77.0672 85.9507 77.1502 85.5063 77.1502C85.0645 77.1518 84.6267 77.067 84.2176 76.9005C83.8138 76.7365 83.4461 76.4949 83.1353 76.1893C82.8233 75.8908 82.5761 75.5313 82.409 75.1331C82.2413 74.7327 82.1567 74.3025 82.16 73.8684C82.16 73.4213 82.243 72.9988 82.409 72.6037C82.5758 72.2028 82.823 71.8403 83.1353 71.5386C83.4467 71.2332 83.8155 70.9924 84.2203 70.8301C84.6293 70.6672 85.066 70.5847 85.5063 70.5874C85.9562 70.5874 86.3821 70.6683 86.7854 70.8301C87.1896 70.993 87.5578 71.2341 87.8687 71.5395C88.1796 71.8449 88.4273 72.2086 88.5974 72.6099C88.7633 73.0077 88.8463 73.4267 88.8463 73.8684ZM89.2681 70.7286H90.2729L91.456 73.8863C91.5793 74.2116 91.6909 74.5412 91.7906 74.8745C91.8961 74.5216 92.0095 74.171 92.1308 73.8232L93.3873 70.4817L94.7137 73.8869C94.8372 74.2148 94.9481 74.5472 95.0463 74.8835C95.0745 74.7552 95.1135 74.6139 95.1616 74.461C95.2096 74.306 95.2727 74.1242 95.3488 73.9137L96.525 70.73H97.5366L95.1149 77.229L93.6884 73.662C93.5747 73.3738 93.472 73.0814 93.3804 72.7855C93.331 72.9528 93.2823 73.1112 93.2343 73.2573C93.1877 73.4034 93.1363 73.5454 93.0841 73.6778L91.6843 77.229L89.2681 70.7286ZM100.87 76.9835V70.7286H104.362V71.5921H101.887V73.151H104.362V74.044H101.887V76.9835H100.87ZM105.481 76.9835V70.7286H106.497V76.9835H105.481ZM107.959 76.9835V70.7286H108.975V76.0741H111.248V76.9835H107.959ZM117.175 73.8945C117.15 73.7614 117.132 73.6273 117.119 73.4926C117.1 73.3415 117.081 73.1906 117.06 73.0399C117.003 73.3393 116.907 73.6297 116.773 73.9034L115.137 77.2359L113.5 73.8348C113.373 73.58 113.27 73.3138 113.192 73.0399C113.184 73.3309 113.145 73.6203 113.077 73.9034L112.406 76.9835H111.47L112.948 70.4625L114.794 74.4116C114.823 74.474 114.866 74.5776 114.925 74.723C114.982 74.8691 115.054 75.0481 115.137 75.2614C115.218 75.0284 115.311 74.8001 115.418 74.5776C115.452 74.5042 115.478 74.448 115.495 74.4068L117.297 70.4625L118.809 76.9835H117.866L117.175 73.8945ZM119.265 75.7312L120.075 75.356C120.153 75.6345 120.295 75.8478 120.499 75.9938C120.705 76.1413 120.968 76.214 121.285 76.214C121.586 76.214 121.827 76.1296 122.005 75.9616C122.184 75.7943 122.272 75.5693 122.272 75.2881C122.272 74.9205 121.967 74.5927 121.357 74.3046C121.293 74.272 121.228 74.2406 121.162 74.2107C120.473 73.8746 120.014 73.5708 119.783 73.2985C119.556 73.0269 119.44 72.6929 119.44 72.3006C119.44 71.7903 119.613 71.3774 119.959 71.0606C120.305 70.7444 120.759 70.5874 121.32 70.5874C121.78 70.5874 122.167 70.6758 122.478 70.8541C122.787 71.0325 123.003 71.289 123.122 71.6216L122.326 72.0317C122.202 71.8349 122.064 71.6916 121.914 71.601C121.758 71.5076 121.58 71.4601 121.399 71.4639C121.126 71.4639 120.909 71.5352 120.748 71.6772C120.588 71.8205 120.507 72.0112 120.507 72.2505C120.507 72.627 120.859 72.9768 121.566 73.3005C121.62 73.3266 121.663 73.3472 121.694 73.3602C122.313 73.6462 122.737 73.9247 122.969 74.1963C123.2 74.4685 123.315 74.8094 123.315 75.2154C123.315 75.8073 123.127 76.2785 122.754 76.6276C122.381 76.976 121.878 77.1516 121.241 77.1516C120.71 77.1516 120.273 77.0288 119.933 76.7839C119.593 76.5391 119.369 76.1873 119.265 75.7312ZM127.777 27.574V28.633H128.253C128.524 28.633 128.723 28.5911 128.849 28.5095C128.974 28.4265 129.035 28.2962 129.035 28.1179C129.035 27.9314 128.97 27.7942 128.839 27.7057C128.71 27.6186 128.503 27.574 128.222 27.574H127.777ZM127.057 27.12H128.352C128.82 27.12 129.176 27.1975 129.416 27.3511C129.657 27.5048 129.777 27.7318 129.777 28.0322C129.777 28.2784 129.712 28.4821 129.582 28.6426C129.453 28.8031 129.269 28.9101 129.027 28.9608L129.777 30.4868H128.971L128.302 29.0788H127.777V30.4868H127.056V27.12H127.057ZM128.284 26.3087C127.935 26.3087 127.612 26.3697 127.312 26.4931C127.013 26.6159 126.743 26.7977 126.503 27.037C126.26 27.2814 126.066 27.5698 125.931 27.8868C125.798 28.1945 125.73 28.5262 125.73 28.8614C125.73 29.1988 125.795 29.5198 125.92 29.827C126.048 30.1329 126.231 30.4066 126.471 30.6507C126.714 30.8956 126.988 31.0835 127.296 31.2165C127.603 31.3482 127.919 31.4148 128.242 31.4148C128.583 31.4187 128.923 31.3546 129.239 31.2261C129.556 31.0976 129.844 30.9074 130.086 30.6665C130.327 30.4361 130.511 30.1665 130.642 29.8641C130.771 29.5609 130.835 29.2393 130.835 28.9032C130.835 28.5452 130.775 28.2098 130.651 27.9012C130.527 27.591 130.342 27.3089 130.107 27.0713C129.867 26.8295 129.581 26.6367 129.267 26.5034C128.956 26.3731 128.621 26.3069 128.284 26.3087ZM128.28 25.8594C128.694 25.8594 129.083 25.9356 129.449 26.0864C129.818 26.2399 130.152 26.468 130.43 26.7565C130.708 27.0377 130.92 27.3573 131.067 27.7153C131.212 28.0733 131.286 28.454 131.286 28.8579C131.286 29.2722 131.211 29.6597 131.061 30.0218C130.911 30.384 130.688 30.7116 130.406 30.984C130.113 31.268 129.784 31.4847 129.419 31.637C129.057 31.7884 128.668 31.8658 128.275 31.8646C127.883 31.8634 127.495 31.7837 127.133 31.6301C126.765 31.4733 126.432 31.245 126.153 30.9587C125.875 30.6816 125.655 30.3525 125.505 29.9903C125.356 29.6313 125.28 29.2464 125.281 28.8579C125.281 28.4601 125.359 28.0768 125.516 27.7057C125.672 27.3336 125.9 26.996 126.187 26.7119C126.457 26.4369 126.781 26.2199 127.138 26.0741C127.501 25.9289 127.889 25.856 128.28 25.8594Z" fill="#D8D8D8"/>
<path fill-rule="evenodd" clip-rule="evenodd" d="M92.3963 51.3019H102.983V55.5308H96.3097C95.7123 55.5308 95.202 55.8703 95.202 56.6809V66.3198H90.9718V52.7305C90.9719 52.3523 91.1219 51.9897 91.3889 51.7219C91.6559 51.4542 92.0181 51.3031 92.3963 51.3019ZM59.5005 32.4035H75.5739C76.4243 32.4035 77.1198 33.1071 77.1198 33.9679V45.2952C77.1198 46.1553 76.4243 46.859 75.5739 46.859H59.5005C58.65 46.859 57.9553 46.1553 57.9553 45.2952V33.9679C57.9553 33.1071 58.6507 32.4035 59.5005 32.4035ZM38.286 28.5634H53.2888C53.6523 28.5634 53.95 28.8645 53.95 29.2328V31.5578C53.9505 31.7341 53.8813 31.9034 53.7574 32.0289C53.6335 32.1543 53.4651 32.2256 53.2888 32.2272H39.1543C38.6769 32.2272 38.286 32.6229 38.286 33.1065V34.7168C38.286 35.2003 38.6769 35.5961 39.1543 35.5961H50.5619C53.391 35.5961 55.7064 37.738 55.7064 40.3558V42.1184C55.7064 44.7363 53.3917 46.8782 50.5619 46.8782H34.555C34.3778 46.8755 34.2088 46.8028 34.0849 46.676C33.9611 46.5492 33.8924 46.3785 33.8939 46.2012V43.1726C33.8927 42.9955 33.9616 42.8251 34.0854 42.6985C34.2092 42.5719 34.3779 42.4992 34.555 42.4963H49.6936C50.171 42.4963 50.5619 42.0965 50.5619 41.6082V39.9793C50.5619 39.491 50.171 39.0911 49.6936 39.0911C45.8543 39.0911 42.124 39.0527 38.286 39.0527C35.4562 39.0527 33.1415 36.9341 33.1415 34.3451V33.2724C33.1415 30.682 35.4562 28.5634 38.286 28.5634ZM105.845 32.4035H89.5843C89.4411 32.4051 89.3043 32.4632 89.2037 32.5652C89.1031 32.6672 89.0469 32.8048 89.0473 32.948V35.4081C89.0473 35.7079 89.2901 35.9527 89.5843 35.9527H102.143C103.115 35.9527 103.547 36.537 103.52 37.1207C103.493 37.705 103.007 38.2894 102.143 38.2894H91.0006C89.3861 38.2894 88.0658 39.6261 88.0658 41.2591V43.89C88.0658 45.523 89.3868 46.8597 91.0006 46.8597H106.526C107.743 46.8597 107.743 46.2033 107.743 45.0504V34.2456C107.743 33.4789 107.422 32.4035 105.845 32.4035ZM93.259 40.8428H102.567C103.079 40.8428 103.498 41.2659 103.498 41.7844V43.2213C103.499 43.4693 103.401 43.7075 103.227 43.8839C103.052 44.0603 102.815 44.1606 102.567 44.1629H93.259C93.0112 44.1606 92.7743 44.0602 92.6002 43.8838C92.426 43.7073 92.3288 43.4692 92.3297 43.2213V41.7844C92.3284 41.5364 92.4255 41.298 92.5998 41.1215C92.774 40.945 93.011 40.8448 93.259 40.8428ZM112.638 31.6826H123.223V35.9561H116.55C115.954 35.9561 115.442 36.2991 115.442 37.1179V46.859H111.213V33.125C111.212 32.3315 111.853 31.6826 112.638 31.6826ZM81.3158 26.6458H85.6736V46.859H81.3158V26.6458ZM62.4126 35.9561H72.7119C73.1446 35.9561 73.4979 36.3155 73.4979 36.7517V42.5107C73.4979 42.7201 73.4154 42.921 73.2682 43.0699C73.1211 43.2188 72.9212 43.3038 72.7119 43.3063H62.4126C62.2031 43.3041 62.003 43.2193 61.8558 43.0703C61.7086 42.9213 61.6262 42.7202 61.6266 42.5107V36.7517C61.6266 36.3135 61.9805 35.9561 62.4126 35.9561ZM44.4174 50.1839H63.9502C64.0954 50.185 64.2342 50.2436 64.3363 50.3468C64.4383 50.45 64.4953 50.5895 64.4948 50.7347V53.0508C64.4952 53.1958 64.4381 53.3351 64.336 53.4382C64.234 53.5412 64.0953 53.5997 63.9502 53.6008H47.8295C47.594 53.603 47.3689 53.6982 47.2034 53.8658C47.0379 54.0334 46.9454 54.2596 46.9461 54.4951V62.0202C46.9461 62.512 47.3432 62.9139 47.8295 62.9139H59.746C60.4806 62.9139 61.0814 62.3062 61.0814 61.5628V60.9112C61.0814 60.1678 60.4806 59.5594 59.746 59.5594H55.7914C55.6064 59.558 55.4294 59.4832 55.2994 59.3516C55.1693 59.22 55.0966 59.0422 55.0974 58.8571V56.8085C55.0968 56.6235 55.1695 56.4459 55.2996 56.3144C55.4297 56.1829 55.6065 56.1083 55.7914 56.1069H62.4818C64.0607 56.1069 65.3521 57.4134 65.3521 59.0107V64.2225C65.3521 65.8198 64.0607 67.127 62.4818 67.127H44.4174C43.3633 67.127 42.5012 66.2546 42.5012 65.1874V52.1249C42.5012 51.0563 43.3633 50.1839 44.4174 50.1839ZM106.906 51.3019H117.75C119.988 51.3019 119.988 49.9453 119.988 48.3424V38.5027H124.203V65.5742C124.203 66.0859 124.203 66.3239 123.527 66.3239H106.906C105.564 66.3239 104.465 65.2128 104.465 63.8542V53.7716C104.465 52.4136 105.564 51.3019 106.906 51.3019ZM110.134 54.5342H118.943C119.615 54.5342 120.166 55.0911 120.166 55.7722V61.6745C120.166 62.3549 119.615 62.9125 118.943 62.9125H110.134C109.462 62.9125 108.911 62.3556 108.911 61.6745V55.7722C108.911 55.0911 109.462 54.5342 110.134 54.5342ZM85.7532 51.2977H69.4925C69.1976 51.2977 68.9548 51.5522 68.9548 51.8629V54.144C68.9548 54.4547 69.1969 54.7091 69.4925 54.7091H82.051C82.9687 54.7091 83.4295 55.3847 83.4295 56.0609C83.4295 56.7372 82.97 57.4134 82.0496 57.4134H70.9081C69.2936 57.4134 67.9734 58.8022 67.9734 60.4997V63.2335C67.9734 64.9309 69.2936 66.3198 70.9081 66.3198H86.4322C87.6495 66.3198 87.6495 65.638 87.6495 64.4399V53.2119C87.6502 52.4143 87.3286 51.2977 85.7532 51.2977ZM73.1673 60.0676H82.4755C82.9872 60.0676 83.4049 60.5086 83.4049 61.0463V62.5394C83.4049 63.0778 82.9872 63.5174 82.4755 63.5174H73.1673C72.6556 63.5174 72.2366 63.0778 72.2366 62.5394V61.0463C72.2359 60.5079 72.6556 60.0676 73.1673 60.0676ZM20.4328 65.3095C18.1377 63.1686 16.1852 60.6878 14.6436 57.9538H40.0911V65.1895L40.0918 65.3095H20.4328ZM13.1217 54.8593C12.4953 53.3734 11.9893 51.8395 11.6088 50.2724H40.4546C40.2148 50.819 40.091 51.4094 40.0911 52.0062V54.8586H13.1217V54.8593Z" fill="#D8D8D8"/>
<path fill-rule="evenodd" clip-rule="evenodd" d="M46.9976 13.2983C56.4986 15.17 64.4338 21.4935 68.5255 29.9938H59.4971C58.6954 29.9952 57.9135 30.2427 57.2571 30.703C56.8223 26.1442 55.1249 22.3885 52.7525 19.2028C51.088 16.969 49.1025 15.0301 46.9976 13.2983ZM53.8238 26.2025C53.6479 26.1712 53.4696 26.1551 53.2909 26.1545H42.386V12.8093C45.4812 15.0116 48.5195 17.5396 50.8226 20.6327C52.0646 22.3014 53.0996 24.1436 53.8238 26.2025ZM39.6049 26.1538H38.2819C37.2562 26.1529 36.2401 26.3516 35.2903 26.7388H27.401C30.6457 20.2795 35.4878 15.6302 39.4204 12.775L39.6049 12.7641V26.1538ZM24.7269 26.7388H15.5572C19.8746 20.0223 26.7639 15.1028 34.8143 13.3889C31.1951 16.587 27.3681 21.0319 24.7269 26.7388ZM32.3912 28.8238C31.3535 30.0411 30.7322 31.5857 30.7315 33.2694V34.3475C30.7329 36.3495 31.61 38.154 33.0236 39.4475C33.3027 39.7033 33.6052 39.9399 33.9241 40.1532C33.3355 40.2801 32.7973 40.5775 32.3768 41.0084C31.8088 41.5847 31.4888 42.3604 31.4852 43.1695V46.214C31.4866 46.4787 31.5229 46.7345 31.5874 46.9801H10.9977C10.833 45.6959 10.7503 44.4025 10.7501 43.1078C10.7454 38.1236 11.9762 33.2159 14.3323 28.8238H23.8388C22.9852 31.0131 22.3484 33.2808 21.9376 35.5944C21.5549 37.7593 21.3648 39.9539 21.3697 42.1524L21.3704 42.3829L23.7805 42.3733L23.7798 42.1524C23.7747 40.0929 23.9521 38.0369 24.3099 36.0086C24.7487 33.5419 25.4625 31.1322 26.4381 28.8244H32.3912V28.8238ZM40.3696 66.7097C40.5855 67.2828 40.9194 67.8041 41.3497 68.2398C41.7494 68.6481 42.2262 68.9729 42.7525 69.1953C43.2788 69.4177 43.8441 69.5333 44.4154 69.5354H56.0837C51.5277 72.1301 46.374 73.4924 41.1309 73.4879C33.9097 73.4879 27.2652 70.9448 22.0419 66.7097H40.3696Z" fill="#D8D8D8"/>
</svg>
