<svg width="137" height="90" viewBox="0 0 137 90" fill="none" xmlns="http://www.w3.org/2000/svg">
<rect width="136.098" height="90" transform="translate(0.285645)" fill="white"/>
<path fill-rule="evenodd" clip-rule="evenodd" d="M39.6878 12.8572C21.6851 12.8572 16.9652 27.4988 16.9652 27.4988C16.9569 27.555 21.2284 23.2858 31.1167 23.2751C36.4917 23.2694 43.4948 26.9192 50.0167 30.2716H48.1004C48.1004 30.2716 44.2114 30.5958 43.0103 31.7967C42.8312 31.9758 41.945 32.7814 41.406 34.4655C38.3321 44.0703 30.9979 74.0432 30.9979 74.0432C30.9979 74.0432 30.2241 75.6982 29.557 76.3653C28.8899 77.0326 28.7053 77.1428 28.7053 77.1428H40.7029C40.7029 77.1428 44.1403 76.9042 45.1592 75.885C46.1784 74.8661 46.4021 74.3749 46.4021 74.3749L57.2756 33.812C59.9067 34.948 62.2708 35.7087 64.1782 35.7281C71.9524 35.8078 80.2606 27.0482 80.2606 27.0482C80.2606 27.0482 77.3917 28.1772 75.0517 28.1772C63.9557 28.1772 57.6905 12.8572 39.6878 12.8572ZM41.8268 30.2667C41.8251 30.2671 41.8194 30.2711 41.8169 30.2718H41.8318C41.8385 30.2691 41.8355 30.2651 41.8268 30.2667ZM41.8169 30.2718H29.6858C29.6858 30.2718 25.7916 30.5958 24.5907 31.7967C24.4114 31.9758 23.5254 32.7814 22.9863 34.4655C19.9123 44.0703 12.5832 74.0432 12.5832 74.0432C12.5832 74.0432 11.8045 75.6982 11.1374 76.3653C10.4701 77.0326 10.2856 77.1428 10.2856 77.1428H22.2881C22.2881 77.1428 25.7205 76.9042 26.7396 75.885C27.7586 74.8661 27.9873 74.3749 27.9873 74.3749L38.9946 33.2921C38.9946 33.2921 39.3233 32.4385 40.3909 31.3709C41.2974 30.4645 41.7361 30.2916 41.8169 30.2716V30.2718Z" fill="#AB0534"/>
<path fill-rule="evenodd" clip-rule="evenodd" d="M59.2435 41.8402C59.6202 42.1947 60.0321 42.5046 60.2045 43.1146V53.3892C60.0877 54.0035 59.7875 54.4449 59.2435 54.6569H63.2199C62.6871 54.2658 62.285 53.8553 62.2526 53.389V43.268C62.4252 42.3911 62.8568 42.2212 63.21 41.8368L59.2435 41.8402ZM64.4732 54.6641C64.7561 54.4293 64.9647 54.1108 65.1054 53.7159V46.7473C64.9273 46.4015 64.8154 45.9991 64.4743 45.7933C65.3172 45.7933 66.1401 45.8662 67.0018 45.4742V46.578C67.681 45.6368 68.624 45.3231 69.7947 45.3231C70.9656 45.3231 72.9556 46.051 72.9556 47.0593C73.5502 46.0933 74.4146 45.3137 76.2013 45.3137C77.9878 45.3137 79.8195 46.3543 79.8195 48.4787V54.0162C80.0526 54.2259 80.2756 54.4382 80.4733 54.6569H77.1508L77.7913 54.0162V48.6454C77.3619 47.2837 76.4966 47.012 75.5762 46.8775C73.9873 46.9977 73.5655 47.986 73.3478 49.1259V53.5603C73.4468 54.2088 73.7827 54.4628 74.1444 54.6736H70.8043C71.0907 54.4707 71.3225 54.2217 71.4459 53.8811V48.6444C71.1551 47.3078 70.2678 46.9754 69.2285 46.8988C67.827 46.91 67.2305 47.6077 67.0207 48.635V53.7161C67.1163 54.1152 67.2493 54.4882 67.6434 54.6768L64.4732 54.6641ZM80.617 45.7854C81.5242 45.7854 82.3724 45.8659 83.3345 45.4835V46.5875C84.8353 45.6494 84.3922 45.6585 86.5802 45.3326C88.7682 45.0068 91.4646 46.1498 91.4151 50.12C91.3656 54.0902 88.2173 54.9904 86.5447 54.9904C84.1524 54.9904 83.9832 53.7276 83.6357 53.0956C84.3187 53.3334 85.093 53.4618 86.0776 53.4159C88.6399 53.296 89.3602 51.2574 89.3602 50.2134C89.3602 47.506 86.7909 47.0643 86.1309 47.0643C84.2381 47.0643 83.1834 48.6369 83.3555 49.2793V57.6925C83.4695 58.1374 83.7135 58.5119 84.1294 58.7933H80.6454C81.0633 58.56 81.2386 58.1109 81.438 57.6834V46.9082C81.3147 46.0953 80.9432 46.0059 80.617 45.7854ZM100.898 54.5604C99.9503 54.9203 99.1056 54.995 97.9875 54.9805C94.1634 54.9314 92.1271 53.2804 92.2036 50.1497C92.2632 47.7155 93.6239 45.4321 97.3554 45.4321C100.499 45.4321 101.985 47.1145 102.016 50.0741H94.4116C94.4116 52.6481 96.3774 53.3954 98.4593 53.3954C99.7804 53.3954 101.017 53.0627 102.186 52.6029L100.898 54.5604ZM97.2798 47.0172C95.8402 47.0172 94.9744 47.555 94.5815 48.659H99.6577C99.3451 47.719 98.7195 47.0172 97.2798 47.0172ZM102.982 54.0503V46.4175L102.346 45.7919C103.2 45.7919 104.526 45.7775 104.876 45.4834V46.6043C105.526 45.9508 106.35 45.3633 107.425 45.3633C107.697 45.3633 107.734 45.3727 108.212 45.4835V47.3782C107.805 47.2548 107.321 47.0982 107.025 47.0982C106.119 47.0982 105.036 48.3056 105.036 48.953V53.89C105.223 54.1826 105.529 54.4234 105.837 54.6639H102.368L102.982 54.0503ZM110.115 54.0431V46.4239L109.474 45.7966C110.373 45.7966 111.701 45.8136 112.17 45.4897V53.8829C112.275 54.2247 112.53 54.4521 112.797 54.6703H109.474L110.115 54.0431ZM112.327 43.4168C112.327 43.753 112.193 44.0753 111.956 44.3131C111.718 44.5508 111.396 44.6844 111.059 44.6844C110.723 44.6843 110.401 44.5507 110.163 44.313C109.926 44.0753 109.792 43.7529 109.792 43.4168C109.792 43.0806 109.926 42.7583 110.163 42.5206C110.401 42.2828 110.723 42.1492 111.059 42.1491C111.396 42.1492 111.718 42.2828 111.956 42.5205C112.193 42.7582 112.327 43.0806 112.327 43.4168ZM117.72 54.7632C117.417 54.9014 116.884 54.9795 116.447 54.9795C113.644 54.9795 113.278 53.2631 113.278 51.9772C113.278 50.1923 114.73 49.7105 116.054 49.442C117.447 49.1592 118.989 48.8721 118.989 48.0142C118.989 46.9093 117.592 46.9067 117.241 46.9067C116.509 46.9067 115.439 47.3199 114.546 47.5339L115.814 45.4788C116.392 45.4386 116.876 45.3655 117.555 45.3655C119.589 45.3655 120.736 46.2375 121.044 47.387V52.1373C121.203 53.0501 121.881 53.3568 122.779 53.4051L121.992 54.6592C121.024 54.6592 119.944 55.0131 119.15 53.3917V49.909C118.595 50.302 117.85 50.4745 117.081 50.5495C115.861 50.6684 115.333 51.6483 115.333 52.0571C115.333 52.8864 116.211 53.405 117.315 53.405C118.022 53.405 118.436 53.3087 118.976 53.2448L117.72 54.7632ZM123.702 54.0431V42.4988L123.061 41.8716C123.96 41.8716 125.288 41.8883 125.757 41.5647V53.8829C125.862 54.2247 126.117 54.4521 126.384 54.6703H123.061L123.702 54.0431ZM60.3537 71.3131V61.8025C59.6499 61.7624 58.95 61.7126 58.212 61.7126C57.2209 61.7126 56.7172 62.0453 56.0889 62.4252L56.8816 60.0663H66.5245L65.8263 62.4252C65.4998 61.8919 64.8045 61.7126 64.2317 61.7126L62.4107 61.8025V72.2568C62.5271 72.6428 62.8833 73.0066 63.2033 73.3514H59.4102C60.1603 72.1243 60.1592 71.9329 60.3537 71.3133V71.3131ZM64.1668 68.7C64.1668 65.6996 66.6427 63.7093 69.5576 63.7093C72.2113 63.7093 74.7882 65.8321 74.7882 68.6198C74.7882 71.3845 72.5388 73.5301 69.3707 73.5301C66.3487 73.5301 64.1668 71.4578 64.1668 68.7ZM72.5999 68.6198C72.5999 66.6812 70.9465 65.2574 69.3974 65.2574C67.7107 65.2574 66.195 66.9483 66.195 68.7C66.195 70.2566 67.7224 71.9824 69.5574 71.9824C71.4524 71.9824 72.5999 70.415 72.5999 68.62V68.6198ZM75.4099 73.3708C75.5863 73.1137 75.7963 72.8768 75.8902 72.5702V60.8545C75.7689 60.5506 75.5073 60.2919 75.2497 60.0539C76.1483 60.0539 77.3658 60.1049 77.9452 59.7604V71.7962C78.4118 71.9457 78.9212 71.9564 79.4529 71.9564C82.6659 71.9564 83.1759 69.6052 83.1759 68.6205C83.1759 66.5876 81.4893 65.2845 80.1602 65.2845C79.6442 65.2845 78.7921 65.4999 78.2654 65.765C78.693 64.5993 79.2622 63.71 80.7073 63.71C83.1111 63.71 85.2307 65.2637 85.2307 68.2202C85.2307 72.2355 82.5782 73.531 78.7457 73.531C77.6137 73.531 76.5046 73.4463 75.4099 73.3708ZM90.97 73.3145C90.667 73.4528 90.1345 73.5308 89.6978 73.5308C86.8947 73.5308 86.5287 71.8145 86.5287 70.5286C86.5287 68.7437 87.9807 68.2617 89.3042 67.9933C90.6975 67.7107 92.2398 67.4236 92.2398 66.5656C92.2398 65.4606 90.8424 65.4581 90.4917 65.4581C89.759 65.4581 88.6891 65.8713 87.7964 66.0853L89.0641 64.0303C89.642 63.99 90.1263 63.9169 90.8053 63.9169C92.8392 63.9169 93.9866 64.789 94.2947 65.9384V70.6887C94.4537 71.6015 95.1309 71.9083 96.0294 71.9564L95.2421 73.2108C94.2744 73.2108 93.1942 73.5647 92.3998 71.943V68.4603C91.8451 68.8534 91.1003 69.026 90.3316 69.1009C89.1113 69.2197 88.5836 70.1997 88.5836 70.6086C88.5836 71.4379 89.461 71.9564 90.5652 71.9564C91.2729 71.9564 91.6866 71.86 92.2264 71.7962L90.97 73.3145ZM115.55 68.7001C115.55 65.6998 118.026 63.7095 120.94 63.7095C123.594 63.7095 126.171 65.8322 126.171 68.62C126.171 71.3847 123.922 73.5303 120.754 73.5303C117.732 73.5303 115.55 71.458 115.55 68.7001ZM123.983 68.62C123.983 66.6813 122.329 65.2575 120.78 65.2575C119.094 65.2575 117.578 66.9485 117.578 68.7001C117.578 70.2567 119.105 71.9826 120.94 71.9826C122.835 71.9826 123.983 70.4152 123.983 68.6201V68.62ZM96.4879 68.7709C96.4879 66.9894 97.5629 63.7137 102.106 63.7137C102.523 63.7137 102.936 63.6348 103.4 63.8931L104.414 64.034V66.2222C103.699 65.5664 102.659 65.288 101.559 65.288C100.179 65.288 98.5429 66.8582 98.5429 68.544C98.5429 68.8893 98.7898 71.9601 102.746 71.9601C103.799 71.9601 104.762 71.6436 105.602 71.1593C105.428 71.8289 105.248 72.4345 104.44 73.1167C104.079 73.4216 103.128 73.5078 102.039 73.5078C98.9427 73.5078 96.4881 72.084 96.4881 68.7709H96.4879ZM105.989 68.7709C105.989 66.9894 107.064 63.7137 111.606 63.7137C112.024 63.7137 112.436 63.6348 112.901 63.8931L113.915 64.034V66.2222C113.2 65.5664 112.16 65.288 111.059 65.288C109.679 65.288 108.044 66.8582 108.044 68.544C108.044 68.8893 108.29 71.9601 112.247 71.9601C113.3 71.9601 114.262 71.6436 115.102 71.1593C114.929 71.8289 114.749 72.4345 113.941 73.1167C113.58 73.4216 112.629 73.5078 111.54 73.5078C108.443 73.5078 105.989 72.084 105.989 68.7709Z" fill="#AB0534"/>
</svg>
