<svg width="121" height="66" viewBox="0 0 121 66" fill="none" xmlns="http://www.w3.org/2000/svg">
<path fill-rule="evenodd" clip-rule="evenodd" d="M61.6892 49.3025V40.8485H59.1194V45.7221H48.736V49.8991H51.7026V49.3025H61.6892ZM48.736 52.8836V57.0606H51.7026V56.464H61.6892V49.8991H59.1194V52.8836H48.736ZM6.71171 40.8485V62.2332H0.383545V65.5153H9.57919V40.8485H6.71171ZM68.2158 65.5153H77.4114V48.6067H83.4434V40.8485H80.5759V45.523H74.4461V62.2332H68.2158V65.5153ZM68.2158 45.523H62.1839V48.6067H68.2158V45.523ZM113.305 56.1657V40.8485H110.339V56.464H118.052V62.2332H104.307V65.5153H120.919V56.1657H113.305ZM79.7843 65.5153H88.4866L91.0578 55.6683H92.2442L90.2669 48.3083V53.6793H88.2889L86.1131 62.2332H80.6744L79.7843 65.5153ZM103.912 65.5153L97.3853 40.8485H94.4186L100.055 62.2332H94.2209L95.111 65.5153H103.912ZM26.0924 47.1144L24.2135 40.8485H21.0498L24.412 52.8836L26.0924 47.1144ZM28.7621 62.2332H21.2475L18.8747 54.5742L17.0944 62.2332H10.7663L9.87545 65.5153H19.171L20.4566 60.4426L21.9399 65.5153H30.6409L31.8273 60.7409L30.2455 54.5742L28.7621 62.2332ZM42.2101 65.5153L35.6842 40.8485H33.1129L38.7494 62.2332H32.4212L33.4099 65.5153H42.2101ZM42.5063 62.2332V65.5153H61.6892V57.0606H59.1194V62.2332H42.5063Z" fill="#D8D8D8"/>
<path fill-rule="evenodd" clip-rule="evenodd" d="M0.383545 40.8246H6.71239V41.2707H0.383545V40.8246ZM16.5464 40.8246H21.1059V41.2707H16.5464V40.8246ZM27.8152 40.8246H33.1656V41.2707H27.8152V40.8246ZM42.5063 40.8246H59.1187V41.2707H42.5063V40.8246ZM62.1839 40.8246H80.5759V41.2707H62.1839V40.8246ZM86.3567 40.8246H94.472V41.2707H86.3567V40.8246ZM104.209 40.8246H110.34V41.2707H104.209V40.8246ZM0.383545 42.6145H6.71239V43.0606H0.383545V42.6145ZM16.0572 42.6145H21.6054V43.0606H16.0572V42.6145ZM27.3007 42.6145H33.6377V43.0606H27.3007V42.6145ZM42.5063 42.6145H59.1187V43.0606H42.5063V42.6145ZM62.1839 42.6145H80.5759V43.0606H62.1839V42.6145ZM85.8771 42.6145H94.9441V43.0606H85.8771V42.6145ZM104.209 42.6145H110.34V43.0606H104.209V42.6145ZM0.383545 44.505H6.71239V44.9511H0.383545V44.505ZM15.542 44.505H22.1336V44.9511H15.542V44.505ZM26.7574 44.505H34.1351V44.9511H26.7574V44.505ZM42.5063 44.505H59.1187V44.9511H42.5063V44.505ZM62.1839 44.505H80.5759V44.9511H62.1839V44.505ZM85.3687 44.505H95.4408V44.9511H85.3687V44.505ZM104.209 44.505H110.34V44.9511H104.209V44.505ZM0.383545 46.4932H6.71239V46.9393H0.383545V46.4932ZM14.9994 46.4932H22.6891V46.9393H14.9994V46.4932ZM26.1847 46.4932H34.6599V46.9393H26.1847V46.4932ZM42.5063 46.4932H48.7359V46.9393H42.5063V46.4932ZM68.2158 46.4932H74.4454V46.9393H68.2158V46.4932ZM84.8357 46.4932H95.9663V46.9393H84.8357V46.4932ZM104.209 46.4932H110.34V46.9393H104.209V46.4932ZM0.383545 48.3837H6.71239V48.8298H0.383545V48.3837ZM14.4835 48.3837H23.2167V48.8298H14.4835V48.3837ZM25.6415 48.3837H35.158V48.8298H25.6415V48.3837ZM42.5063 48.3837H48.7359V48.8298H42.5063V48.3837ZM68.2158 48.3837H74.4454V48.8298H68.2158V48.3837ZM84.3294 48.3837H90.2669V48.8298H84.3294V48.3837ZM90.3469 48.3837H96.4644V48.8298H90.3469V48.3837ZM104.209 48.3837H110.34V48.8298H104.209V48.3837ZM0.383545 50.3727H6.71239V50.8188H0.383545V50.3727ZM13.9403 50.3727H23.7722V50.8188H13.9403V50.3727ZM25.0695 50.3727H35.6821V50.8188H25.0695V50.3727ZM42.5063 50.3727H59.1187V50.8188H42.5063V50.3727ZM68.2158 50.3727H74.4454V50.8188H68.2158V50.3727ZM83.7964 50.3727H90.2669V50.8188H83.7964V50.3727ZM90.884 50.3727H96.9885V50.8188H90.884V50.3727ZM104.209 50.3727H110.34V50.8188H104.209V50.3727ZM0.383545 52.2624H6.71239V52.7085H0.383545V52.2624ZM13.4251 52.2624H24.3004V52.7085H13.4251V52.2624ZM24.5262 52.2624H36.1802V52.7085H24.5262V52.2624ZM42.5063 52.2624H59.1187V52.7085H42.5063V52.2624ZM68.2158 52.2624H74.4454V52.7085H68.2158V52.2624ZM83.288 52.2624H90.2662V52.7085H83.288V52.2624ZM91.3944 52.2624H97.4866V52.7085H91.3944V52.2624ZM104.209 52.2624H110.34V52.7085H104.209V52.2624ZM0.383545 54.2514H6.71239V54.6975H0.383545V54.2514ZM12.8825 54.2514H36.705V54.6975H12.8825V54.2514ZM42.5063 54.2514H48.7359V54.6975H42.5063V54.2514ZM68.2158 54.2514H74.4454V54.6975H68.2158V54.2514ZM82.7551 54.2514H88.0857V54.6975H82.7551V54.2514ZM91.9302 54.2514H98.0107V54.6975H91.9302V54.2514ZM110.34 54.6975H104.209V54.2514H110.34V54.6975ZM0.383545 56.241H6.71239V56.6871H0.383545V56.241ZM12.3399 56.241H18.4348V56.6871H12.3399V56.241ZM19.4597 56.241H29.8794V56.6871H19.4597V56.241ZM30.7093 56.241H37.2291V56.6871H30.7093V56.241ZM42.5063 56.241H48.7359V56.6871H42.5063V56.241ZM68.2158 56.241H74.4454V56.6871H68.2158V56.241ZM82.2221 56.241H87.5807V56.6871H82.2221V56.241ZM92.4673 56.241H98.5341V56.6871H92.4673V56.241ZM104.209 56.241H118.052V56.6871H104.209V56.241ZM0.383545 58.1308H6.71239V58.5769H0.383545V58.1308ZM17.9962 58.5769H11.8241V58.1308H17.9962V58.5769ZM29.5134 58.5769H20.0454V58.1308H29.5134V58.5769ZM31.1732 58.1308H37.7272V58.5769H31.1732V58.1308ZM42.5063 58.1308H59.1187V58.5769H42.5063V58.1308ZM68.2158 58.1308H74.4454V58.5769H68.2158V58.1308ZM81.7157 58.1308H87.0997V58.5769H81.7157V58.1308ZM92.977 58.1308H99.0335V58.5769H92.977V58.1308ZM104.209 58.1308H118.052V58.5769H104.209V58.1308ZM0.383545 60.1198H6.71239V60.5659H0.383545V60.1198ZM11.2815 60.1198H17.5337V60.5659H11.2815V60.1198ZM20.6619 60.1198H29.1282V60.5659H20.6619V60.1198ZM31.6604 60.1198H38.2513V60.5659H31.6604V60.1198ZM42.5063 60.1198H59.1187V60.5659H42.5063V60.1198ZM68.2158 60.1198H74.4454V60.5659H68.2158V60.1198ZM81.1807 60.1198H86.5941V60.5659H81.1807V60.1198ZM93.5141 60.1198H99.5583V60.5659H93.5141V60.1198ZM104.209 60.1198H118.052V60.5659H104.209V60.1198ZM0.383545 62.0102H6.71239V62.4563H0.383545V62.0102ZM10.7663 62.0102H17.0944V62.4563H10.7663V62.0102ZM21.2475 62.0102H28.7628V62.4563H21.2475V62.0102ZM32.1243 62.0102H38.7494V62.4563H32.1243V62.0102ZM42.5063 62.0102H59.1187V62.4563H42.5063V62.0102ZM68.2158 62.0102H74.4454V62.4563H68.2158V62.0102ZM80.6744 62.0102H86.1131V62.4563H80.6744V62.0102ZM94.0231 62.0102H100.055V62.4563H94.0231V62.0102ZM118.052 62.4563H104.209V62.0102H118.052V62.4563Z" fill="#D8D8D8"/>
<path fill-rule="evenodd" clip-rule="evenodd" d="M55.7723 6.9319C55.7723 3.34636 58.6059 0.48468 62.0861 0.48468C65.6588 0.48468 68.4964 3.34234 68.4964 6.9319C68.4964 10.4257 65.6547 13.2792 62.0861 13.2792C58.6108 13.2792 55.7723 10.4224 55.7723 6.9319ZM62.0861 1.24414C59.0376 1.24414 56.5318 3.75344 56.5318 6.9319C56.5318 10.007 59.0342 12.5198 62.0861 12.5198C65.2391 12.5198 67.7369 10.0023 67.7369 6.9319C67.7369 3.75745 65.235 1.24414 62.0861 1.24414ZM54.0046 1.69141L54.6536 1.95913V35.2783H54.2739L54.0046 35.546L44.2039 25.6885V11.5496L54.0046 1.69141ZM53.8942 34.3578V2.87968L44.9633 11.8629V25.3752L53.8942 34.3578ZM70.2654 1.69141L80.0655 11.5496V25.6878L70.2654 35.546L69.6164 35.2783V1.95913H69.9961L70.2654 1.69141ZM70.3759 2.87973L79.306 11.8629V25.3746L70.3759 34.3577V2.87973ZM67.7369 12.5748C66.4189 14.2458 64.4464 15.2686 62.184 15.2689C62.1838 15.2689 62.1835 15.2689 62.1833 15.2689V14.8891L62.1848 15.2689C62.1846 15.2689 62.1843 15.2689 62.184 15.2689M56.5318 12.5668V35.6943H67.7369V12.5748M68.1173 36.074V36.4538H55.7723V11.3087L56.4862 11.1283C57.0405 12.1546 57.8631 13.0113 58.8662 13.6067C59.8693 14.2022 61.0152 14.5142 62.1817 14.5094L62.1825 14.5094H62.1833C64.6075 14.5094 66.6591 13.1996 67.7828 11.1277L68.4964 11.3087V36.074H68.1173Z" fill="#D8D8D8"/>
</svg>
