<svg width="142" height="90" viewBox="0 0 142 90" fill="none" xmlns="http://www.w3.org/2000/svg">
<rect width="140.535" height="90" transform="translate(0.919067)" fill="white"/>
<path fill-rule="evenodd" clip-rule="evenodd" d="M33.4468 34.1163L27.6187 28.2888L10.9191 44.9878L27.6187 61.7112L33.4468 55.8831L22.5515 44.9878L33.4468 34.1163Z" fill="#D8D8D8"/>
<path fill-rule="evenodd" clip-rule="evenodd" d="M30.0449 40.4442L34.6122 44.9876L30.0449 49.5555L34.9214 54.4076L44.342 44.9876L34.9214 35.5915L30.0449 40.4442Z" fill="#D8D8D8"/>
<path fill-rule="evenodd" clip-rule="evenodd" d="M52.9057 49.5078C52.4534 49.5078 52.1204 49.4376 51.9065 49.2462C51.716 49.0821 51.576 48.8675 51.5025 48.6271C51.431 48.3906 51.3827 47.7715 51.3827 46.7961V41.6573L51.8349 41.0633L54.6659 46.5106C55.2361 47.5814 55.5221 48.3191 55.5221 48.6986C55.5221 48.9138 55.4506 49.08 55.3321 49.2218C55.2129 49.3654 54.9513 49.4608 54.5467 49.5072V50.0303H60.9701V49.5072C60.6132 49.5072 60.2801 49.3648 59.9702 49.0555C59.5186 48.6503 58.9954 47.8662 58.3763 46.7001L54.0229 38.3986L57.6392 33.9737C58.5425 32.8791 59.0895 32.2367 59.3517 32.0467C59.5901 31.856 59.9232 31.7374 60.3503 31.6897V31.1904H55.5453V31.6897C56.0685 31.7374 56.4016 31.7851 56.5439 31.9043C56.8049 32.0944 56.9247 32.3798 56.9247 32.7367C56.9247 33.189 56.6161 33.8313 55.9725 34.616L51.3814 40.2779V34.4021C51.3814 33.4505 51.429 32.8559 51.5012 32.6181C51.5959 32.3321 51.7151 32.095 51.8581 31.9752C52.0952 31.7857 52.4051 31.6897 52.8336 31.6897V31.1904H46.6724V31.6897H47.077C47.4339 31.6897 47.6955 31.7851 47.9094 31.9752C48.1239 32.142 48.2425 32.3559 48.314 32.5937C48.3855 32.832 48.4087 33.4499 48.4087 34.4015V46.7954C48.4087 47.747 48.3855 48.3417 48.314 48.5556C48.2425 48.8648 48.1001 49.0787 47.957 49.2211C47.7425 49.4112 47.4339 49.5065 47.077 49.5065H46.6724V50.0297H52.9051V49.5078H52.9057ZM61.2311 44.9161H66.536V42.0381H61.2311V44.9161ZM71.6026 48.5562C71.5072 48.8655 71.388 49.0794 71.2218 49.2218C71.0073 49.4118 70.7463 49.5072 70.3894 49.5072H69.961V50.0303H76.4082V49.5072H76.003C75.6467 49.5072 75.3851 49.4118 75.1699 49.2456C74.9799 49.0555 74.8375 48.8416 74.766 48.6026C74.6958 48.3662 74.6474 47.7709 74.6474 46.7954V32.2606H75.5745C76.146 32.2606 76.55 32.3553 76.7877 32.5221C77.2053 32.8426 77.5399 33.2586 77.7631 33.7353C78.0009 34.2585 78.2148 35.0915 78.4061 36.2808H78.7386V31.1898H67.6545V36.2808H68.0114C68.1544 34.9008 68.4875 33.8307 69.0107 33.0691C69.3902 32.5215 69.9855 32.2606 70.8179 32.2606H71.6986V46.7954C71.6986 47.7477 71.6748 48.3423 71.6026 48.5562ZM95.5103 48.0092C95.5103 47.6053 95.6044 47.106 95.7719 46.4868L96.2951 44.6551H100.648L101.314 47.01C101.48 47.6291 101.576 47.9616 101.576 48.0569C101.622 48.2231 101.646 48.3906 101.646 48.5562C101.646 48.8416 101.576 49.0555 101.432 49.1979C101.242 49.4118 100.909 49.5072 100.433 49.5072H100.171V50.0303H106.166V49.5072C105.786 49.4608 105.5 49.2933 105.287 49.0079C105.001 48.6264 104.667 47.6993 104.24 46.2484L99.7677 30.7858H99.6015L98.483 34.6392L95.176 45.82C94.772 47.2709 94.4144 48.2225 94.1303 48.6741C93.8462 49.1232 93.4925 49.408 93.0441 49.5046C92.7168 49.4756 92.4365 49.312 92.1782 49.0317C92.0358 48.8416 91.7504 48.3185 91.3702 47.4854L88.3969 41.1097C89.1333 40.8249 89.728 40.3965 90.1571 39.8257C90.7988 38.9217 91.1325 37.7794 91.1325 36.3762C91.1325 35.2345 90.9173 34.2353 90.4895 33.4022C90.0379 32.546 89.4677 31.9752 88.777 31.6659C88.2056 31.4043 87.3738 31.2381 86.2553 31.1898H79.761V31.6891C80.3325 31.6891 80.7126 31.7845 80.9265 31.9275C81.1179 32.0937 81.2603 32.3082 81.3556 32.5698C81.4271 32.832 81.4742 33.4737 81.4742 34.4968V46.7239C81.4742 47.747 81.4278 48.3662 81.3556 48.6265C81.2603 48.8893 81.1179 49.1032 80.9265 49.2694C80.7126 49.4369 80.3325 49.5072 79.761 49.5072V50.0303H86.0891V49.5072C85.5176 49.5072 85.1375 49.4369 84.9236 49.2694C84.7097 49.1258 84.566 48.9132 84.4945 48.6265C84.423 48.39 84.376 47.747 84.376 46.7239V41.4428H85.1852L86.2547 43.7506L89.1565 50.031H97.1513V49.5078C96.5083 49.4376 96.1044 49.3178 95.9381 49.1741C95.6527 48.9376 95.5103 48.5324 95.5103 48.0092ZM98.4837 37.2324L98.5075 37.1377L100.339 43.632H96.605L98.4837 37.2324ZM87.779 38.8264C87.5413 39.4455 87.2076 39.8488 86.7798 40.0872C86.6206 40.1913 86.4431 40.2641 86.2566 40.3018C85.9003 40.3965 85.4249 40.4442 84.9011 40.4442H84.3779V32.1897H85.3534C85.6858 32.1897 85.9951 32.2374 86.2566 32.3089C86.7798 32.4758 87.185 32.7605 87.4698 33.236C87.9214 33.9022 88.1366 34.9723 88.1366 36.4C88.1366 37.3993 88.0168 38.2085 87.779 38.8264ZM118.633 44.322C118.918 43.2042 119.061 41.9904 119.061 40.6587C119.061 38.7317 118.776 37.0192 118.205 35.4961C117.633 33.9737 116.8 32.8552 115.707 32.0943C115.112 31.6897 114.399 31.4282 113.543 31.2851C113.114 31.2143 112.638 31.1904 112.138 31.1904H106.621V31.6897H107.025C107.357 31.6897 107.643 31.7851 107.857 31.9752C108.048 32.142 108.19 32.3559 108.262 32.5937C108.31 32.832 108.357 33.4499 108.357 34.4015V46.7954C108.357 47.7709 108.333 48.3662 108.262 48.5556C108.201 48.8215 108.059 49.0621 107.857 49.245C107.667 49.4363 107.381 49.5065 107.025 49.5065H106.621V50.0297H112.138C112.734 50.0297 113.185 49.982 113.543 49.9343C113.685 49.9105 113.803 49.8867 113.899 49.8641C114.732 49.6264 115.446 49.2688 116.017 48.841C116.611 48.3894 117.112 47.8179 117.562 47.0808C117.99 46.3683 118.371 45.4399 118.633 44.322ZM114.684 47.4139C114.375 48.0092 113.995 48.437 113.543 48.6986C113.185 48.89 112.805 48.984 112.352 48.984C112.044 48.984 111.806 48.9376 111.639 48.794C111.521 48.6986 111.449 48.5562 111.401 48.39C111.354 48.1987 111.331 47.7232 111.331 46.9616V32.2612C112.329 32.2374 113.067 32.3804 113.495 32.6658C113.508 32.6791 113.525 32.6874 113.543 32.689C114.137 33.1175 114.636 33.879 115.018 34.973C115.517 36.4239 115.778 38.3509 115.778 40.7772C115.777 43.7751 115.397 45.9869 114.684 47.4139ZM131.121 44.0366C130.812 45.7008 130.312 46.9378 129.623 47.747C128.91 48.5801 127.981 48.984 126.84 48.984H126.102C125.744 48.984 125.484 48.9138 125.34 48.7463C125.174 48.6026 125.079 48.4126 125.007 48.1987C124.96 47.9609 124.936 47.3192 124.936 46.2961V40.9911C125.508 40.9911 125.959 41.0859 126.267 41.3242C126.577 41.5626 126.863 42.0381 127.1 42.7043C127.314 43.3943 127.481 44.2744 127.552 45.369H127.886V35.4961H127.552C127.458 36.947 127.22 38.0655 126.887 38.8025C126.53 39.5641 125.959 39.9448 125.174 39.9448H124.936V32.2612H126.197C127.149 32.2612 127.768 32.3559 128.124 32.5228C128.694 32.785 129.147 33.2366 129.456 33.8313C129.788 34.4253 130.026 35.4014 130.217 36.7576H130.55V31.1911H120.202V31.6904H120.63C121.034 31.6904 121.343 31.8328 121.582 32.095C121.725 32.2612 121.843 32.5228 121.915 32.8327C121.939 33.0221 121.963 33.5459 121.963 34.4028V46.7967C121.963 47.7483 121.915 48.343 121.843 48.5569C121.772 48.8661 121.653 49.08 121.487 49.2224C121.273 49.4125 120.986 49.5078 120.63 49.5078H120.202V50.031H130.883L131.454 44.0366H131.121ZM48.1246 58.2622H49.4331V53.3367H49.8364V58.2622H51.1217V52.7427H48.1246V58.2622ZM54.3328 52.6712C54.2851 52.6712 54.2374 52.6474 54.1666 52.6474H52.9521C52.619 52.6474 52.3819 52.7189 52.2621 52.8374C52.1197 52.9811 52.0488 53.1241 52.025 53.2904C52.0005 53.3606 52.0005 53.4089 52.0005 53.4804V57.5967C52.0005 57.6669 52.0005 57.7391 52.025 57.8106C52.0488 57.953 52.1435 58.0709 52.2621 58.1907C52.4051 58.2861 52.619 58.3582 52.9521 58.3582H54.0229C54.3798 58.3582 54.5937 58.2867 54.7361 58.1669C54.8559 58.047 54.9268 57.9053 54.9507 57.7629C54.9745 57.6914 54.9745 57.6431 54.9745 57.5967V53.6479C54.9745 53.2904 54.903 53.0526 54.7838 52.9334C54.66 52.8067 54.5041 52.7161 54.3328 52.6712ZM53.6905 53.4327V57.5729C53.6893 57.6167 53.6727 57.6587 53.6434 57.6914C53.5957 57.7391 53.5481 57.7629 53.4997 57.7629H53.4527C53.405 57.7391 53.3567 57.7391 53.3329 57.6914C53.3031 57.659 53.2864 57.6168 53.2858 57.5729V53.4327C53.2858 53.3851 53.309 53.3374 53.3329 53.3142C53.3806 53.2665 53.4282 53.2665 53.4753 53.2665C53.5468 53.2665 53.5951 53.2665 53.6189 53.3142C53.666 53.3367 53.6898 53.3606 53.6898 53.4083V53.4327H53.6905ZM58.21 52.7189C58.163 52.7189 58.0915 52.695 58.0438 52.695H56.8068C56.4982 52.695 56.2605 52.7427 56.1413 52.8613C56.0208 52.9418 55.9291 53.0587 55.8797 53.195C55.8559 53.2665 55.8559 53.3374 55.8559 53.4089C55.8559 53.4804 55.832 53.5287 55.832 53.5764V57.4769C55.832 57.8106 55.9035 58.0245 56.0466 58.1424C56.189 58.2622 56.3552 58.3099 56.522 58.3337C56.5697 58.3576 56.6174 58.3576 56.6651 58.3576H57.9021C58.2352 58.3576 58.4491 58.2861 58.5915 58.1901C58.7113 58.0702 58.7822 57.9285 58.8298 57.7861V57.6199V56.3339H57.5452V57.6199C57.5452 57.6424 57.5213 57.6901 57.4743 57.7139C57.4504 57.7378 57.4028 57.7616 57.3306 57.7616C57.2866 57.7606 57.2445 57.7437 57.2121 57.7139C57.1644 57.6901 57.1412 57.6663 57.1412 57.6199V53.4321V53.3844C57.1412 53.3606 57.165 53.3142 57.2121 53.2904C57.2359 53.2665 57.2836 53.2665 57.3306 53.2665C57.4021 53.2665 57.4504 53.2665 57.4743 53.2904C57.5213 53.3367 57.5452 53.3606 57.5452 53.3844V54.5976H58.8298V53.6234C58.8298 53.2659 58.7822 53.052 58.6391 52.9328C58.4961 52.8149 58.3531 52.7427 58.21 52.7189ZM59.3762 53.3367H60.1371V58.2622H61.4456V53.3367H62.2071V52.7427H59.3762V53.3367ZM64.3004 52.7427H63.3243L62.6349 58.2616H63.8958L64.0143 56.7868H64.609L64.752 58.2616H66.0129L65.3473 52.7427H64.3004ZM64.3004 56.1922H64.0626L64.2765 53.4327H64.3474L64.562 56.1922H64.3004ZM69.4385 55.669C69.2903 55.5653 69.1188 55.5 68.9392 55.479H68.7253H68.7014V55.4313C68.7491 55.4313 68.7729 55.4313 68.7968 55.4087H68.867C69.0577 55.3836 69.2239 55.3372 69.367 55.2412C69.4417 55.1813 69.5019 55.1053 69.5431 55.0188C69.5842 54.9324 69.6053 54.8377 69.6047 54.7419V53.6247C69.6047 53.5771 69.6047 53.5294 69.5809 53.4572C69.5809 53.3857 69.5809 53.3374 69.5577 53.2672C69.5151 53.1208 69.4222 52.9942 69.2954 52.9096C69.1531 52.791 68.9153 52.7434 68.6061 52.7434H66.6546V58.2622H68.7961C68.8664 58.2622 68.9385 58.2384 69.0339 58.2146C69.1763 58.1669 69.3193 58.0947 69.4617 57.9768C69.5802 57.8583 69.6517 57.6676 69.6517 57.4053V56.1207C69.6524 55.9068 69.5809 55.7644 69.4385 55.669ZM68.3677 57.3815C68.3696 57.4593 68.3445 57.5353 68.2968 57.5967C68.2532 57.6228 68.2043 57.6386 68.1538 57.6431C68.1299 57.6669 68.1061 57.6669 68.0823 57.6669H67.9399V55.6684H68.1538C68.2008 55.6922 68.2485 55.6922 68.273 55.7399C68.3438 55.7876 68.3677 55.8597 68.3677 55.9776V57.3815ZM68.3677 54.8849V54.9313C68.3677 54.9552 68.3438 54.979 68.3438 55.0028C68.3438 55.0267 68.2968 55.0505 68.273 55.0969C68.2491 55.1207 68.2015 55.1207 68.1538 55.1207C68.1299 55.1446 68.1061 55.1446 68.0823 55.1446H67.9399V53.3361H68.0584C68.1061 53.3361 68.1299 53.3599 68.1538 53.3599C68.2008 53.3599 68.2485 53.3838 68.273 53.4076C68.3438 53.4791 68.3677 53.5275 68.3677 53.6228V54.8849ZM75.1944 52.7427H73.8865V57.6669H73.4813V52.7427H72.1966V57.6669H71.7927V52.7427H70.5086V58.2622H74.1726V59.2132H75.4573V57.6431H75.1944V52.7427ZM77.4075 55.3127V52.7427H76.099V58.2622H77.4075L78.0015 55.669V58.2622H79.2862V52.7427H78.0015L77.4075 55.3127ZM83.1873 52.7427H81.9039L81.4278 55.0975V52.7427H80.1431V58.2622H81.4278V55.7167L82.0456 58.2622H83.331L82.5456 55.4081L83.1873 52.7427ZM89.0399 52.7189C88.9684 52.7189 88.9213 52.695 88.8737 52.695H87.6367C87.3274 52.695 87.089 52.7427 86.9698 52.8613C86.8497 52.9422 86.7582 53.059 86.7083 53.195C86.6844 53.2665 86.6844 53.3374 86.6844 53.4089C86.6619 53.4804 86.6619 53.5287 86.6619 53.5764V57.4769C86.6619 57.8106 86.7321 58.0245 86.8758 58.1424C87.0194 58.2622 87.185 58.3099 87.3513 58.3337C87.3989 58.3576 87.4453 58.3576 87.4936 58.3576H88.7306C89.0644 58.3576 89.2783 58.2861 89.4213 58.1901C89.5308 58.0759 89.6118 57.9375 89.6578 57.7861V57.6199V56.3339H88.3744V57.6199C88.3744 57.6424 88.3505 57.6901 88.3028 57.7139C88.279 57.7378 88.2326 57.7616 88.1605 57.7616C88.1161 57.7606 88.0736 57.7437 88.0406 57.7139C87.9929 57.6901 87.9691 57.6663 87.9691 57.6199V53.4321V53.3844C87.9691 53.3606 87.9929 53.3142 88.0406 53.2904C88.0645 53.2665 88.1121 53.2665 88.1605 53.2665C88.232 53.2665 88.279 53.2665 88.3028 53.2904C88.3505 53.3367 88.3744 53.3606 88.3744 53.3844V54.5976H89.6578V53.6234C89.6578 53.2659 89.6114 53.052 89.469 52.9328C89.3253 52.8149 89.1823 52.7427 89.0399 52.7189ZM90.2048 53.3367H90.9663V58.2622H92.2748V53.3367H93.0363V52.7427H90.2048V53.3367ZM95.1289 52.7427H94.1548L93.4641 58.2616H94.725L94.8448 56.7868H95.4382L95.5819 58.2616H96.8427L96.1759 52.7427H95.1289ZM95.1289 56.1922H94.8925L95.1064 53.4327H95.1766L95.3918 56.1922H95.1289ZM99.8392 55.1214C99.769 55.1214 99.6969 55.0975 99.6253 55.0975H98.7697V53.3374H100.292V52.7434H97.4851V58.2622H99.4353C99.7445 58.2622 99.9584 58.2146 100.102 58.1186C100.244 58.0245 100.339 57.9285 100.411 57.8099C100.435 57.7384 100.458 57.6424 100.458 57.5722C100.482 57.5007 100.482 57.4524 100.482 57.4047V55.9061C100.482 55.6445 100.411 55.4545 100.292 55.3359C100.165 55.2222 100.008 55.1477 99.8392 55.1214ZM99.1975 57.3815C99.1975 57.4769 99.1737 57.5477 99.126 57.5967C99.1022 57.6205 99.0558 57.6431 99.0075 57.6669H98.7697V55.6929H98.9836C99.0313 55.6929 99.079 55.7167 99.1022 55.7405C99.126 55.7882 99.1499 55.812 99.1737 55.8604V55.9306C99.1873 55.943 99.1958 55.96 99.1975 55.9783V57.3815ZM102.623 55.3127V52.7427H101.339V58.2622H102.623L103.218 55.669V58.2622H104.526V52.7427H103.218L102.623 55.3127ZM106.143 52.7427L105.62 57.3332V57.357C105.596 57.4524 105.573 57.5245 105.526 57.596C105.479 57.6663 105.36 57.6901 105.193 57.6901H105.169V58.3569H105.954C106.263 58.3569 106.453 58.3093 106.597 58.1894C106.716 58.0696 106.81 57.9517 106.833 57.8093C106.863 57.7502 106.879 57.6853 106.881 57.6192C106.905 57.5464 106.905 57.4756 106.905 57.4279L107.167 53.8831H107.238L107.476 58.2609H108.761L108.309 52.7421H106.143V52.7427ZM111.876 54.9075C111.758 54.8134 111.52 54.7651 111.211 54.7651H110.497V52.7427H109.189V58.2616H111.211C111.567 58.2616 111.806 58.2139 111.924 58.0941C112.066 57.9755 112.138 57.8576 112.162 57.7139C112.185 57.6663 112.185 57.5954 112.185 57.5464V55.573V55.4068C112.185 55.3353 112.162 55.287 112.138 55.2155C112.087 55.087 111.995 54.9788 111.876 54.9075ZM110.901 55.6445V57.4047C110.903 57.4753 110.877 57.5438 110.83 57.596C110.784 57.6424 110.736 57.6663 110.688 57.6663H110.497V55.3585H110.688C110.759 55.3585 110.807 55.3823 110.83 55.4074C110.854 55.4538 110.878 55.4777 110.878 55.526C110.901 55.5498 110.901 55.5737 110.901 55.5962V55.6445ZM114.612 55.0737H114.232V52.7427H112.947V58.2622H114.232V55.669H114.612V58.2622H115.921V52.7427H114.612V55.0737ZM119.132 52.6712C119.061 52.6712 119.014 52.6474 118.966 52.6474H117.729C117.395 52.6474 117.157 52.7189 117.038 52.8374C116.92 52.9811 116.824 53.1241 116.8 53.2904C116.777 53.3606 116.777 53.4089 116.777 53.4804V57.5967C116.777 57.6669 116.777 57.7391 116.8 57.8106C116.848 57.953 116.92 58.0709 117.062 58.1907C117.182 58.2861 117.396 58.3582 117.729 58.3582H118.8C119.156 58.3582 119.394 58.2867 119.513 58.1669C119.631 58.047 119.703 57.9053 119.727 57.7629C119.749 57.6914 119.749 57.6431 119.749 57.5967V53.6479C119.749 53.2904 119.703 53.0526 119.561 52.9334C119.441 52.8128 119.294 52.7228 119.132 52.6712ZM118.467 53.4327V57.5729C118.465 57.6168 118.449 57.659 118.419 57.6914C118.371 57.7391 118.323 57.7629 118.276 57.7629H118.229C118.181 57.7391 118.157 57.7391 118.109 57.6914C118.079 57.6591 118.062 57.6169 118.061 57.5729V53.4327C118.061 53.3851 118.085 53.3374 118.109 53.3142C118.157 53.2665 118.204 53.2665 118.253 53.2665H118.276C118.323 53.2665 118.371 53.2665 118.395 53.3142C118.443 53.3367 118.467 53.3606 118.467 53.4083V53.4327ZM122.986 52.7189C122.938 52.7189 122.866 52.695 122.819 52.695H121.582C121.273 52.695 121.058 52.7427 120.916 52.8613C120.802 52.9488 120.712 53.0635 120.654 53.195C120.631 53.2665 120.631 53.3374 120.631 53.4089V57.4769C120.631 57.8106 120.702 58.0245 120.845 58.1424C120.964 58.2622 121.13 58.3099 121.297 58.3337C121.344 58.3576 121.392 58.3576 121.44 58.3576H122.677C123.011 58.3576 123.247 58.2861 123.366 58.1901C123.486 58.0702 123.556 57.9285 123.604 57.7861C123.604 57.7384 123.604 57.6908 123.628 57.6199V56.3339H122.319V57.6199C122.319 57.6424 122.295 57.6901 122.248 57.7139C122.216 57.7441 122.173 57.7612 122.129 57.7616C122.058 57.7616 122.011 57.7378 121.987 57.7139C121.963 57.6901 121.939 57.6663 121.915 57.6199V53.4321V53.3844C121.939 53.3606 121.963 53.3142 121.987 53.2904C122.011 53.2665 122.057 53.2665 122.129 53.2665C122.177 53.2665 122.225 53.2665 122.248 53.2904C122.295 53.3367 122.319 53.3606 122.319 53.3844V54.5976H123.628V53.6234C123.628 53.2659 123.556 53.052 123.414 52.9328C123.299 52.8164 123.148 52.7412 122.986 52.7189ZM124.152 53.3367H124.937V58.2622H126.22V53.3367H126.982V52.7427H124.152V53.3367ZM128.933 55.3127V52.7427H127.625V58.2622H128.933L129.527 55.669V58.2622H130.812V52.7427H129.527L128.933 55.3127Z" fill="#D8D8D8"/>
</svg>
