<svg width="141" height="90" viewBox="0 0 141 90" fill="none" xmlns="http://www.w3.org/2000/svg">
<rect width="140.535" height="90" transform="translate(0.454468)" fill="white"/>
<path fill-rule="evenodd" clip-rule="evenodd" d="M119.146 31.3835H22.176C22.176 31.3835 10.4545 32.9232 10.4545 46.0651C10.4545 46.0651 10.9284 57.432 22.0573 58.6165L119.501 58.3792C119.501 58.3792 131.224 56.8402 130.986 44.5254C130.986 44.5261 131.343 32.8046 119.146 31.3835Z" fill="#D8D8D8"/>
<path fill-rule="evenodd" clip-rule="evenodd" d="M17.0378 56.0503C17.0378 56.0503 19.4848 51.709 25.2074 50.1309C25.2074 50.1309 26.6676 48.9465 25.9179 48.5515C25.9179 48.5515 25.6025 47.9994 24.6944 48.1578C24.6944 48.1578 17.1558 51.9463 17.0378 56.0503ZM128.105 47.6839C128.105 47.6839 125.66 52.0252 119.937 53.6047C119.937 53.6047 118.476 54.7891 119.226 55.1827C119.226 55.1827 119.542 55.7362 120.45 55.5778C120.45 55.5778 127.987 51.7879 128.105 47.6839ZM14.492 41.9613C14.492 41.9613 16.939 37.62 22.6623 36.0412C22.6623 36.0412 24.1224 34.8568 23.3728 34.4624C23.3728 34.4624 23.0573 33.9097 22.1493 34.0681C22.1486 34.0681 14.61 37.8566 14.492 41.9613Z" fill="white"/>
<path fill-rule="evenodd" clip-rule="evenodd" d="M45.9153 33.9001L37.8644 33.9296C37.8644 33.9296 35.3775 33.5153 33.4833 36.0605L17.6769 51.5705C17.6769 51.5705 16.0783 52.9915 17.7949 53.3468L24.3069 53.2878C24.3069 53.2878 25.5503 53.5251 26.0235 52.578L30.1083 48.2552L36.9755 48.2257L36.265 51.6295C36.265 51.6295 35.7623 53.2878 37.2423 53.2583C38.7223 53.2288 41.6529 53.1994 41.6529 53.1994C41.6529 53.1994 43.1624 53.5841 43.4587 51.6898L44.0505 48.9959L42.7482 49.0549C42.7482 49.0549 41.12 48.6406 41.4759 47.1311L42.1563 43.9338C42.1563 43.9338 42.5417 42.2761 44.4655 41.9799L45.4421 42.0683L46.7143 35.4974C46.715 35.4988 47.2479 33.9001 45.9153 33.9001ZM38.042 43.2836H34.8453L38.6044 39.4059L38.042 43.2836Z" fill="#C9C9C9"/>
<path fill-rule="evenodd" clip-rule="evenodd" d="M51.1448 37.7389H53.3161C53.3161 37.7389 55.329 37.3445 54.8949 39.2779L54.1446 42.7907H57.9338C57.9338 42.7907 59.5914 42.5932 59.276 43.9751L58.8027 46.6992C58.8027 46.6992 58.6841 47.9221 57.1451 48.04H53.1193L52.4883 51.1976C52.4883 51.1976 52.4485 53.0932 50.7518 53.2112L48.1868 53.1707C48.1868 53.1707 46.3714 53.4478 46.9235 51.356L47.5153 48.16L44.1603 48.0812C44.1603 48.0812 41.8716 48.4364 42.5026 46.5017L42.897 44.4497C42.897 44.4497 42.9758 42.753 44.949 42.8318L48.7375 42.8716L49.3294 39.2799C49.3294 39.2779 49.4082 37.7389 51.1448 37.7389ZM73.8773 39.6722C73.8773 39.6722 71.588 38.686 68.0765 39.0015C68.0765 39.0015 64.7215 39.2381 62.9458 40.8566C62.9458 40.8566 61.1304 42.3956 60.815 44.8427C60.815 44.8427 60.3417 46.4997 60.8547 48.4337C60.8547 48.4337 61.4075 50.6441 63.0254 51.5522C63.0254 51.5522 64.229 52.5583 67.0114 52.7949C67.0114 52.7949 70.4447 52.8134 72.0427 52.1427L73.7799 44.5457L67.879 44.5649L67.307 47.348L69.3597 47.407L68.8467 49.6764C68.8467 49.6764 67.7021 50.0516 66.6761 49.7155C66.6761 49.7155 65.0774 49.3417 64.742 47.7623C64.742 47.7623 64.3278 46.1039 64.8607 45.0388C64.8607 45.0388 65.3936 43.0067 66.8736 42.4533C66.8736 42.4533 68.2158 41.8415 69.8535 41.8813C69.8535 41.8813 72.064 41.9992 73.1284 42.5918L73.8773 39.6722ZM77.7461 39.1201H81.6135L79.6012 49.4199H85.0467L84.3362 52.3806H75.0226L77.7461 39.1201ZM97.6379 39.0803H92.9399L85.1263 52.4204H89.3482L90.9277 49.6181L95.7422 49.5777L96.0584 52.38H99.8867L97.6379 39.0803ZM92.5065 46.6985L94.6778 42.5541L95.2299 46.6985H92.5065ZM113.108 39.2779C113.108 39.2779 110.879 38.4686 107.958 38.7251C107.958 38.7251 105.314 38.9027 104.346 40.0474C104.346 40.0474 103.222 40.7188 103.024 42.3956C103.024 42.3956 102.689 43.8359 103.379 44.8818C103.379 44.8818 103.695 45.7699 105.589 46.5586C105.589 46.5586 107.485 47.191 107.82 47.645C107.82 47.645 108.294 48.0387 107.919 48.6895C107.919 48.6895 107.643 49.5777 106.261 49.5591C106.261 49.5591 104.683 49.7759 103.716 49.3808C103.716 49.3808 102.649 49.125 102.236 48.7499L101.19 51.7085C101.19 51.7085 102.196 52.3409 103.913 52.4986C103.913 52.4986 106.399 52.7345 107.624 52.3608C107.624 52.3608 109.774 52.1036 111.176 50.4651C111.176 50.4651 111.728 49.972 112.024 48.2753C112.024 48.2753 112.123 46.6368 111.688 46.1643C111.688 46.1643 111.195 45.1774 109.498 44.3681C109.498 44.3681 108.019 43.6967 107.663 43.5986C107.663 43.5986 107.209 43.4408 107.091 43.1247C107.091 43.1247 106.716 42.5527 107.229 42.1186C107.229 42.1186 107.525 41.7434 108.53 41.7235C108.53 41.7235 109.892 41.5459 110.939 41.8415C110.939 41.8415 112.004 42.2557 112.201 42.4731L113.108 39.2779ZM125.146 39.2381C125.146 39.2381 122.916 38.4288 119.995 38.6853C119.995 38.6853 117.351 38.8629 116.384 40.0076C116.384 40.0076 115.258 40.679 115.061 42.3559C115.061 42.3559 114.725 43.7961 115.417 44.8427C115.417 44.8427 115.733 45.7308 117.627 46.5195C117.627 46.5195 119.521 47.1505 119.857 47.6045C119.857 47.6045 120.33 47.9996 119.955 48.6504C119.955 48.6504 119.68 49.5386 118.299 49.5187C118.299 49.5187 116.719 49.7354 115.752 49.3417C115.752 49.3417 114.687 49.0845 114.272 48.7094L113.227 51.6694C113.227 51.6694 114.234 52.3004 115.951 52.4581C115.951 52.4581 118.437 52.6954 119.66 52.3203C119.66 52.3203 121.811 52.0631 123.212 50.426C123.212 50.426 123.765 49.9329 124.062 48.2362C124.062 48.2362 124.16 46.5977 123.725 46.1238C123.725 46.1238 123.232 45.1376 121.536 44.3283C121.536 44.3283 120.056 43.6576 119.7 43.5588C119.7 43.5588 119.246 43.4011 119.127 43.0849C119.127 43.0849 118.753 42.5129 119.266 42.0788C119.266 42.0788 119.563 41.7043 120.568 41.6844C120.568 41.6844 121.929 41.5068 122.975 41.8024C122.975 41.8024 124.042 42.2166 124.238 42.4334L125.146 39.2381Z" fill="#C9C9C9"/>
</svg>
