<svg width="106" height="90" viewBox="0 0 106 90" fill="none" xmlns="http://www.w3.org/2000/svg">
<rect width="104.491" height="90" transform="translate(0.98999)" fill="white"/>
<path fill-rule="evenodd" clip-rule="evenodd" d="M21.2026 63.5253C19.3199 66.6598 15.8749 68.0487 13.5067 66.6262L13.1562 66.4156C10.788 64.993 10.3938 61.2999 12.2759 58.1639L37.2852 16.5182C39.1683 13.3818 42.6134 11.9929 44.983 13.4155L45.332 13.626C47.7002 15.0481 48.0944 18.7432 46.2118 21.8782L21.2026 63.5253ZM50.8217 40.0463L62.8204 19.8893C63.9021 18.0874 62.8588 15.475 60.4906 14.052L60.1402 13.8414C57.772 12.4208 54.9759 12.7275 53.8933 14.5279L39.5957 38.1853C38.8169 39.4829 39.3563 41.1011 40.2731 42.5914C40.3019 42.6486 53.6846 66.2502 53.6846 66.2502C54.8995 67.9627 57.1109 68.3453 59.5128 66.9814L59.8685 66.781C62.2723 65.4171 63.4045 62.8792 62.4036 61.109L50.8217 40.0463Z" fill="#D8D8D8"/>
<path fill-rule="evenodd" clip-rule="evenodd" d="M90.607 34.7252H69.5976L78.4295 19.8901C79.5112 18.0883 78.468 15.4758 76.0998 14.0528L75.7493 13.8422C73.3811 12.4216 70.5851 12.7283 69.5024 14.5288L55.2048 38.1861C54.4265 39.4837 54.9654 41.1019 55.8827 42.5922C55.9111 42.6494 69.2938 66.251 69.2938 66.251C70.5086 67.9635 72.7201 68.3462 75.1219 66.9823L75.4777 66.7818C77.8805 65.4179 79.0136 62.88 78.0113 61.1099L69.5149 45.6575H90.607C93.2651 45.6575 95.4193 43.21 95.4193 40.1914C95.4193 37.1727 93.2656 34.7252 90.607 34.7252ZM10.99 72.497H12.3616V77.004H10.99V72.497ZM13.2279 74.0373V73.1042H14.5125V74.0373H15.2235V74.8325H14.5125V75.9873C14.5125 76.2079 14.6269 76.3094 14.9086 76.3094C15.0163 76.3094 15.0769 76.3026 15.1581 76.2709V77.0036C14.8206 77.105 14.686 77.13 14.3375 77.13C13.712 77.13 13.2212 76.9396 13.2212 76.3161V74.8325H12.7986V74.0373H13.2279ZM17.597 76.0752C17.5835 76.2911 17.3287 76.4988 17.0057 76.4988C16.7917 76.4988 16.5759 76.3608 16.5759 76.1262C16.5759 75.6296 17.3629 75.7291 17.6374 75.4575L17.597 76.0752ZM16.6696 74.8834C16.6831 74.6056 16.897 74.5051 17.1672 74.5051C17.4215 74.5051 17.6441 74.5926 17.6441 74.8705C17.6441 75.0724 17.3965 75.2243 16.8047 75.2243C15.7297 75.2243 15.3115 75.5397 15.3115 76.2017C15.3115 76.9786 16.1052 77.1305 16.5283 77.1305C16.8316 77.1305 17.3691 76.9906 17.6374 76.5877H17.6508C17.6648 76.7632 17.6782 76.9031 17.7455 77.004H19.0484C18.8743 76.8271 18.8277 76.5555 18.8277 76.2271V75.1551C18.8277 74.3969 18.445 73.9114 17.0595 73.9114C16.2994 73.9114 15.5677 74.0936 15.4331 74.8834H16.6696ZM19.4931 72.497H20.7839V77.004H19.4931V72.497ZM21.4416 74.0373H22.7329V77.004H21.4416V74.0373ZM21.4416 72.497H22.7329V73.5825H21.4416V72.497ZM25.4347 76.0752C25.4208 76.2911 25.1645 76.4988 24.8429 76.4988C24.6275 76.4988 24.4131 76.3608 24.4131 76.1262C24.4131 75.6296 25.1986 75.7291 25.4746 75.4575L25.4347 76.0752ZM24.5059 74.8834C24.5193 74.6056 24.7352 74.5051 25.003 74.5051C25.2597 74.5051 25.4818 74.5926 25.4818 74.8705C25.4818 75.0724 25.2323 75.2243 24.641 75.2243C23.5655 75.2243 23.1492 75.5397 23.1492 76.2017C23.1492 76.9786 23.941 77.1305 24.366 77.1305C24.6674 77.1305 25.2054 76.9906 25.4751 76.5877H25.4885C25.5025 76.7632 25.5135 76.9031 25.5813 77.004H26.8861C26.7106 76.8271 26.6635 76.5555 26.6635 76.2271V75.1551C26.6635 74.3969 26.2813 73.9114 24.8972 73.9114C24.1371 73.9114 23.404 74.0936 23.2708 74.8834H24.5059ZM27.3558 77.004V74.0373H28.6269V74.5416H28.6404C28.8278 74.0498 29.2793 73.9109 29.7427 73.9109C30.2735 73.9109 30.8585 74.2512 30.885 74.9714V77.004H29.5937V75.231C29.5937 74.9209 29.4523 74.783 29.1644 74.783C28.861 74.783 28.6466 75.0354 28.6466 75.3118V77.0045H27.3558V77.004ZM34.7233 77.004V73.4695H33.2633V72.497H37.5511V73.4695H36.0935V77.004H34.7233ZM37.4453 77.004V74.0373H38.6891V74.5291H38.7011C38.9636 74.0623 39.2318 73.9109 40.0592 73.9109V75.0839C39.9084 75.0297 39.7493 75.0024 39.589 75.0032C38.977 75.0032 38.7342 75.2858 38.7342 75.8286V77.0036H37.4453V77.004ZM42.3923 76.0752C42.3783 76.2911 42.1221 76.4988 41.8005 76.4988C41.5851 76.4988 41.3712 76.3608 41.3712 76.1262C41.3712 75.6296 42.1567 75.7291 42.4327 75.4575L42.3923 76.0752ZM41.4635 74.8834C41.4769 74.6056 41.6928 74.5051 41.9625 74.5051C42.2168 74.5051 42.4394 74.5926 42.4394 74.8705C42.4394 75.0724 42.1899 75.2243 41.5986 75.2243C40.5231 75.2243 40.1068 75.5397 40.1068 76.2017C40.1068 76.9786 40.8986 77.1305 41.3236 77.1305C41.625 77.1305 42.163 76.9906 42.4327 76.5877H42.4457C42.4596 76.7632 42.4731 76.9031 42.5384 77.004H43.8432C43.6677 76.8271 43.6206 76.5555 43.6206 76.2271V75.1551C43.6206 74.3969 43.2379 73.9114 41.8543 73.9114C41.0943 73.9114 40.3616 74.0936 40.2279 74.8834H41.4635ZM46.6796 75.5209C46.6796 76.0704 46.4234 76.3348 46.0681 76.3348C45.7124 76.3348 45.4629 76.0699 45.4629 75.5209C45.4629 74.9719 45.7124 74.707 46.0681 74.707C46.4234 74.707 46.6796 74.9719 46.6796 75.5209ZM46.6796 74.258C46.397 73.9873 46.0143 73.9109 45.6249 73.9109C44.448 73.9296 44.1047 74.858 44.1047 75.5575C44.1047 76.5368 44.9259 77.13 45.6585 77.13C46.1426 77.13 46.5518 76.9598 46.7542 76.6492H46.7681V77.0036H47.97V72.4965H46.6801V74.258H46.6796ZM49.5704 75.1301C49.6161 74.8008 49.8589 74.5416 50.2343 74.5416C50.605 74.5416 50.8531 74.8008 50.8939 75.1301H49.5704ZM50.8329 76.1074C50.7516 76.3286 50.5108 76.4733 50.255 76.4733C49.8247 76.4733 49.6089 76.2084 49.5704 75.7608H52.0968C52.1646 74.8959 51.6804 73.9114 50.255 73.9114C49.1522 73.9114 48.3604 74.4801 48.3604 75.5719C48.3604 76.6002 49.2469 77.1305 50.2415 77.1305C50.9949 77.1305 51.7689 76.8156 52.0299 76.1074H50.8329ZM58.0653 73.9739C58.0043 73.5325 57.6624 73.2306 57.0841 73.2306C56.4327 73.2306 55.9553 73.7532 55.9553 74.7508C55.9553 75.7483 56.4322 76.2714 57.0841 76.2714C57.7096 76.2714 58.0182 75.919 58.0793 75.3945H59.5037C59.3028 76.6891 58.2942 77.143 57.1855 77.143C55.6183 77.143 54.4486 76.3353 54.4486 74.7508C54.4486 73.1662 55.6188 72.359 57.1855 72.359C58.36 72.359 59.3499 72.9085 59.4701 73.9734H58.0653V73.9739ZM61.0436 75.5209C61.0436 74.9089 61.271 74.6056 61.6801 74.6056C62.0921 74.6056 62.3195 74.9089 62.3195 75.5209C62.3195 76.132 62.0921 76.4358 61.6801 76.4358C61.271 76.4363 61.0436 76.1324 61.0436 75.5209ZM63.6786 75.5209C63.6786 74.6176 63.0195 73.9109 61.6806 73.9109C60.3446 73.9109 59.6855 74.6176 59.6855 75.5209C59.6855 76.4223 60.3446 77.1305 61.6806 77.1305C63.0195 77.1305 63.6786 76.4223 63.6786 75.5209ZM64.1348 77.004V74.0373H65.3723V74.4657H65.3833C65.6059 74.0373 66.0761 73.9114 66.4001 73.9114C66.8434 73.9114 67.1655 74.0883 67.3607 74.4421C67.5559 74.0743 67.9861 73.9114 68.3616 73.9114C69.0481 73.9114 69.6591 74.1642 69.6591 75.1858V77.004H68.3688V75.1858C68.3688 74.8705 68.1659 74.783 67.9582 74.783C67.7496 74.783 67.5424 74.8705 67.5424 75.1858V77.004H66.2511V75.1858C66.2511 74.8705 66.0482 74.783 65.8415 74.783C65.6319 74.783 65.4237 74.8705 65.4237 75.1858V77.004H64.1348ZM70.312 77.004V74.0373H71.5476V74.4657H71.5605C71.7831 74.0373 72.2533 73.9114 72.5754 73.9114C73.0206 73.9114 73.3417 74.0883 73.5369 74.4421C73.7311 74.0743 74.1633 73.9114 74.5388 73.9114C75.2253 73.9114 75.8344 74.1642 75.8344 75.1858V77.004H74.545V75.1858C74.545 74.8705 74.3431 74.783 74.1354 74.783C73.9258 74.783 73.7177 74.8705 73.7177 75.1858V77.004H72.4273V75.1858C72.4273 74.8705 72.2254 74.783 72.0163 74.783C71.8096 74.783 71.6004 74.8705 71.6004 75.1858V77.004H70.312ZM76.4613 74.0373H77.7517V77.004H76.4613V74.0373ZM76.4613 72.497H77.7517V73.5825H76.4613V72.497ZM79.4391 76.1901C79.4588 76.3166 79.5069 76.418 79.5809 76.4863C79.6598 76.5492 79.7742 76.5877 79.9237 76.5877C80.2112 76.5877 80.4064 76.4733 80.4064 76.2339C80.4064 75.6469 78.2964 76.2339 78.2964 75.0224C78.2964 74.2262 79.0343 73.9109 80.0578 73.9109C80.7554 73.9109 81.5088 74.1133 81.5501 74.883H80.353C80.366 74.7435 80.3333 74.6426 80.2593 74.5729C80.1843 74.4969 80.078 74.4604 79.9304 74.4536C79.755 74.4536 79.493 74.5157 79.493 74.7435C79.493 75.3805 81.6236 74.7873 81.6236 76.0699C81.6236 76.9141 80.6347 77.13 79.8699 77.13C79.2314 77.13 78.2425 76.9464 78.2425 76.1897H79.4391V76.1901ZM83.1284 76.1901C83.1491 76.3166 83.1972 76.418 83.2702 76.4863C83.351 76.5492 83.4635 76.5877 83.613 76.5877C83.9015 76.5877 84.0966 76.4733 84.0966 76.2339C84.0966 75.6469 81.9866 76.2339 81.9866 75.0224C81.9866 74.2262 82.7255 73.9109 83.7471 73.9109C84.4466 73.9109 85.199 74.1133 85.2394 74.883H84.0423C84.0563 74.7435 84.0226 74.6426 83.9486 74.5729C83.8765 74.4969 83.7683 74.4604 83.6197 74.4536C83.4443 74.4536 83.1832 74.5157 83.1832 74.7435C83.1832 75.3805 85.3139 74.7873 85.3139 76.0699C85.3139 76.9141 84.326 77.13 83.5592 77.13C82.9207 77.13 81.9328 76.9464 81.9328 76.1897H83.1284V76.1901ZM85.7903 74.0373H87.0816V77.004H85.7903V74.0373ZM85.7903 72.497H87.0816V73.5825H85.7903V72.497ZM88.8604 75.5209C88.8604 74.9089 89.0897 74.6056 89.4998 74.6056C89.9094 74.6056 90.1383 74.9089 90.1383 75.5209C90.1383 76.132 89.9089 76.4358 89.4998 76.4358C89.0897 76.4363 88.8604 76.1324 88.8604 75.5209ZM91.4974 75.5209C91.4974 74.6176 90.8382 73.9109 89.5003 73.9109C88.1633 73.9109 87.5042 74.6176 87.5042 75.5209C87.5042 76.4223 88.1633 77.1305 89.5003 77.1305C90.8382 77.1305 91.4974 76.4223 91.4974 75.5209ZM91.9536 77.004V74.0373H93.2233V74.5416H93.2362C93.4261 74.0498 93.8756 73.9109 94.3386 73.9109C94.8698 73.9109 95.4549 74.2512 95.4814 74.9714V77.004H94.192V75.231C94.192 74.9209 94.0501 74.783 93.7612 74.783C93.4588 74.783 93.2439 75.0354 93.2439 75.3118V77.0045H91.9536V77.004Z" fill="#D8D8D8"/>
</svg>
