<svg width="83" height="90" viewBox="0 0 83 90" fill="none" xmlns="http://www.w3.org/2000/svg">
<rect width="81.5807" height="90" transform="translate(0.481323)" fill="white"/>
<path fill-rule="evenodd" clip-rule="evenodd" d="M68.6461 41.1129L64.5066 37.8843L67.7294 31.1347L60.2303 32.1013L58.101 27.9274L50.9882 34.7371C50.1855 35.5058 48.8956 35.1392 49.1935 33.8839L52.5365 19.7992L45.9563 22.5231L41.2715 12.8572L36.587 22.5231L30.0065 19.7992L33.3495 33.8839C33.647 35.1392 32.3575 35.5058 31.5548 34.7371L24.4427 27.9274L22.3133 32.1013L14.8139 31.1347L18.0363 37.8843L13.8962 41.1129H68.6461ZM70.1137 56.9108C68.073 62.6334 64.3609 67.5749 59.5696 71.1406L59.5345 65.6118L66.4546 56.9108H70.1137ZM50.8373 75.6598C47.813 76.6441 44.6523 77.1446 41.4718 77.1428C38.2914 77.1445 35.1306 76.644 32.1063 75.6598L35.8517 71.9948H47.0919L50.8373 75.6598ZM23.374 71.1406C18.583 67.5749 14.8713 62.6334 12.8299 56.9108H16.4891L23.4087 65.6118L23.374 71.1406ZM30.5937 64.8765L35.1332 59.9907L33.089 56.9108H18.2587L24.6767 64.8387L30.5937 64.8765ZM52.3499 64.8765L47.8098 59.9907L49.8539 56.9108H64.6843L58.2663 64.8387L52.3499 64.8765ZM36.1839 70.5836L31.6383 65.7118L36.1839 60.8408H46.7597L51.3053 65.7118L46.7597 70.5836H36.1839ZM60.9437 54.6787L62.8696 48.6078L66.0474 48.6043L65.1729 51.7907H67.7661L65.1849 43.3732H68.4788L72.062 54.6784H60.9437V54.6787ZM52.3647 46.8821H56.253C56.843 46.8821 57.3323 47.0935 57.69 47.4821C58.0491 47.8707 58.2288 48.3896 58.2288 49.0369C58.2288 49.6685 58.0577 50.1726 57.7141 50.5482C57.3718 50.9275 56.9107 51.1151 56.3341 51.1151H55.9496V48.3769H52.3644V51.1151H52.363L52.3729 54.678H56.5753C57.0513 54.6802 57.5256 54.621 57.9866 54.5021C58.4179 54.3931 58.832 54.2244 59.2167 54.0008C60.1039 53.4544 60.7736 52.76 61.2282 51.9223C61.6852 51.0845 61.912 50.1245 61.912 49.0366C61.912 48.2339 61.7831 47.489 61.5234 46.8024C61.2719 46.1292 60.8889 45.5128 60.3967 44.9892C59.9115 44.4698 59.3206 44.0604 58.6638 43.7886C58.0055 43.5161 57.1684 43.3732 56.4049 43.3732H52.364V46.8821H52.3647ZM41.0265 54.6787L42.9483 48.6078L46.1267 48.6043L45.2522 51.7907H47.8448L45.2636 43.3732H48.5575L52.1434 54.6784H41.0265V54.6787ZM34.5975 46.8821H37.3206V54.6784H40.81V45.5709C40.81 44.3071 39.8644 43.3735 38.6298 43.3735H31.1074V54.6787H34.5968L34.5975 46.8821ZM20.9096 51.1158L21.7092 48.6078L24.8877 48.6043L24.0132 51.7907H26.6057L24.0245 43.3732H27.3184L30.9016 54.6784H15.8183C15.3287 54.6784 14.8579 54.6207 14.4061 54.5025C13.9749 54.3933 13.5611 54.2246 13.1766 54.0011C12.2891 53.4548 11.6194 52.7603 11.1651 51.9226C10.7085 51.0849 10.4813 50.1248 10.4813 49.0369C10.4813 48.2343 10.6102 47.4893 10.8699 46.8028C11.1213 46.1295 11.5043 45.5131 11.9967 44.9895C12.4819 44.4702 13.0728 44.0608 13.7295 43.7889C14.3875 43.5165 15.2249 43.3735 15.9881 43.3735H18.5714V46.8821H16.141C15.5503 46.8821 15.0617 47.0935 14.7033 47.4821C14.3453 47.8707 14.1649 48.3896 14.1649 49.0369C14.1649 49.6685 14.337 50.1719 14.6799 50.5482C15.0232 50.9261 15.4833 51.1151 16.0595 51.1151H20.9096V51.1158Z" fill="#D8D8D8"/>
</svg>
