<svg width="115" height="90" viewBox="0 0 115 90" fill="none" xmlns="http://www.w3.org/2000/svg">
<rect width="114.354" height="90" transform="translate(0.0620117)" fill="white"/>
<path fill-rule="evenodd" clip-rule="evenodd" d="M44.1503 72.7427H44.7187C45.1655 72.7427 45.5347 72.9681 45.5347 73.5582C45.5347 73.9622 45.3773 74.5926 44.5265 74.5926H44.1498V72.7427H44.1503ZM43.4851 77.0598H44.1503V75.0732H44.8559L45.9669 77.143L46.6387 76.9372L45.4459 74.8942C45.9039 74.5996 46.2473 74.2027 46.2473 73.4967C46.2473 72.667 45.6376 72.2636 44.8554 72.2636H43.4846V77.0598H43.4851ZM48.7074 72.2631V75.1963C48.7074 76.4293 49.2496 77.1425 50.6002 77.1425C51.7576 77.1425 52.4229 76.3754 52.4229 75.2996V72.2631H51.8V75.286C51.8 75.9704 51.4969 76.683 50.6002 76.683C49.7428 76.683 49.3722 76.1631 49.3722 75.169V72.2631H48.7074ZM57.4203 72.661C57.1525 72.3584 56.7344 72.1814 56.2331 72.1814C55.4857 72.1814 54.8628 72.667 54.8628 73.3111C54.8628 73.9889 55.3081 74.2844 55.706 74.5926C56.0964 74.881 56.8166 75.2724 56.8166 75.8741C56.8166 76.4092 56.453 76.6639 55.9804 76.6639C55.528 76.6639 55.2194 76.443 54.9385 76.2453L54.6439 76.6422C54.9874 76.9781 55.5351 77.1425 55.994 77.1425C56.7626 77.1425 57.4813 76.6487 57.4813 75.8877C57.4813 75.2719 57.0975 74.8336 56.4398 74.353C55.8236 73.9077 55.5285 73.6545 55.5285 73.3111C55.5285 72.9419 55.7953 72.661 56.2754 72.661C56.5619 72.661 56.8716 72.8325 57.1036 73.0029L57.4203 72.661ZM62.3915 72.661C62.1247 72.3584 61.7071 72.1814 61.2053 72.1814C60.4589 72.1814 59.835 72.667 59.835 73.3111C59.835 73.9889 60.2803 74.2844 60.6783 74.5926C61.0681 74.881 61.7883 75.2724 61.7883 75.8741C61.7883 76.4092 61.4257 76.6639 60.9521 76.6639C60.5007 76.6639 60.1916 76.443 59.9112 76.2453L59.6166 76.6422C59.9586 76.9781 60.5073 77.1425 60.9652 77.1425C61.7333 77.1425 62.4535 76.6487 62.4535 75.8877C62.4535 75.2719 62.0702 74.8336 61.4126 74.353C60.7958 73.9077 60.5012 73.6545 60.5012 73.3111C60.5012 72.9419 60.768 72.661 61.2476 72.661C61.5341 72.661 61.8438 72.8325 62.0763 73.0029L62.3915 72.661ZM65.4654 77.0598V72.2631H64.8007V77.0598H65.4654ZM69.5691 72.2631L67.6158 77.0603H68.2599L68.7733 75.6486H70.6035L71.0972 77.0603H71.8653L70.0765 72.2631H69.5691ZM68.9594 75.1685C69.2206 74.5038 69.4718 73.8386 69.7199 72.9747H69.7325C69.9731 73.8386 70.2061 74.5033 70.4456 75.1685H68.9594Z" fill="#D8D8D8"/>
<path fill-rule="evenodd" clip-rule="evenodd" d="M66.6022 43.7221C73.9014 43.7221 82.6177 37.95 85.3008 25.9762C85.3008 25.9762 69.7018 26.1552 64.4941 33.0913C65.474 23.3224 58.6206 14.1133 57.3643 12.857C56.107 14.1133 49.3626 23.3224 50.3415 33.0913C45.1343 26.1552 29.5348 25.9762 29.5348 25.9762C32.2189 37.95 40.9604 43.7221 48.2586 43.7221C44.7893 42.0054 42.1542 39.8821 42.1542 39.8821L42.0493 39.2204C42.0493 39.2204 46.3775 40.8141 49.8533 42.6272C42.4553 37.1401 37.3716 32.243 37.3716 32.243L37.7655 31.7004C37.7655 31.7004 46.4763 37.4871 51.796 41.9085C48.8593 37.4371 47.49 34.4389 47.49 34.4389L48.1522 34.3345C48.1522 34.3345 51.1918 37.3882 54.003 41.4143C53.129 37.2389 52.6816 32.8709 52.6816 32.8709L53.2031 32.2814C53.2031 32.2814 54.9647 36.3952 56.2609 41.1717C56.5039 27.3606 57.0547 22.0505 57.0547 22.0505H57.7249C57.7249 22.0505 58.2767 27.3606 58.5187 41.1717C59.8159 36.3952 61.576 32.2814 61.576 32.2814L62.098 32.8709C62.098 32.8709 61.6517 37.2389 60.7771 41.4143C63.5873 37.3882 66.6264 34.3345 66.6264 34.3345L67.2891 34.4389C67.2891 34.4389 65.9208 37.4371 62.9846 41.9085C68.3028 37.4871 77.0151 31.7004 77.0151 31.7004L77.409 32.243C77.409 32.243 72.3243 37.1396 64.9268 42.6272C68.4031 40.8136 72.7303 39.2204 72.7303 39.2204L72.6249 39.8821C72.6259 39.8821 70.0725 42.0054 66.6022 43.7221Z" fill="#D8D8D8"/>
<path fill-rule="evenodd" clip-rule="evenodd" d="M40.5348 61.0165L40.4718 59.5035H34.4178L34.3552 61.0165C34.3855 61.0285 34.4175 61.0354 34.4501 61.0371C34.618 61.0371 34.7335 60.8067 34.849 60.6059C35.0906 60.1863 35.3634 60.0915 35.8365 60.0915H36.6141V66.5021C36.8912 66.4509 37.1726 66.4264 37.4544 66.4289C37.6758 66.4289 38.0222 66.4496 38.2643 66.5021V60.0915H39.042C39.5675 60.0915 39.8096 60.1979 40.0623 60.6392C40.1667 60.8273 40.2821 61.0276 40.4395 61.0276C40.4718 61.0271 40.502 61.027 40.5348 61.0165ZM45.62 63.6022C45.62 64.5054 45.3986 66.0618 44.2003 66.0618C42.8563 66.0618 42.6248 64.7056 42.6248 63.6445C42.6248 62.6666 42.8447 61.1849 44.106 61.1849C45.3577 61.1849 45.62 62.6238 45.62 63.6022ZM47.2702 63.6541C47.2702 61.7735 46.0598 60.6175 44.1897 60.6175C42.477 60.6175 40.9746 61.7099 40.9746 63.529C40.9746 65.4616 42.183 66.6387 44.0853 66.6387C45.8727 66.6387 47.2702 65.504 47.2702 63.6541ZM52.2706 64.8216C52.2706 65.6306 51.8717 65.9771 51.094 65.9771C50.6527 65.9771 50.4631 65.9347 50.4631 65.5781V63.7489H50.6734C50.9578 63.7489 51.2932 63.7706 51.4405 63.8014C51.9458 63.9063 52.2706 64.2639 52.2706 64.8216ZM51.9352 62.1315C51.9352 62.9617 51.5045 63.2032 50.7268 63.2032C50.6315 63.2032 50.5478 63.2032 50.4631 63.1926V61.4366C50.4631 61.2797 50.5261 61.259 50.7899 61.259C51.3255 61.2585 51.9352 61.3957 51.9352 62.1315ZM53.9107 64.926C53.9107 63.928 52.9232 63.3717 52.0406 63.2976C52.7548 63.2345 53.4487 62.7619 53.4487 61.9838C53.4487 61.311 52.8385 60.9751 52.2403 60.8591C51.7562 60.7643 51.3784 60.7643 50.7682 60.7643H48.2778C48.2778 60.964 48.5507 61.0689 48.6777 61.2066C48.9082 61.4482 48.9193 61.8153 48.9193 62.1416V66.5021H51.3351C52.1344 66.5021 52.6181 66.4496 53.0594 66.2292C53.5334 65.9977 53.9107 65.567 53.9107 64.926ZM58.1688 64.2326H56.3617L57.3179 61.9939L58.1688 64.2326ZM60.6803 66.5021L58.6524 61.4482C58.4739 60.9968 58.3579 60.7648 57.9176 60.7648H56.2256C56.2256 61.081 56.7829 61.0069 56.7829 61.4482C56.7829 61.6166 56.6669 61.9 56.5932 62.0796L54.6808 66.5026H55.3954L56.0995 64.8534H58.3907L59.0312 66.5026C59.2939 66.4501 59.5789 66.4395 59.831 66.4395C60.113 66.439 60.3969 66.4607 60.6803 66.5021ZM66.5432 62.3519L66.4801 61.0487C66.0388 60.786 65.419 60.6589 64.8411 60.6589C63.1173 60.6589 61.573 61.7946 61.573 63.6228C61.573 65.5358 63.0129 66.5964 64.8204 66.5964C65.356 66.5964 66.1443 66.4602 66.5119 66.091V65.2508C66.1443 65.6518 65.6924 65.9549 65.0942 65.9549C63.7487 65.9549 63.2217 64.7157 63.2217 63.5386C63.2217 62.4659 63.7583 61.2162 64.9561 61.2162C65.2612 61.2162 65.5133 61.2792 65.7136 61.4361C65.881 61.5642 65.9854 61.7629 66.1125 62.0882C66.1755 62.2783 66.3016 62.3827 66.4383 62.3827C66.4801 62.3827 66.5119 62.3726 66.5432 62.3519ZM72.8791 62.3519L72.815 61.0487C72.3748 60.786 71.7539 60.6589 71.177 60.6589C69.4522 60.6589 67.9089 61.7946 67.9089 63.6228C67.9089 65.5358 69.3473 66.5964 71.1548 66.5964C71.6914 66.5964 72.4807 66.4602 72.8478 66.091V65.2508C72.4802 65.6518 72.0273 65.9549 71.4296 65.9549C70.0841 65.9549 69.5581 64.7157 69.5581 63.5386C69.5581 62.4659 70.0947 61.2162 71.2925 61.2162C71.5976 61.2162 71.8498 61.2792 72.049 61.4361C72.2174 61.5642 72.3228 61.7629 72.4469 62.0882C72.5119 62.2783 72.637 62.3827 72.7737 62.3827C72.815 62.3827 72.8473 62.3726 72.8791 62.3519ZM78.8887 63.6022C78.8887 64.5054 78.6678 66.0618 77.4705 66.0618C76.125 66.0618 75.8935 64.7056 75.8935 63.6445C75.8935 62.6666 76.1144 61.1849 77.3757 61.1849C78.6254 61.1849 78.8887 62.6238 78.8887 63.6022ZM80.5374 63.6541C80.5374 61.7735 79.3295 60.6175 77.4589 60.6175C75.7452 60.6175 74.2428 61.7099 74.2428 63.529C74.2428 65.4616 75.4522 66.6387 77.3535 66.6387C79.1409 66.6387 80.5374 65.504 80.5374 63.6541ZM14.4861 53.7743C14.4861 54.7622 14.0135 55.256 13.1516 55.256C12.6367 55.256 12.4163 55.2035 12.4163 54.7723V52.4297H12.669C13.2046 52.4297 13.8663 52.5033 14.2238 52.9653C14.3941 53.2007 14.4859 53.4838 14.4861 53.7743ZM14.0867 50.5581C14.0867 51.5048 13.6252 51.8306 12.7209 51.8306C12.616 51.8306 12.5212 51.8306 12.4163 51.8089V49.5807C12.4163 49.3916 12.49 49.3503 12.7941 49.3503C13.5516 49.3508 14.0867 49.78 14.0867 50.5581ZM16.2417 53.9014C16.2417 52.6809 15.0963 52.0409 14.0867 51.9461C14.9067 51.8724 15.695 51.2627 15.695 50.3171C15.695 49.4869 15.0015 49.0769 14.3081 48.9402C13.7609 48.8243 13.3196 48.8242 12.6266 48.8242H10.0621C10.0621 49.0663 10.4091 49.2045 10.5453 49.3609C10.7873 49.6347 10.7979 50.0442 10.7979 50.4966V55.8234H13.2777C14.1916 55.8234 14.7388 55.7613 15.2537 55.4981C15.7893 55.2035 16.2417 54.6785 16.2417 53.9014ZM20.88 51.6505C20.88 52.3233 20.6173 52.8806 19.8613 52.8806C19.6091 52.8806 19.3352 52.8705 19.3352 52.5972V50.6535C19.4401 50.6222 19.6192 50.6005 19.9031 50.6005C20.176 50.6005 20.4387 50.6842 20.586 50.832C20.7862 51.0211 20.88 51.3156 20.88 51.6505ZM24.0755 55.7613C24.0755 55.7291 24.0543 55.719 24.0124 55.7089C23.9499 55.6973 23.8969 55.6872 23.8339 55.6766C23.5086 55.6035 23.1616 55.3508 22.8146 54.9831C22.4888 54.6573 22.0788 54.1429 21.6057 53.5962L21.0807 52.9865C21.6587 52.7868 22.4571 52.293 22.4571 51.4932C22.4571 51.1472 22.3209 50.832 22.1111 50.6323C21.6057 50.1592 20.8185 50.0856 20.0716 50.0856H17.1399C17.1399 50.307 17.3608 50.3171 17.5393 50.5168C17.676 50.6625 17.7915 50.9157 17.7915 51.4211V55.8234C18.0437 55.7709 18.3483 55.7613 18.5798 55.7613C18.7901 55.7613 19.0841 55.7714 19.3357 55.8234V53.3748C19.483 53.3864 19.5985 53.4172 19.7664 53.5745C20.2395 54.0476 20.8069 55.1829 21.5533 55.5929C21.984 55.8345 22.6986 55.8763 23.035 55.8763C23.2973 55.8763 23.8334 55.8546 24.0331 55.8234C24.0654 55.8133 24.0755 55.7926 24.0755 55.7613ZM26.6143 55.8234V50.253C26.6143 50.1476 26.5618 50.0856 26.4569 50.0856H24.4174C24.4174 50.2853 24.6277 50.307 24.8062 50.5168C24.9535 50.6741 25.069 50.9258 25.069 51.4624V55.8229C25.3224 55.779 25.5794 55.7582 25.8366 55.7608C26.0782 55.7613 26.404 55.781 26.6143 55.8234ZM33.1882 51.4105L33.1464 50.0856H28.0597L28.0072 51.4211C28.0279 51.4211 28.0597 51.4311 28.0809 51.4311C28.1963 51.4311 28.2801 51.3156 28.3542 51.178C28.5746 50.7684 28.7118 50.654 29.2262 50.654H29.8253V55.8234C30.0824 55.7808 30.3425 55.7601 30.603 55.7613C30.7815 55.7613 31.1598 55.781 31.3701 55.8234V50.654H31.9692C32.5366 50.654 32.6521 50.8007 32.873 51.2107C32.9361 51.3368 33.0203 51.4216 33.1146 51.4216C33.1464 51.4211 33.167 51.4211 33.1882 51.4105ZM36.1703 55.8234V50.253C36.1703 50.1476 36.1174 50.0856 36.0125 50.0856H33.9735C33.9735 50.2853 34.1843 50.307 34.3623 50.5168C34.5101 50.6741 34.6256 50.9258 34.6256 51.4624V55.8229C34.8789 55.779 35.1356 55.7583 35.3927 55.7608C35.6347 55.7613 35.96 55.781 36.1703 55.8234ZM41.8299 54.2362C41.8299 52.2925 39.2447 52.4504 39.2447 51.2102C39.2447 50.7367 39.7284 50.4961 40.1273 50.4961C40.3689 50.4961 40.5686 50.5486 40.7063 50.6222C40.9469 50.7483 41.0941 50.9692 41.1783 51.1679C41.3039 51.473 41.3987 51.5986 41.5889 51.5986C41.6224 51.5978 41.6549 51.5869 41.6822 51.5673L41.5889 50.2752C41.1264 50.076 40.6639 49.9817 40.0849 49.9817C39.571 49.9817 39.0864 50.0861 38.6985 50.2752C38.1624 50.539 37.7842 51.0327 37.7842 51.5794C37.7842 53.5438 40.3164 53.2916 40.3164 54.6271C40.3164 55.1208 39.864 55.372 39.4127 55.372C38.6138 55.372 38.0888 54.8369 37.6682 54.206V55.5102C38.2789 55.8244 38.814 55.9409 39.5181 55.9409C40.7996 55.9394 41.8299 55.3079 41.8299 54.2362ZM48.7958 55.8234V50.0856H47.2505V52.408H44.9497V50.2429C44.9497 50.1592 44.8968 50.0856 44.7919 50.0856H42.764C42.764 50.307 42.9944 50.3171 43.1841 50.5586C43.3207 50.7488 43.404 50.9803 43.404 51.4528V55.8234C43.6566 55.7709 43.929 55.7613 44.1922 55.7613C44.4439 55.7613 44.6966 55.7714 44.9487 55.8234V53.0279H47.2495V55.8234C47.5022 55.7709 47.7755 55.7613 48.0383 55.7613C48.2919 55.7613 48.5431 55.7709 48.7958 55.8234ZM57.613 53.0909H55.3964L56.5731 50.2223L57.613 53.0909ZM60.3031 55.8234L57.9706 49.6544C57.7698 49.1087 57.613 48.8242 57.1087 48.8242H55.3854C55.3854 49.2131 55.9638 49.0774 55.9638 49.6544C55.9638 49.8662 55.8377 50.2117 55.7424 50.4336L53.4835 55.8239H54.2819L55.1221 53.7541H57.8556L58.602 55.8239C58.8717 55.772 59.1459 55.7473 59.4205 55.7502C59.7163 55.747 60.0118 55.7715 60.3031 55.8234ZM68.679 55.8234L67.9008 51.6833C67.8388 51.3474 67.7758 50.9258 67.7758 50.5702C67.7758 50.4119 67.7964 50.2117 67.8812 50.0856H66.7762C66.4206 50.0856 66.3359 50.2334 66.1891 50.5486L64.897 53.333L63.5308 50.3267C63.4461 50.1285 63.3941 50.0851 63.1742 50.0851H61.4388C61.4388 50.2525 61.5962 50.3372 61.7767 50.4739C61.9225 50.5899 62.0693 50.7674 62.0693 51.0942C62.0693 51.1986 62.0385 51.3989 62.0168 51.5038L61.0495 55.8218H61.7535L62.6054 51.7766L64.3912 55.9177L66.3354 51.6919L67.1343 55.8218C67.3431 55.7795 67.6583 55.7598 67.922 55.7598C68.1757 55.7598 68.4289 55.7811 68.679 55.8234ZM74.3976 54.5938C74.368 54.5809 74.3362 54.5738 74.3038 54.5731C73.9463 54.5731 74.1561 55.2252 73.1277 55.2252H71.8356V53.0495H73.8424V52.4181H71.8356V50.6746H73.453C73.7052 50.6746 73.9584 50.7483 74.1041 50.8638L74.0728 50.0856H69.6383C69.6383 50.2954 69.8481 50.3272 70.0271 50.5168C70.1739 50.6741 70.2899 50.9157 70.2899 51.4306V55.3498C70.2899 55.7805 70.3211 55.8229 70.7725 55.8229H74.0199C74.2514 55.8229 74.2927 55.6327 74.325 55.3185L74.3976 54.5938ZM78.9548 51.6505C78.9548 52.3233 78.6925 52.8806 77.9345 52.8806C77.6833 52.8806 77.4105 52.8705 77.4105 52.5972V50.6535C77.5149 50.6222 77.6934 50.6005 77.9779 50.6005C78.2507 50.6005 78.513 50.6842 78.6608 50.832C78.8589 51.0211 78.9548 51.3156 78.9548 51.6505ZM82.1492 55.7613C82.1492 55.7291 82.1275 55.719 82.0852 55.7089C82.0221 55.6973 81.9697 55.6872 81.9076 55.6766C81.5818 55.6035 81.2349 55.3508 80.8884 54.9831C80.5631 54.6573 80.1526 54.1429 79.6805 53.5962L79.1535 52.9865C79.7325 52.7868 80.5298 52.293 80.5298 51.4932C80.5298 51.1472 80.3936 50.832 80.1838 50.6323C79.6805 50.1592 78.8907 50.0856 78.1448 50.0856H75.2126C75.2126 50.307 75.434 50.3171 75.6126 50.5168C75.7492 50.6625 75.8647 50.9157 75.8647 51.4211V55.8234C76.1169 55.7709 76.422 55.7613 76.6525 55.7613C76.8623 55.7613 77.1568 55.7714 77.41 55.8234V53.3748C77.5568 53.3864 77.6723 53.4172 77.8397 53.5745C78.3128 54.0476 78.8796 55.1829 79.6276 55.5929C80.0583 55.8345 80.7724 55.8763 81.1083 55.8763C81.372 55.8763 81.9081 55.8546 82.1068 55.8234C82.1381 55.8133 82.1492 55.7926 82.1492 55.7613ZM84.6875 55.8234V50.253C84.6875 50.1476 84.6351 50.0856 84.5302 50.0856H82.4911C82.4911 50.2853 82.702 50.307 82.88 50.5168C83.0277 50.6741 83.1438 50.9258 83.1438 51.4624V55.8229C83.3969 55.7789 83.6535 55.7582 83.9103 55.7608C84.1514 55.7613 84.4777 55.781 84.6875 55.8234ZM91.2615 51.6732L91.1984 50.369C90.7581 50.1068 90.1383 49.9807 89.5604 49.9807C87.8355 49.9807 86.2903 51.1154 86.2903 52.9426C86.2903 54.8555 87.7301 55.9182 89.5387 55.9182C90.0743 55.9182 90.8625 55.7805 91.2302 55.4128V54.5726C90.8625 54.9715 90.4107 55.2767 89.812 55.2767C88.4665 55.2767 87.9405 54.0365 87.9405 52.8594C87.9405 51.7877 88.4771 50.5375 89.6758 50.5375C89.9805 50.5375 90.2331 50.5995 90.4324 50.7574C90.6008 50.8834 90.7052 51.0831 90.8313 51.4095C90.8933 51.5976 91.0214 51.703 91.1566 51.703C91.1938 51.7042 91.2304 51.6938 91.2615 51.6732ZM95.6744 53.5539H93.8658L94.8231 51.3156L95.6744 53.5539ZM98.1859 55.8234L96.158 50.7684C95.979 50.3171 95.8635 50.0856 95.4212 50.0856H93.7297C93.7297 50.4008 94.2854 50.3272 94.2854 50.7684C94.2854 50.9379 94.171 51.2203 94.0983 51.3999L92.1864 55.8234H92.8995L93.6036 54.1742H95.8948L96.5358 55.8234C96.798 55.7709 97.0804 55.7613 97.3336 55.7613C97.6186 55.7613 97.9015 55.781 98.1859 55.8234ZM104.416 55.8234V50.0856H103.691L103.754 53.921L100.759 50.2747C100.654 50.1385 100.559 50.0856 100.381 50.0856H98.7614C98.7614 50.2853 99.0352 50.3907 99.1623 50.5279C99.3918 50.7684 99.4145 51.0635 99.4145 51.4629V55.8234H100.128L100.075 51.767L102.692 55.0038C102.849 55.2035 103.102 55.4557 103.281 55.5611C103.544 55.7185 103.87 55.8234 104.279 55.8234H104.416Z" fill="#D8D8D8"/>
</svg>
