<svg width="30" height="30" viewBox="0 0 30 30" fill="none" xmlns="http://www.w3.org/2000/svg">
<path fill-rule="evenodd" clip-rule="evenodd" d="M5 12.0934L13.6003 17.0588C13.6929 17.1122 13.79 17.1509 13.8889 17.1754V26.8055L5.61338 21.9081C5.23319 21.6831 5 21.2741 5 20.8323V12.0934ZM24.9997 11.9614V20.8323C24.9997 21.2741 24.7665 21.6831 24.3864 21.9081L16.1108 26.8055V17.091C16.131 17.0809 16.151 17.0702 16.1708 17.0588L24.9997 11.9614Z" fill="#871D22"/>
<path opacity="0.3" fill-rule="evenodd" clip-rule="evenodd" d="M5.27148 9.68338C5.37653 9.55073 5.50913 9.43861 5.66371 9.35627L14.4137 4.69584C14.781 4.50019 15.2216 4.50019 15.589 4.69584L24.339 9.35627C24.4581 9.41974 24.5642 9.50091 24.6547 9.59554L15.0613 15.1343C14.9982 15.1707 14.94 15.2124 14.887 15.2585C14.834 15.2124 14.7759 15.1707 14.7128 15.1343L5.27148 9.68338Z" fill="#871D22"/>
</svg>
