<svg width="25" height="25" viewBox="0 0 25 25" fill="none" xmlns="http://www.w3.org/2000/svg">
<path d="M11.4686 16.7648C12.017 17.204 12.7967 17.2037 13.3448 16.7641L20.0167 11.413L20.2457 11.2303C20.9974 10.6306 20.9987 9.48841 20.2482 8.88712L13.3449 3.35571C12.7967 2.91649 12.0172 2.91649 11.469 3.35571L4.5612 8.8907C3.8122 9.49084 3.81172 10.6303 4.5602 11.2311L4.78687 11.413L11.4686 16.7648Z" fill="#FAFCFE"/>
<path opacity="0.3" fill-rule="evenodd" clip-rule="evenodd" d="M13.3337 19.4704C12.7856 19.9096 12.0062 19.9097 11.458 19.4706L5.52523 14.7187C5.1138 14.3892 4.51196 14.4618 4.19071 14.8797C3.87421 15.2915 3.95106 15.8818 4.36243 16.1988L11.4892 21.6904C12.0287 22.1062 12.7805 22.1062 13.3201 21.6906L20.4435 16.2036C20.8584 15.884 20.9357 15.2887 20.6162 14.8738C20.2923 14.4532 19.6862 14.3804 19.2719 14.7123L13.3337 19.4704Z" fill="#FAFCFE"/>
</svg>
