<svg width="13" height="13" viewBox="0 0 13 13" fill="none" xmlns="http://www.w3.org/2000/svg">
<path d="M11.375 2.11249V4.06249H1.625V2.11249H0V12.8375H13V2.11249H11.375ZM4.55 10.8875H2.6V8.93749H4.55V10.8875ZM4.55 7.96249H2.6V6.01249H4.55V7.96249ZM7.475 10.8875H5.525V8.93749H7.475V10.8875ZM7.475 7.96249H5.525V6.01249H7.475V7.96249ZM10.4 10.8875H8.45V8.93749H10.4V10.8875ZM10.4 7.96249H8.45V6.01249H10.4V7.96249Z" fill="#EE333A"/>
<path d="M7.47539 0.162506H5.52539V3.08751H7.47539V0.162506Z" fill="#EE333A"/>
<path d="M4.54961 0.162506H2.59961V3.08751H4.54961V0.162506Z" fill="#EE333A"/>
<path d="M10.3992 0.162506H8.44922V3.08751H10.3992V0.162506Z" fill="#EE333A"/>
</svg>
