<svg width="20" height="26" viewBox="0 0 20 26" fill="none" xmlns="http://www.w3.org/2000/svg">
<path opacity="0.3" d="M2.32143 0.5H12.3078C12.6625 0.5 13.0057 0.625684 13.2765 0.85474L19.4687 6.09228C19.8057 6.37728 20 6.79621 20 7.23754V23.1042C20 25.3423 19.9744 25.5 17.6786 25.5H2.32143C0.0255599 25.5 0 25.3423 0 23.1042V2.89583C0 0.657656 0.0255599 0.5 2.32143 0.5Z" fill="#FAFCFE"/>
<path fill-rule="evenodd" clip-rule="evenodd" d="M9.26776 14.75L6.76776 14.75C6.07741 14.75 5.51777 14.1904 5.51777 13.5C5.51777 12.8096 6.07741 12.25 6.76776 12.25L9.26776 12.25L9.26776 9.75C9.26776 9.05964 9.82741 8.5 10.5178 8.5C11.2081 8.5 11.7678 9.05964 11.7678 9.75L11.7678 12.25H14.2678C14.9581 12.25 15.5178 12.8096 15.5178 13.5C15.5178 14.1904 14.9581 14.75 14.2678 14.75H11.7678L11.7678 17.25C11.7678 17.9404 11.2081 18.5 10.5178 18.5C9.82741 18.5 9.26776 17.9404 9.26776 17.25L9.26776 14.75Z" fill="#FAFCFE"/>
</svg>
