<svg width="40" height="23" viewBox="0 0 40 23" fill="none" xmlns="http://www.w3.org/2000/svg">
<path d="M13.2181 19.9926L7.84283 12.1904C7.68207 11.9932 7.58255 11.7532 7.55652 11.5002C7.58688 11.2475 7.6859 11.0079 7.84283 10.8074L13.2181 3.00604C14.866 0.722676 16.5524 0.572554 16.5524 0.572554H8.04493C7.4865 0.551188 6.93287 0.682885 6.44401 0.953368C5.95515 1.22385 5.5497 1.62281 5.27159 2.10703L0.723778 9.49551C0.170147 10.4709 0.00561405 10.8648 0 11.4985C0.0051822 12.1313 0.170147 12.5256 0.723778 13.5006L5.27375 20.8916C5.5518 21.3759 5.95723 21.775 6.44609 22.0455C6.93496 22.3161 7.48862 22.4479 8.04709 22.4265H16.5545C16.5545 22.4265 14.866 22.2764 13.2181 19.9926Z" fill="#FAFCFE"/>
<path d="M35.721 19.9926L30.3465 12.1904C30.186 11.9931 30.0866 11.7532 30.0607 11.5002C30.0909 11.2475 30.1898 11.008 30.3465 10.8074L35.721 3.00605C37.3689 0.722685 39.0553 0.572564 39.0553 0.572564H30.55C29.9915 0.551149 29.4379 0.682837 28.949 0.953325C28.4601 1.22381 28.0547 1.62279 27.7766 2.10703L23.2262 9.49724C22.6726 10.4726 22.5081 10.8665 22.5024 11.5002C22.5081 12.1331 22.6726 12.5273 23.2262 13.5023L27.7766 20.8925C28.0546 21.3769 28.4601 21.7759 28.9489 22.0465C29.4378 22.3171 29.9915 22.4488 30.55 22.4274H39.0553C39.0553 22.4274 37.3689 22.2764 35.721 19.9926Z" fill="#EC1C24"/>
<path d="M15.0827 19.9926L20.4575 12.1904C20.6185 11.9933 20.7181 11.7533 20.7442 11.5002C20.7138 11.2474 20.6146 11.0078 20.4575 10.8074L15.0827 3.00605C13.4339 0.722682 11.7484 0.572561 11.7484 0.572561H20.2558C20.8141 0.551162 21.3676 0.682853 21.8564 0.953348C22.3451 1.22384 22.7504 1.62282 23.0283 2.10703L27.5787 9.49723C28.1332 10.4726 28.2973 10.8665 28.3025 11.5002C28.2973 12.1331 28.1332 12.5273 27.5787 13.5023L23.027 20.8917C22.7492 21.3759 22.3439 21.775 21.8552 22.0456C21.3664 22.3161 20.8129 22.4479 20.2545 22.4265H11.7471C11.7471 22.4265 13.4339 22.2764 15.0827 19.9926Z" fill="#EC1C24"/>
</svg>
