<svg width="24" height="25" viewBox="0 0 24 25" fill="none" xmlns="http://www.w3.org/2000/svg">
<path d="M12.7071 7.20711C13.0976 6.81658 13.0976 6.18342 12.7071 5.79289C12.3166 5.40237 11.6834 5.40237 11.2929 5.79289L5.29289 11.7929C4.91431 12.1715 4.90107 12.7811 5.26285 13.1757L10.7628 19.1757C11.136 19.5828 11.7686 19.6103 12.1757 19.2372C12.5828 18.864 12.6103 18.2314 12.2372 17.8243L7.38414 12.5301L12.7071 7.20711Z" fill="#FAFCFE"/>
<path opacity="0.3" d="M19.7071 7.20711C20.0976 6.81658 20.0976 6.18342 19.7071 5.79289C19.3166 5.40237 18.6834 5.40237 18.2929 5.79289L12.2929 11.7929C11.9143 12.1715 11.9011 12.7811 12.2628 13.1757L17.7628 19.1757C18.136 19.5828 18.7686 19.6103 19.1757 19.2372C19.5828 18.864 19.6103 18.2314 19.2372 17.8243L14.3841 12.5301L19.7071 7.20711Z" fill="#FAFCFE"/>
</svg>
