<svg width="183" height="26" viewBox="0 0 183 26" fill="none" xmlns="http://www.w3.org/2000/svg">
<path d="M11.038 19L4.434 10.914V19H0.794V0.852H4.434V8.99L11.038 0.852H15.432L7.944 9.848L15.64 19H11.038ZM28.9022 19L24.9762 12.89L21.4142 19H17.3062L23.0262 9.848L17.2282 0.852H21.4142L25.3402 6.936L28.8762 0.852H32.9842L27.2902 9.978L33.0882 19H28.9022Z" fill="#EE333A"/>
<path d="M54.4038 0.852V3.79H49.5678V19H45.9278V3.79H41.0918V0.852H54.4038ZM60.6996 6.832C61.1676 6.06933 61.7743 5.47133 62.5196 5.038C63.2823 4.60467 64.149 4.388 65.1196 4.388V8.21H64.1576C63.0136 8.21 62.147 8.47867 61.5576 9.016C60.9856 9.55333 60.6996 10.4893 60.6996 11.824V19H57.0596V4.596H60.6996V6.832ZM66.6353 11.746C66.6353 10.29 66.9213 8.99867 67.4933 7.872C68.0827 6.74533 68.8713 5.87867 69.8593 5.272C70.8647 4.66533 71.9827 4.362 73.2133 4.362C74.288 4.362 75.224 4.57867 76.0213 5.012C76.836 5.44533 77.486 5.99133 77.9713 6.65V4.596H81.6373V19H77.9713V16.894C77.5033 17.57 76.8533 18.1333 76.0213 18.584C75.2067 19.0173 74.262 19.234 73.1873 19.234C71.974 19.234 70.8647 18.922 69.8593 18.298C68.8713 17.674 68.0827 16.7987 67.4933 15.672C66.9213 14.528 66.6353 13.2193 66.6353 11.746ZM77.9713 11.798C77.9713 10.914 77.798 10.16 77.4513 9.536C77.1047 8.89467 76.6367 8.40933 76.0473 8.08C75.458 7.73333 74.8253 7.56 74.1493 7.56C73.4733 7.56 72.8493 7.72467 72.2773 8.054C71.7053 8.38333 71.2373 8.86867 70.8733 9.51C70.5267 10.134 70.3533 10.8793 70.3533 11.746C70.3533 12.6127 70.5267 13.3753 70.8733 14.034C71.2373 14.6753 71.7053 15.1693 72.2773 15.516C72.8667 15.8627 73.4907 16.036 74.1493 16.036C74.8253 16.036 75.458 15.8713 76.0473 15.542C76.6367 15.1953 77.1047 14.71 77.4513 14.086C77.798 13.4447 77.9713 12.682 77.9713 11.798ZM93.1744 4.388C94.8904 4.388 96.2771 4.934 97.3344 6.026C98.3918 7.10067 98.9204 8.60867 98.9204 10.55V19H95.2804V11.044C95.2804 9.9 94.9944 9.02467 94.4224 8.418C93.8504 7.794 93.0704 7.482 92.0824 7.482C91.0771 7.482 90.2798 7.794 89.6904 8.418C89.1184 9.02467 88.8324 9.9 88.8324 11.044V19H85.1924V4.596H88.8324V6.39C89.3178 5.766 89.9331 5.28067 90.6784 4.934C91.4411 4.57 92.2731 4.388 93.1744 4.388ZM107.894 19.234C106.715 19.234 105.658 19.026 104.722 18.61C103.786 18.1767 103.041 17.596 102.486 16.868C101.949 16.14 101.654 15.334 101.602 14.45H105.268C105.337 15.0047 105.606 15.464 106.074 15.828C106.559 16.192 107.157 16.374 107.868 16.374C108.561 16.374 109.099 16.2353 109.48 15.958C109.879 15.6807 110.078 15.3253 110.078 14.892C110.078 14.424 109.835 14.0773 109.35 13.852C108.882 13.6093 108.128 13.3493 107.088 13.072C106.013 12.812 105.129 12.5433 104.436 12.266C103.76 11.9887 103.171 11.564 102.668 10.992C102.183 10.42 101.94 9.64867 101.94 8.678C101.94 7.88067 102.165 7.15267 102.616 6.494C103.084 5.83533 103.743 5.31533 104.592 4.934C105.459 4.55267 106.473 4.362 107.634 4.362C109.35 4.362 110.719 4.79533 111.742 5.662C112.765 6.51133 113.328 7.664 113.432 9.12H109.948C109.896 8.548 109.653 8.09733 109.22 7.768C108.804 7.42133 108.241 7.248 107.53 7.248C106.871 7.248 106.36 7.36933 105.996 7.612C105.649 7.85467 105.476 8.19267 105.476 8.626C105.476 9.11133 105.719 9.484 106.204 9.744C106.689 9.98667 107.443 10.238 108.466 10.498C109.506 10.758 110.364 11.0267 111.04 11.304C111.716 11.5813 112.297 12.0147 112.782 12.604C113.285 13.176 113.545 13.9387 113.562 14.892C113.562 15.724 113.328 16.4693 112.86 17.128C112.409 17.7867 111.751 18.3067 110.884 18.688C110.035 19.052 109.038 19.234 107.894 19.234ZM120.19 6.676C120.658 6.01733 121.299 5.47133 122.114 5.038C122.946 4.58733 123.891 4.362 124.948 4.362C126.179 4.362 127.288 4.66533 128.276 5.272C129.281 5.87867 130.07 6.74533 130.642 7.872C131.231 8.98133 131.526 10.2727 131.526 11.746C131.526 13.2193 131.231 14.528 130.642 15.672C130.07 16.7987 129.281 17.674 128.276 18.298C127.288 18.922 126.179 19.234 124.948 19.234C123.891 19.234 122.955 19.0173 122.14 18.584C121.343 18.1507 120.693 17.6047 120.19 16.946V25.864H116.55V4.596H120.19V6.676ZM127.808 11.746C127.808 10.8793 127.626 10.134 127.262 9.51C126.915 8.86867 126.447 8.38333 125.858 8.054C125.286 7.72467 124.662 7.56 123.986 7.56C123.327 7.56 122.703 7.73333 122.114 8.08C121.542 8.40933 121.074 8.89467 120.71 9.536C120.363 10.1773 120.19 10.9313 120.19 11.798C120.19 12.6647 120.363 13.4187 120.71 14.06C121.074 14.7013 121.542 15.1953 122.114 15.542C122.703 15.8713 123.327 16.036 123.986 16.036C124.662 16.036 125.286 15.8627 125.858 15.516C126.447 15.1693 126.915 14.6753 127.262 14.034C127.626 13.3927 127.808 12.63 127.808 11.746ZM140.567 19.234C139.18 19.234 137.932 18.9307 136.823 18.324C135.714 17.7 134.838 16.8247 134.197 15.698C133.573 14.5713 133.261 13.2713 133.261 11.798C133.261 10.3247 133.582 9.02467 134.223 7.898C134.882 6.77133 135.774 5.90467 136.901 5.298C138.028 4.674 139.284 4.362 140.671 4.362C142.058 4.362 143.314 4.674 144.441 5.298C145.568 5.90467 146.452 6.77133 147.093 7.898C147.752 9.02467 148.081 10.3247 148.081 11.798C148.081 13.2713 147.743 14.5713 147.067 15.698C146.408 16.8247 145.507 17.7 144.363 18.324C143.236 18.9307 141.971 19.234 140.567 19.234ZM140.567 16.062C141.226 16.062 141.841 15.906 142.413 15.594C143.002 15.2647 143.47 14.7793 143.817 14.138C144.164 13.4967 144.337 12.7167 144.337 11.798C144.337 10.4287 143.973 9.38 143.245 8.652C142.534 7.90667 141.659 7.534 140.619 7.534C139.579 7.534 138.704 7.90667 137.993 8.652C137.3 9.38 136.953 10.4287 136.953 11.798C136.953 13.1673 137.291 14.2247 137.967 14.97C138.66 15.698 139.527 16.062 140.567 16.062ZM154.391 6.832C154.859 6.06933 155.466 5.47133 156.211 5.038C156.974 4.60467 157.84 4.388 158.811 4.388V8.21H157.849C156.705 8.21 155.838 8.47867 155.249 9.016C154.677 9.55333 154.391 10.4893 154.391 11.824V19H150.751V4.596H154.391V6.832ZM165.501 7.586V14.554C165.501 15.0393 165.613 15.3947 165.839 15.62C166.081 15.828 166.48 15.932 167.035 15.932H168.725V19H166.437C163.369 19 161.835 17.5093 161.835 14.528V7.586H160.119V4.596H161.835V1.034H165.501V4.596H168.725V7.586H165.501ZM176.855 19.234C175.676 19.234 174.619 19.026 173.683 18.61C172.747 18.1767 172.001 17.596 171.447 16.868C170.909 16.14 170.615 15.334 170.563 14.45H174.229C174.298 15.0047 174.567 15.464 175.035 15.828C175.52 16.192 176.118 16.374 176.829 16.374C177.522 16.374 178.059 16.2353 178.441 15.958C178.839 15.6807 179.039 15.3253 179.039 14.892C179.039 14.424 178.796 14.0773 178.311 13.852C177.843 13.6093 177.089 13.3493 176.049 13.072C174.974 12.812 174.09 12.5433 173.397 12.266C172.721 11.9887 172.131 11.564 171.629 10.992C171.143 10.42 170.901 9.64867 170.901 8.678C170.901 7.88067 171.126 7.15267 171.577 6.494C172.045 5.83533 172.703 5.31533 173.553 4.934C174.419 4.55267 175.433 4.362 176.595 4.362C178.311 4.362 179.68 4.79533 180.703 5.662C181.725 6.51133 182.289 7.664 182.393 9.12H178.909C178.857 8.548 178.614 8.09733 178.181 7.768C177.765 7.42133 177.201 7.248 176.491 7.248C175.832 7.248 175.321 7.36933 174.957 7.612C174.61 7.85467 174.437 8.19267 174.437 8.626C174.437 9.11133 174.679 9.484 175.165 9.744C175.65 9.98667 176.404 10.238 177.427 10.498C178.467 10.758 179.325 11.0267 180.001 11.304C180.677 11.5813 181.257 12.0147 181.743 12.604C182.245 13.176 182.505 13.9387 182.523 14.892C182.523 15.724 182.289 16.4693 181.821 17.128C181.37 17.7867 180.711 18.3067 179.845 18.688C178.995 19.052 177.999 19.234 176.855 19.234Z" fill="#FAFCFE"/>
</svg>
