<svg width="18" height="20" viewBox="0 0 18 20" fill="none" xmlns="http://www.w3.org/2000/svg">
<path d="M16.9407 13.9325C15.7363 12.8913 14.875 10.1244 14.875 6.87436C14.875 4.41434 13.2938 2.32872 11.0938 1.56498C10.9457 0.677455 10.1794 -0.000671387 9.25002 -0.000671387C8.32066 -0.000671387 7.5544 0.677455 7.40625 1.56495C5.20625 2.32869 3.62502 4.41434 3.62502 6.87436C3.62502 10.1238 2.7644 12.89 1.55938 13.9325C0.886888 14.5144 0.5 15.3594 0.5 16.2493C0.5 17.285 1.33937 18.1244 2.37499 18.1244H7.375C7.375 19.16 8.21437 19.9993 9.24999 19.9993C10.2856 19.9993 11.125 19.16 11.125 18.1244H16.125C17.1606 18.1244 18 17.285 18 16.2493C18 15.36 17.6138 14.5144 16.9407 13.9325ZM2.37499 16.2493C2.37499 15.9044 2.525 15.5763 2.78561 15.3506C4.45998 13.9031 5.49998 10.655 5.49998 6.87433C5.49998 4.80621 7.18187 3.12432 9.24999 3.12432C11.3181 3.12432 13 4.80621 13 6.87433C13 10.655 14.04 13.9031 15.7144 15.3506C15.9757 15.5768 16.125 15.9043 16.125 16.2493H2.37499Z" fill="#A28C91"/>
</svg>
