<svg width="25" height="24" viewBox="0 0 25 24" fill="none" xmlns="http://www.w3.org/2000/svg">
<path d="M17.5012 9.49995C17.5012 5.35784 14.1428 1.99933 10.0006 1.99933C5.85851 1.99933 2.5 5.35784 2.5 9.49995C2.5 13.6421 5.85851 17.0004 10.0006 17.0004C14.1428 17.0004 17.5012 13.6421 17.5012 9.49995ZM10.0006 15.1252C6.89856 15.1252 4.37521 12.6021 4.37521 9.5C4.37521 6.39793 6.89856 3.87458 10.0006 3.87458C13.1026 3.87458 15.6262 6.39793 15.6262 9.5C15.6262 12.6021 13.1026 15.1252 10.0006 15.1252Z" fill="#A28C91"/>
<path d="M21.9495 18.7998L17.3609 14.2108C16.6771 15.2741 15.7723 16.1785 14.709 16.8623L19.298 21.4513C20.0306 22.1837 21.2185 22.1837 21.9495 21.4513C22.6821 20.7201 22.6821 19.5322 21.9495 18.7998Z" fill="#A28C91"/>
</svg>
