<svg width="91" height="23" viewBox="0 0 91 23" fill="none" xmlns="http://www.w3.org/2000/svg">
<path d="M6.112 21.8711V9.71109C6.112 9.15643 6.112 8.59109 6.112 8.01509C6.13333 7.41776 6.144 6.80976 6.144 6.19109C5.44 6.85243 4.65067 7.41776 3.776 7.88709C2.92267 8.35643 2.03733 8.67643 1.12 8.84709L0.608 4.30309C1.33333 4.21776 2.12267 3.99376 2.976 3.63109C3.85067 3.26843 4.66133 2.83109 5.408 2.31909C6.15467 1.78576 6.69867 1.26309 7.04 0.751093H11.424V21.8711H6.112ZM23.4453 22.1911C20.5653 22.1911 18.3786 21.2738 16.8852 19.4391C15.4132 17.6044 14.6772 14.8951 14.6772 11.3111C14.6772 7.72709 15.4132 5.01776 16.8852 3.18309C18.3786 1.34843 20.5653 0.431093 23.4453 0.431093C26.3253 0.431093 28.5013 1.34843 29.9733 3.18309C31.4666 5.01776 32.2133 7.72709 32.2133 11.3111C32.2133 14.8951 31.4666 17.6044 29.9733 19.4391C28.5013 21.2738 26.3253 22.1911 23.4453 22.1911ZM23.4453 17.9031C24.6186 17.9031 25.4612 17.4018 25.9733 16.3991C26.5066 15.3751 26.7733 13.6791 26.7733 11.3111C26.7733 8.94309 26.5066 7.25776 25.9733 6.25509C25.4612 5.23109 24.6186 4.71909 23.4453 4.71909C22.2719 4.71909 21.4186 5.23109 20.8853 6.25509C20.3733 7.25776 20.1172 8.94309 20.1172 11.3111C20.1172 13.6791 20.3733 15.3751 20.8853 16.3991C21.4186 17.4018 22.2719 17.9031 23.4453 17.9031ZM43.399 22.1911C40.519 22.1911 38.3323 21.2738 36.839 19.4391C35.367 17.6044 34.631 14.8951 34.631 11.3111C34.631 7.72709 35.367 5.01776 36.839 3.18309C38.3323 1.34843 40.519 0.431093 43.399 0.431093C46.279 0.431093 48.455 1.34843 49.927 3.18309C51.4203 5.01776 52.167 7.72709 52.167 11.3111C52.167 14.8951 51.4203 17.6044 49.927 19.4391C48.455 21.2738 46.279 22.1911 43.399 22.1911ZM43.399 17.9031C44.5723 17.9031 45.415 17.4018 45.927 16.3991C46.4603 15.3751 46.727 13.6791 46.727 11.3111C46.727 8.94309 46.4603 7.25776 45.927 6.25509C45.415 5.23109 44.5723 4.71909 43.399 4.71909C42.2257 4.71909 41.3723 5.23109 40.839 6.25509C40.327 7.25776 40.071 8.94309 40.071 11.3111C40.071 13.6791 40.327 15.3751 40.839 16.3991C41.3723 17.4018 42.2257 17.9031 43.399 17.9031ZM63.3528 22.1911C60.4728 22.1911 58.2861 21.2738 56.7928 19.4391C55.3208 17.6044 54.5848 14.8951 54.5848 11.3111C54.5848 7.72709 55.3208 5.01776 56.7928 3.18309C58.2861 1.34843 60.4728 0.431093 63.3528 0.431093C66.2328 0.431093 68.4088 1.34843 69.8808 3.18309C71.3741 5.01776 72.1208 7.72709 72.1208 11.3111C72.1208 14.8951 71.3741 17.6044 69.8808 19.4391C68.4088 21.2738 66.2328 22.1911 63.3528 22.1911ZM63.3528 17.9031C64.5261 17.9031 65.3688 17.4018 65.8808 16.3991C66.4141 15.3751 66.6808 13.6791 66.6808 11.3111C66.6808 8.94309 66.4141 7.25776 65.8808 6.25509C65.3688 5.23109 64.5261 4.71909 63.3528 4.71909C62.1794 4.71909 61.3261 5.23109 60.7928 6.25509C60.2808 7.25776 60.0248 8.94309 60.0248 11.3111C60.0248 13.6791 60.2808 15.3751 60.7928 16.3991C61.3261 17.4018 62.1794 17.9031 63.3528 17.9031ZM90.6985 9.51909V13.4231H84.8425V19.9511H80.5225V13.4231H74.6345V9.51909H80.5225V3.02309H84.8425V9.51909H90.6985Z" fill="url(#paint0_linear_714_27216)"/>
<defs>
<linearGradient id="paint0_linear_714_27216" x1="3.09144" y1="28.2858" x2="26.2235" y2="-31.0632" gradientUnits="userSpaceOnUse">
<stop stop-color="#9D0208"/>
<stop offset="0.348958" stop-color="#D00000"/>
<stop offset="0.541667" stop-color="#DC2F02"/>
<stop offset="0.751379" stop-color="#E85D04"/>
<stop offset="1" stop-color="#FFBA08"/>
</linearGradient>
</defs>
</svg>
