<svg width="57" height="48" viewBox="0 0 57 48" fill="none" xmlns="http://www.w3.org/2000/svg">
<path fill-rule="evenodd" clip-rule="evenodd" d="M57 7.49675C48.4627 11.6616 44.1941 16.5553 44.1941 22.1779C47.8329 22.5944 50.842 24.0694 53.2212 26.603C55.6005 29.1367 56.7901 32.0694 56.7901 35.4013C56.7901 38.9414 55.6354 41.9262 53.3262 44.3557C51.0169 46.7853 48.1129 48 44.614 48C40.6952 48 37.3013 46.4208 34.4322 43.2625C31.5631 40.1041 30.1286 36.269 30.1286 31.757C30.1286 18.2212 37.7561 7.63561 53.0113 0L57 7.49675ZM26.8714 7.49675C18.2641 11.6616 13.9605 16.5553 13.9605 22.1779C17.6694 22.5944 20.7134 24.0694 23.0926 26.603C25.4719 29.1367 26.6615 32.0694 26.6615 35.4013C26.6615 38.9414 25.4894 41.9262 23.1451 44.3557C20.8009 46.7853 17.8793 48 14.3804 48C10.4616 48 7.08525 46.4208 4.25114 43.2625C1.41703 40.1041 0 36.269 0 31.757C0 18.2212 7.5925 7.63561 22.7777 0L26.8714 7.49675Z" fill="#EE333A"/>
</svg>
