<svg width="25" height="25" viewBox="0 0 25 25" fill="none" xmlns="http://www.w3.org/2000/svg">
<g opacity="0.6">
<path d="M19.4156 16.0332L19.4059 6.20898C19.4059 5.65234 19.0446 5.26172 18.4586 5.26172H8.6344C8.08752 5.26172 7.71643 5.68164 7.71643 6.15039C7.71643 6.61914 8.13635 7.01953 8.59534 7.01953H11.9938L16.7594 6.86328L14.943 8.45508L5.26526 18.1523C5.08948 18.3281 4.99182 18.5527 4.99182 18.7676C4.99182 19.2363 5.41174 19.6758 5.90002 19.6758C6.12463 19.6758 6.33948 19.5977 6.51526 19.4121L16.2125 9.72461L17.8239 7.89844L17.6481 12.459V16.0723C17.6481 16.5312 18.0485 16.9609 18.527 16.9609C18.9957 16.9609 19.4156 16.5605 19.4156 16.0332Z" fill="#FAFCFE"/>
</g>
</svg>
