<svg width="59" height="50" viewBox="0 0 59 50" fill="none" xmlns="http://www.w3.org/2000/svg">
<path d="M33.6006 49.1296C46.9272 49.1296 58.0049 38.052 58.0049 24.7253C58.0049 11.3748 46.9033 0.321045 33.5767 0.321045C21.1113 0.321045 10.7036 9.91528 9.36377 22.0457C10.5361 21.8303 12.2349 21.7346 13.5029 21.8782C14.8188 11.949 23.2407 4.38843 33.5767 4.38843C44.8457 4.38843 53.9375 13.4324 53.9375 24.7253C53.9375 29.989 51.9756 34.7742 48.6978 38.3391C46.353 35.5398 40.8022 32.8601 33.5767 32.8601C31.2798 32.8601 29.1743 33.1472 27.2842 33.6018C27.5713 34.7502 27.7148 35.9944 27.7148 37.2146C27.7148 40.947 26.3511 44.4163 24.0542 47.1199C26.9971 48.4119 30.2271 49.1296 33.6006 49.1296ZM33.5767 28.7927C38.1704 28.8406 41.7832 24.9167 41.7832 19.7727C41.7832 14.9397 38.1465 10.9441 33.5767 10.9441C28.9829 10.9441 25.3223 14.9397 25.3701 19.7727C25.394 24.8928 28.9829 28.7449 33.5767 28.7927ZM12.2827 49.3928C18.8623 49.3928 24.437 43.8899 24.437 37.2385C24.437 30.5632 18.958 25.0842 12.2827 25.0842C5.63135 25.0842 0.128418 30.5872 0.128418 37.2385C0.128418 43.9377 5.63135 49.3928 12.2827 49.3928ZM12.2827 39.2961C11.4453 39.2961 10.8472 38.7219 10.8232 37.9084L10.6318 31.0657C10.6079 30.0847 11.2778 29.4148 12.2827 29.4148C13.2876 29.4148 13.9575 30.0847 13.9336 31.0657L13.7422 37.9084C13.7183 38.7219 13.1201 39.2961 12.2827 39.2961ZM12.2827 44.9905C11.1821 44.9905 10.249 44.1052 10.249 42.9807C10.249 41.8801 11.1821 40.947 12.2827 40.947C13.4072 40.947 14.3164 41.8801 14.2925 42.9807C14.2925 44.1052 13.3833 44.9905 12.2827 44.9905Z" fill="#C29090"/>
</svg>
