<svg width="55" height="51" viewBox="0 0 55 51" fill="none" xmlns="http://www.w3.org/2000/svg">
<path d="M2.33105 17.2974L15.8311 3.79736C18.6436 0.984863 23.4248 2.95361 23.4248 6.98486V12.3286C27.4561 12.5161 31.3936 12.8911 34.7686 14.0161C38.0498 15.0474 40.6748 16.5474 42.5498 18.6099C44.7998 21.1411 45.9248 24.2349 45.9248 27.8911C45.9248 33.7036 42.8311 38.4849 38.0498 41.4849C34.4873 43.7349 29.9873 40.3599 31.3936 36.2349C32.7998 31.8286 32.9873 29.6724 23.4248 28.9224V33.8911C23.4248 37.9224 18.6436 39.8911 15.8311 37.0786L2.33105 23.5786C0.549805 21.8911 0.549805 18.9849 2.33105 17.2974ZM18.9248 33.8911V24.2349C31.0186 24.4224 39.3623 26.3911 35.6123 37.6411C38.4248 35.9536 41.4248 32.8599 41.4248 27.8911C41.4248 17.6724 29.3311 16.7349 18.9248 16.7349V6.89111L5.4248 20.3911L18.9248 33.8911ZM16.6748 41.8599C17.1436 41.9536 17.4248 42.4224 17.4248 42.9849V45.3286C17.4248 45.7036 17.7061 45.8911 17.9873 45.8911H49.8623C50.2373 45.8911 50.4248 45.7036 50.4248 45.3286V13.4536C50.4248 13.1724 50.2373 12.8911 49.8623 12.8911H41.7998C41.6123 12.8911 41.4248 12.8911 41.2373 12.7974C40.1123 12.1411 38.9873 11.4849 37.6748 11.0161C37.2061 10.8286 36.9248 10.4536 36.9248 9.98486V9.51611C36.9248 8.95361 37.4873 8.39111 38.0498 8.39111H50.4248C52.9561 8.39111 54.9248 10.4536 54.9248 12.8911V45.8911C54.9248 48.4224 52.9561 50.3911 50.4248 50.3911H17.4248C14.9873 50.3911 12.9248 48.4224 12.9248 45.8911V41.9536C12.9248 41.1099 13.9561 40.5474 14.7061 41.0161C15.2686 41.3911 15.9248 41.6724 16.6748 41.8599Z" fill="#C29090"/>
</svg>
