<svg width="47" height="47" viewBox="0 0 47 47" fill="none" xmlns="http://www.w3.org/2000/svg">
<path d="M2.37109 15.7722C3.87109 15.7722 4.66797 14.9519 4.66797 13.4519V8.15503C4.66797 5.88159 5.86328 4.75659 8.04297 4.75659H13.457C14.957 4.75659 15.7773 3.93628 15.7773 2.45972C15.7773 0.983154 14.957 0.162842 13.457 0.162842H7.76172C2.69922 0.162842 0.0742188 2.7644 0.0742188 7.75659V13.4519C0.0742188 14.9519 0.894531 15.7722 2.37109 15.7722ZM44.207 15.7722C45.707 15.7722 46.5039 14.9519 46.5039 13.4519V7.75659C46.5039 2.7644 43.8789 0.162842 38.8164 0.162842H33.1211C31.6211 0.162842 30.8008 0.983154 30.8008 2.45972C30.8008 3.93628 31.6211 4.75659 33.1211 4.75659H38.5352C40.6914 4.75659 41.9102 5.88159 41.9102 8.15503V13.4519C41.9102 14.9519 42.7305 15.7722 44.207 15.7722ZM14.0195 36.28H32.5352C34.2461 36.28 35.0195 35.6003 35.0195 33.8894V12.8425C35.0195 11.1316 34.2461 10.4753 32.5352 10.4753H14.0195C12.3086 10.4753 11.5352 11.1316 11.5352 12.8425V33.8894C11.5352 35.6003 12.3086 36.28 14.0195 36.28ZM15.5664 32.9285C15.1211 32.9285 14.8867 32.741 14.8867 32.2019V14.53C14.8867 14.0144 15.1211 13.8035 15.5664 13.8035H30.9883C31.4336 13.8035 31.668 14.0144 31.668 14.53V32.2019C31.668 32.741 31.4336 32.9285 30.9883 32.9285H15.5664ZM18.7305 19.7566H27.8242C28.6211 19.7566 29.1602 19.1941 29.1602 18.4207C29.1602 17.6472 28.6211 17.0847 27.8242 17.0847H18.7305C17.9336 17.0847 17.3945 17.6472 17.3945 18.4207C17.3945 19.1941 17.9336 19.7566 18.7305 19.7566ZM18.7305 24.7253H23.7227C24.4961 24.7253 25.0352 24.1628 25.0352 23.3894C25.0352 22.616 24.4961 22.0535 23.7227 22.0535H18.7305C17.9336 22.0535 17.3945 22.616 17.3945 23.3894C17.3945 24.1628 17.9336 24.7253 18.7305 24.7253ZM7.76172 46.5925H13.457C14.957 46.5925 15.7773 45.7722 15.7773 44.2957C15.7773 42.8191 14.957 41.9988 13.457 41.9988H8.04297C5.86328 41.9988 4.66797 40.8738 4.66797 38.5769V33.28C4.66797 31.78 3.84766 30.9597 2.37109 30.9597C0.871094 30.9597 0.0742188 31.78 0.0742188 33.28V38.9753C0.0742188 43.991 2.69922 46.5925 7.76172 46.5925ZM33.1211 46.5925H38.8164C43.8789 46.5925 46.5039 43.991 46.5039 38.9753V33.28C46.5039 31.78 45.6836 30.9597 44.207 30.9597C42.707 30.9597 41.9102 31.8035 41.9102 33.28V38.5769C41.9102 40.8738 40.6914 41.9988 38.5352 41.9988H33.1211C31.6211 41.9988 30.8008 42.8191 30.8008 44.2957C30.8008 45.7722 31.6211 46.5925 33.1211 46.5925Z" fill="#C29090"/>
</svg>
