<svg width="59" height="38" viewBox="0 0 59 38" fill="none" xmlns="http://www.w3.org/2000/svg">
<path d="M41.4275 13.3027H54.4475C55.1013 13.3027 55.5414 12.7806 55.5414 12.2526V11.9675C55.5414 11.4395 55.1013 10.9173 54.4475 10.9173H41.4275C40.8863 10.9173 40.3336 11.3318 40.3336 11.9675V12.2526C40.3336 12.7806 40.7737 13.3027 41.4275 13.3027Z" fill="#C29090" stroke="#C29090" stroke-width="0.2"/>
<path d="M35.4641 18.1484H48.4841C49.1379 18.1484 49.578 17.6263 49.578 17.0983V16.8132C49.578 16.2852 49.1379 15.763 48.4841 15.763H35.4641C34.923 15.763 34.3702 16.1775 34.3702 16.8132V17.0983C34.3702 17.6263 34.8103 18.1484 35.4641 18.1484Z" fill="#C29090" stroke="#C29090" stroke-width="0.2"/>
<path d="M43.9109 22.9004H56.9309C57.2504 22.9004 57.5251 22.7982 57.7205 22.6114C57.9164 22.4241 58.0248 22.1594 58.0248 21.8502V21.5652C58.0248 21.0371 57.5847 20.515 56.9309 20.515H43.9109C43.3697 20.515 42.817 20.9294 42.817 21.5652V21.8502C42.817 22.3782 43.2571 22.9004 43.9109 22.9004Z" fill="#C29090" stroke="#C29090" stroke-width="0.2"/>
<path d="M11.2119 0.375732V0.275732H11.1119H4.45282C2.91104 0.275732 1.56992 1.55153 1.56992 3.0362V9.40233V9.50233H1.66992H11.1119H11.2119V9.40233V0.375732Z" fill="#C29090" stroke="#C29090" stroke-width="0.2"/>
<path d="M1.6709 12.2484H1.5709V12.3484V18.7145C1.5709 20.1969 2.81026 21.475 4.4538 21.475H11.1129H11.2129V21.375V12.3484V12.2484H11.1129H1.6709Z" fill="#C29090" stroke="#C29090" stroke-width="0.2"/>
<path d="M23.6378 9.50233H23.7378V9.40233V3.0362C23.7378 1.55382 22.4985 0.275732 20.8549 0.275732H14.1959H14.0959V0.375732V9.40233V9.50233H14.1959H23.6378Z" fill="#C29090" stroke="#C29090" stroke-width="0.2"/>
<path d="M14.1978 12.2484H14.0978V12.3484V21.375V21.475H14.1978H20.8568C22.3962 21.475 23.7397 20.2965 23.7397 18.7145V12.3484V12.2484H23.6397H14.1978Z" fill="#C29090" stroke="#C29090" stroke-width="0.2"/>
<path d="M46.6315 4.37999H46.6315C47.6497 4.47784 48.5696 3.77272 48.753 2.6781C48.9375 1.5767 48.1995 0.574551 47.1822 0.373839L47.1726 0.371948H47.1628H47.0833C41.0306 -0.631663 36.8764 2.1307 33.7821 5.91844C32.2353 7.81179 30.9514 9.96317 29.8249 12.0312C29.3689 12.8682 28.9396 13.6898 28.5291 14.4755C27.923 15.6354 27.358 16.7167 26.809 17.6527L26.8089 17.653C26.0945 18.8803 25.4188 20.1984 24.8673 21.274C24.6057 21.7843 24.3721 22.2399 24.1756 22.6055C24.0922 22.7526 24.0188 22.8863 23.9513 23.0094C23.8743 23.1497 23.8049 23.2763 23.7367 23.3933C23.6103 23.61 23.4977 23.7764 23.37 23.9039C23.1226 24.1508 22.8032 24.2674 22.1574 24.2674H2.67957C1.65169 24.2674 0.824805 25.1768 0.824805 26.2714C0.824805 27.2552 1.45825 28.1646 2.39313 28.2735C2.39528 28.2741 2.39716 28.2745 2.39867 28.2749C2.4066 28.2768 2.41471 28.2781 2.42139 28.2789C2.43531 28.2808 2.45319 28.2824 2.47371 28.2838C2.51526 28.2868 2.57433 28.2895 2.64904 28.2921C2.79878 28.2974 3.01519 28.3022 3.28833 28.3067C3.8348 28.3156 4.61044 28.323 5.53864 28.329C7.39514 28.3409 9.86301 28.3468 12.3308 28.3468C14.7985 28.3468 17.2664 28.3409 19.1229 28.329C20.0511 28.323 20.8267 28.3156 21.3732 28.3067C21.6463 28.3022 21.8627 28.2974 22.0125 28.2921C22.0872 28.2895 22.1463 28.2868 22.1878 28.2838C22.2083 28.2824 22.2262 28.2808 22.2401 28.2789C22.2462 28.2781 22.2534 28.277 22.2606 28.2754C23.5846 28.2732 24.5678 27.9836 25.3866 27.3751C26.2054 26.7666 26.8499 25.8462 27.51 24.6047L27.5101 24.6048L27.5115 24.6019C27.586 24.4503 27.6645 24.2901 27.7464 24.1228C28.4371 22.7129 29.3766 20.7952 30.3158 19.1817L30.3158 19.1817L30.3175 19.1786C30.7351 18.4001 31.1558 17.5698 31.5892 16.7143C32.9375 14.0529 34.409 11.1483 36.2954 8.80525C38.7824 5.71613 41.974 3.62496 46.5323 4.37865L46.5404 4.37999H46.5486H46.5492H46.5497H46.5502H46.5507H46.5512H46.5517H46.5522H46.5527H46.5532H46.5537H46.5542H46.5547H46.5552H46.5556H46.5561H46.5566H46.5571H46.5576H46.5581H46.5585H46.559H46.5595H46.5599H46.5604H46.5609H46.5613H46.5618H46.5623H46.5627H46.5632H46.5636H46.5641H46.5645H46.565H46.5654H46.5659H46.5663H46.5668H46.5672H46.5676H46.5681H46.5685H46.5689H46.5694H46.5698H46.5702H46.5707H46.5711H46.5715H46.5719H46.5723H46.5728H46.5732H46.5736H46.574H46.5744H46.5748H46.5752H46.5756H46.576H46.5764H46.5768H46.5772H46.5776H46.578H46.5784H46.5788H46.5792H46.5795H46.5799H46.5803H46.5807H46.5811H46.5815H46.5818H46.5822H46.5826H46.5829H46.5833H46.5837H46.584H46.5844H46.5848H46.5851H46.5855H46.5858H46.5862H46.5866H46.5869H46.5873H46.5876H46.5879H46.5883H46.5886H46.589H46.5893H46.5897H46.59H46.5903H46.5907H46.591H46.5913H46.5917H46.592H46.5923H46.5926H46.593H46.5933H46.5936H46.5939H46.5942H46.5945H46.5949H46.5952H46.5955H46.5958H46.5961H46.5964H46.5967H46.597H46.5973H46.5976H46.5979H46.5982H46.5985H46.5988H46.5991H46.5994H46.5997H46.5999H46.6002H46.6005H46.6008H46.6011H46.6014H46.6016H46.6019H46.6022H46.6025H46.6027H46.603H46.6033H46.6035H46.6038H46.6041H46.6043H46.6046H46.6049H46.6051H46.6054H46.6056H46.6059H46.6061H46.6064H46.6066H46.6069H46.6071H46.6074H46.6076H46.6079H46.6081H46.6084H46.6086H46.6088H46.6091H46.6093H46.6095H46.6098H46.61H46.6102H46.6105H46.6107H46.6109H46.6111H46.6114H46.6116H46.6118H46.612H46.6122H46.6125H46.6127H46.6129H46.6131H46.6133H46.6135H46.6137H46.6139H46.6141H46.6143H46.6146H46.6148H46.615H46.6152H46.6154H46.6156H46.6157H46.6159H46.6161H46.6163H46.6165H46.6167H46.6169H46.6171H46.6173H46.6175H46.6176H46.6178H46.618H46.6182H46.6184H46.6185H46.6187H46.6189H46.6191H46.6193H46.6194H46.6196H46.6198H46.6199H46.6201H46.6203H46.6204H46.6206H46.6208H46.6209H46.6211H46.6212H46.6214H46.6216H46.6217H46.6219H46.622H46.6222H46.6223H46.6225H46.6226H46.6228H46.6229H46.6231H46.6232H46.6234H46.6235H46.6237H46.6238H46.6239H46.6241H46.6242H46.6243H46.6245H46.6246H46.6248H46.6249H46.625H46.6252H46.6253H46.6254H46.6255H46.6257H46.6258H46.6259H46.626H46.6262H46.6263H46.6264H46.6265H46.6266H46.6268H46.6269H46.627H46.6271H46.6272H46.6273H46.6275H46.6276H46.6277H46.6278H46.6279H46.628H46.6281H46.6282H46.6283H46.6284H46.6285H46.6286H46.6287H46.6288H46.6289H46.629H46.6291H46.6292H46.6293H46.6294H46.6295H46.6296H46.6297H46.6298H46.6299H46.63H46.6301H46.6301H46.6302H46.6303H46.6304H46.6305H46.6306H46.6307H46.6307H46.6308H46.6309H46.631H46.6311H46.6311H46.6312H46.6313H46.6314H46.6315Z" fill="#C29090" stroke="#C29090" stroke-width="0.2"/>
<path d="M12.1126 34.874C12.9949 33.4782 12.5251 31.6663 11.0696 30.8254C9.61403 29.9846 7.71766 30.4296 6.83541 31.8254C5.95317 33.2212 6.42292 35.0331 7.87847 35.874C9.33402 36.7149 11.2304 36.2698 12.1126 34.874Z" fill="#C29090" stroke="#C29090" stroke-width="0.2"/>
<path d="M24.4618 34.7285C25.344 33.3327 24.8742 31.5208 23.4187 30.6799C21.9632 29.8391 20.0668 30.2841 19.1845 31.6799C18.3023 33.0757 18.772 34.8876 20.2276 35.7285C21.6831 36.5693 23.5795 36.1243 24.4618 34.7285Z" fill="#C29090" stroke="#C29090" stroke-width="0.2"/>
</svg>
