<svg width="48" height="35" viewBox="0 0 48 35" fill="none" xmlns="http://www.w3.org/2000/svg">
<path d="M7.30029 34.4585H40.6987C44.9175 34.4585 47.105 32.271 47.105 28.1108V6.99756C47.105 2.81787 44.9175 0.649902 40.6987 0.649902H7.30029C3.08154 0.649902 0.894043 2.81787 0.894043 6.99756V28.1108C0.894043 32.2905 3.08154 34.4585 7.30029 34.4585ZM4.72217 7.32959C4.72217 5.43506 5.71826 4.47803 7.53467 4.47803H40.4644C42.2612 4.47803 43.2769 5.43506 43.2769 7.32959V8.75537H4.72217V7.32959ZM7.53467 30.6304C5.71826 30.6304 4.72217 29.6733 4.72217 27.7788V13.3062H43.2769V27.7788C43.2769 29.6733 42.2612 30.6304 40.4644 30.6304H7.53467ZM10.1909 27.0757H14.9761C16.1089 27.0757 16.8901 26.314 16.8901 25.2007V21.5874C16.8901 20.4937 16.1089 19.7124 14.9761 19.7124H10.1909C9.03857 19.7124 8.25732 20.4937 8.25732 21.5874V25.2007C8.25732 26.314 9.03857 27.0757 10.1909 27.0757Z" fill="#C29090"/>
</svg>
