<svg width="56" height="56" viewBox="0 0 56 56" fill="none" xmlns="http://www.w3.org/2000/svg">
<path d="M53.7683 29.4854H43.978L50.9445 21.95C53.6258 19.6495 55.2879 16.1993 55.1722 12.3643C54.9824 6.07152 49.9111 0.911314 43.6218 0.620044C43.4285 0.610924 43.2364 0.606934 43.0449 0.606934C36.3423 0.606934 30.9119 6.04017 30.9119 12.74C30.9119 16.4239 32.5546 19.7247 35.1453 21.9506L42.1118 29.486H36.8371L36.7384 29.5356C32.887 29.7898 29.8306 33.0046 29.8306 36.9194C29.8306 40.9994 33.1503 44.3191 37.2304 44.3191H39.9076L39.8803 44.237H41.8194C43.77 44.237 45.3568 45.8239 45.3568 47.7744C45.3568 49.7244 43.77 51.3113 41.8194 51.3113H14.7701L21.2025 44.3533C23.8838 42.0528 25.5459 38.6026 25.4302 34.7676C25.2404 28.4748 20.1691 23.3146 13.8797 23.0233C13.6865 23.0142 13.4944 23.0102 13.3029 23.0102C6.60083 23.0102 1.16987 28.4435 1.16987 35.1432C1.16987 38.8271 2.81261 42.128 5.40326 44.3539L11.8357 51.3119H2.91065C1.84418 51.3107 0.979492 52.1754 0.979492 53.2419C0.979492 54.3083 1.84418 55.173 2.91065 55.173H41.82C45.9001 55.173 49.2197 51.8539 49.2197 47.7733C49.2197 43.6927 45.9006 40.3736 41.82 40.3736H36.47C34.8837 40.0253 33.6929 38.6083 33.6929 36.9188C33.6929 34.9682 35.2798 33.3814 37.2304 33.3814H37.6903L37.757 33.3477H53.7683C54.8348 33.3477 55.6995 32.483 55.6995 31.4166C55.6995 30.3501 54.8348 29.4854 53.7683 29.4854ZM8.23958 41.7307L8.0891 41.5677L7.92038 41.4229C6.08498 39.8463 5.03276 37.5572 5.03276 35.1427C5.03276 30.5827 8.74289 26.8725 13.3035 26.8725C13.4351 26.8725 13.5691 26.8754 13.7019 26.8817C17.9849 27.08 21.4408 30.5952 21.5702 34.8839C21.646 37.4021 20.5955 39.7853 18.6877 41.4224L18.5184 41.5677L18.3668 41.7313L13.3035 47.2079L8.23958 41.7307ZM37.9816 19.328L37.8306 19.165L37.6618 19.0202C35.8264 17.4436 34.7742 15.1545 34.7742 12.74C34.7742 8.17995 38.4844 4.46982 43.0449 4.46982C43.1766 4.46982 43.3105 4.47267 43.4428 4.47894C47.7258 4.6773 51.1817 8.19249 51.3111 12.4812C51.3869 14.9994 50.3364 17.382 48.4286 19.0191L48.2593 19.1644L48.1077 19.328L43.0443 24.8046L37.9816 19.328Z" fill="#C29090"/>
</svg>
