<svg width="58" height="52" viewBox="0 0 58 52" fill="none" xmlns="http://www.w3.org/2000/svg">
<path d="M53.6384 21.5545C51.7184 21.5545 50.1584 22.8175 49.6184 24.5616H40.7384V19.5097C40.7384 19.4495 40.7384 19.3894 40.7384 19.3293H45.7184C46.3784 19.3293 46.9784 18.788 46.9784 18.0663V12.5934C48.7184 12.0521 49.9784 10.4885 49.9784 8.56393C49.9784 6.21841 48.1184 4.35403 45.7784 4.35403C43.4384 4.35403 41.5784 6.21841 41.5784 8.56393C41.5784 10.4885 42.8384 12.0521 44.5784 12.5934V16.8635H40.0784C39.1784 15.3599 37.5584 14.3375 35.6984 14.3375H30.6584V8.50379C32.3984 7.96252 33.6584 6.39884 33.6584 4.47431C33.6584 2.12879 31.7984 0.264404 29.4584 0.264404C27.1184 0.264404 25.2584 2.12879 25.2584 4.47431C25.2584 6.39884 26.5184 7.96252 28.2584 8.50379V14.3375H23.2184C21.3584 14.3375 19.7384 15.3599 18.8384 16.8635H14.3384V12.5934C16.0784 12.0521 17.3384 10.4885 17.3384 8.56393C17.3384 6.21841 15.4784 4.35403 13.1384 4.35403C10.7984 4.35403 8.93838 6.21841 8.93838 8.56393C8.93838 10.4885 10.1984 12.0521 11.9384 12.5934V18.0663C11.9384 18.7278 12.4784 19.3293 13.1984 19.3293H17.9384C17.9384 19.3894 17.9384 19.4495 17.9384 19.5097V24.5616H9.05838C8.51838 22.8175 6.95838 21.5545 5.03838 21.5545C2.69838 21.5545 0.838379 23.4189 0.838379 25.7644C0.838379 28.1099 2.69838 29.9743 5.03838 29.9743C6.95838 29.9743 8.51838 28.7113 9.05838 26.9672H17.9384V32.0191C17.9384 32.0793 17.9384 32.1394 17.9384 32.1995H12.9584C12.2984 32.1995 11.6984 32.7408 11.6984 33.4625V38.9955C9.95838 39.5368 8.69838 41.1005 8.69838 43.025C8.69838 45.3705 10.5584 47.2349 12.8984 47.2349C15.2384 47.2349 17.0984 45.3705 17.0984 43.025C17.0984 41.1005 15.8384 39.5368 14.0984 38.9955V34.6654H18.5984C19.4984 36.1689 21.1184 37.1913 22.9784 37.1913H28.1384V43.025C26.3984 43.5663 25.1384 45.13 25.1384 47.0545C25.1384 49.4 26.9984 51.2644 29.3384 51.2644C31.6784 51.2644 33.5384 49.4 33.5384 47.0545C33.5384 45.13 32.2784 43.5663 30.5384 43.025V37.1913H35.5784C37.4384 37.1913 39.0584 36.1689 39.9584 34.6654H44.4584V38.9955C42.7184 39.5368 41.4584 41.1005 41.4584 43.025C41.4584 45.3705 43.3184 47.2349 45.6584 47.2349C47.9984 47.2349 49.8584 45.3705 49.8584 43.025C49.8584 41.1005 48.5984 39.5368 46.8584 38.9955V33.4625C46.8584 32.801 46.3184 32.1995 45.5984 32.1995H40.7384C40.7384 32.1394 40.7384 32.0793 40.7384 32.0191V26.9672H49.6184C50.1584 28.7113 51.7184 29.9743 53.6384 29.9743C55.9784 29.9743 57.8384 28.1099 57.8384 25.7644C57.8384 23.4189 55.9784 21.5545 53.6384 21.5545ZM43.9784 8.56393C43.9784 7.60167 44.7584 6.81983 45.7184 6.81983C46.6784 6.81983 47.4584 7.60167 47.4584 8.56393C47.4584 9.5262 46.6784 10.308 45.7184 10.308C44.7584 10.308 43.9784 9.5262 43.9784 8.56393ZM11.2184 8.56393C11.2184 7.60167 11.9984 6.81983 12.9584 6.81983C13.9184 6.81983 14.6984 7.60167 14.6984 8.56393C14.6984 9.5262 13.9184 10.308 12.9584 10.308C11.9984 10.308 11.2184 9.5262 11.2184 8.56393ZM5.03838 27.5085C4.07838 27.5085 3.29838 26.7267 3.29838 25.7644C3.29838 24.8021 4.07838 24.0203 5.03838 24.0203C5.99838 24.0203 6.77838 24.8021 6.77838 25.7644C6.77838 26.7267 5.99838 27.5085 5.03838 27.5085ZM14.6984 43.025C14.6984 43.9873 13.9184 44.7691 12.9584 44.7691C11.9984 44.7691 11.2184 43.9873 11.2184 43.025C11.2184 42.0628 11.9984 41.2809 12.9584 41.2809C13.9184 41.2809 14.6984 42.0628 14.6984 43.025ZM27.5984 4.47431C27.5984 3.51205 28.3784 2.73021 29.3384 2.73021C30.2984 2.73021 31.0784 3.51205 31.0784 4.47431C31.0784 5.43657 30.2984 6.21841 29.3384 6.21841C28.3784 6.21841 27.5984 5.43657 27.5984 4.47431ZM31.0784 47.0545C31.0784 48.0168 30.2984 48.7986 29.3384 48.7986C28.3784 48.7986 27.5984 48.0168 27.5984 47.0545C27.5984 46.0922 28.3784 45.3104 29.3384 45.3104C30.2984 45.3104 31.0784 46.0922 31.0784 47.0545ZM34.6784 23.8399L29.1584 29.6736C28.8584 29.9743 28.4984 30.1547 28.0784 30.1547C27.6584 30.1547 27.2984 29.9743 26.9984 29.6736L23.9984 26.4861C23.4584 25.8847 23.4584 24.9826 24.0584 24.3812C24.6584 23.8399 25.5584 23.8399 26.1584 24.4413L28.0784 26.4861L32.5184 21.7951C33.0584 21.1937 34.0184 21.1937 34.6184 21.7349C35.2184 22.3363 35.2184 23.2986 34.6784 23.8399ZM47.4584 43.025C47.4584 43.9873 46.6784 44.7691 45.7184 44.7691C44.7584 44.7691 43.9784 43.9873 43.9784 43.025C43.9784 42.0628 44.7584 41.2809 45.7184 41.2809C46.6784 41.2809 47.4584 42.0628 47.4584 43.025ZM53.6384 27.5085C52.6784 27.5085 51.8984 26.7267 51.8984 25.7644C51.8984 24.8021 52.6784 24.0203 53.6384 24.0203C54.5984 24.0203 55.3784 24.8021 55.3784 25.7644C55.3784 26.7267 54.5984 27.5085 53.6384 27.5085Z" fill="#C29090"/>
</svg>
