<svg width="44" height="49" viewBox="0 0 44 49" fill="none" xmlns="http://www.w3.org/2000/svg">
<g opacity="0.5">
<path d="M21.8711 13.4766C21.2617 13.4766 20.8281 13.8984 20.8281 14.5078V29.9414L20.9219 32.4492L17.4062 28.5938L14.7344 25.9688C14.5586 25.7812 14.2773 25.6875 13.9961 25.6875C13.4102 25.6875 12.9883 26.1328 12.9883 26.707C12.9883 26.9883 13.0938 27.2344 13.3164 27.4688L21.0859 35.2617C21.3086 35.4961 21.5781 35.6133 21.8711 35.6133C22.1641 35.6133 22.4336 35.4961 22.6562 35.2617L30.4375 27.4688C30.6602 27.2344 30.7539 26.9883 30.7539 26.707C30.7539 26.1328 30.332 25.6875 29.7461 25.6875C29.4648 25.6875 29.1953 25.7812 29.0078 25.9688L26.3359 28.5938L22.832 32.4375L22.9141 29.9414V14.5078C22.9141 13.8984 22.4805 13.4766 21.8711 13.4766Z" fill="#A28C91"/>
</g>
</svg>
