<svg width="19" height="23" viewBox="0 0 19 23" fill="none" xmlns="http://www.w3.org/2000/svg">
<path d="M9.87109 22.5234C9.26172 22.5234 8.82812 22.1016 8.82812 21.4922V6.05859L8.92188 3.55078L5.40625 7.40625L2.73438 10.0312C2.55859 10.2188 2.27734 10.3125 1.99609 10.3125C1.41016 10.3125 0.988281 9.86719 0.988281 9.29297C0.988281 9.01172 1.09375 8.76562 1.31641 8.53125L9.08594 0.738281C9.30859 0.503906 9.57812 0.386719 9.87109 0.386719C10.1641 0.386719 10.4336 0.503906 10.6562 0.738281L18.4375 8.53125C18.6602 8.76562 18.7539 9.01172 18.7539 9.29297C18.7539 9.86719 18.332 10.3125 17.7461 10.3125C17.4648 10.3125 17.1953 10.2188 17.0078 10.0312L14.3359 7.40625L10.832 3.5625L10.9141 6.05859V21.4922C10.9141 22.1016 10.4805 22.5234 9.87109 22.5234Z" fill="#EE333A"/>
</svg>
