<svg width="37" height="38" viewBox="0 0 37 38" fill="none" xmlns="http://www.w3.org/2000/svg">
<path d="M19.8066 25.6294C20.3877 25.6294 20.7114 25.2144 20.7114 24.5752V22.417H21.1099C23.5835 22.417 24.9116 21.0557 24.9116 18.6152V12.2568C24.9116 9.81641 23.5835 8.45508 21.1099 8.45508H10.4185C7.94482 8.45508 6.6167 9.82471 6.6167 12.2568V18.6152C6.6167 21.0474 7.94482 22.417 10.4185 22.417H15.7476L18.6113 24.9653C19.1177 25.4136 19.3999 25.6294 19.8066 25.6294ZM19.4663 24.1104L16.8101 21.4707C16.4946 21.147 16.2622 21.0806 15.7974 21.0806H10.4185C8.75 21.0806 7.95312 20.2256 7.95312 18.6069V12.2568C7.95312 10.6382 8.75 9.7915 10.4185 9.7915H21.1099C22.7866 9.7915 23.5752 10.6382 23.5752 12.2568V18.6069C23.5752 20.2256 22.7866 21.0806 21.1099 21.0806H20.0889C19.6406 21.0806 19.4663 21.2549 19.4663 21.7031V24.1104Z" fill="#EE333A"/>
<rect x="12.5" y="13.5" width="13" height="10" rx="3" fill="#F8EEEE"/>
<path d="M16.5474 30.6792C16.8711 30.6792 17.1118 30.5132 17.502 30.1479L20.4985 27.4087L26.1099 27.417C28.5835 27.4253 29.9116 26.0474 29.9116 23.6152V17.2568C29.9116 14.8247 28.5835 13.4551 26.1099 13.4551H15.4185C12.9448 13.4551 11.6167 14.8164 11.6167 17.2568V23.6152C11.6167 26.0557 12.9448 27.4087 15.4185 27.4087H15.8086V29.8242C15.8086 30.3389 16.0742 30.6792 16.5474 30.6792ZM16.3564 18.0703C16.0825 18.0703 15.8584 17.8545 15.8584 17.5723C15.8584 17.3066 16.0825 17.0825 16.3564 17.0825H25.0723C25.3462 17.0825 25.562 17.3066 25.562 17.5723C25.562 17.8545 25.3462 18.0703 25.0723 18.0703H16.3564ZM16.3564 20.8594C16.0825 20.8594 15.8584 20.6353 15.8584 20.353C15.8584 20.0874 16.0825 19.8633 16.3564 19.8633H25.0723C25.3462 19.8633 25.562 20.0874 25.562 20.353C25.562 20.6353 25.3462 20.8594 25.0723 20.8594H16.3564ZM16.3564 23.6401C16.0825 23.6401 15.8584 23.4243 15.8584 23.1504C15.8584 22.8682 16.0825 22.644 16.3564 22.644H22.0259C22.2998 22.644 22.5156 22.8682 22.5156 23.1504C22.5156 23.4243 22.2998 23.6401 22.0259 23.6401H16.3564Z" fill="#EE333A"/>
</svg>
