<svg width="36" height="40" viewBox="0 0 36 40" fill="none" xmlns="http://www.w3.org/2000/svg">
<path d="M18 19.6367C17.3164 19.6367 16.8281 20.1738 16.8281 20.8086C16.877 24.373 16.3887 27.7422 15.4609 31.1602C15.3145 31.6484 15.5586 32.625 16.584 32.625C17.1211 32.625 17.5605 32.332 17.707 31.7949C18.3906 29.4512 19.2207 25.6914 19.1719 20.8086C19.1719 20.1738 18.6348 19.6367 18 19.6367ZM17.9512 15.6816C14.9727 15.6816 12.873 17.9766 12.9219 20.6133C12.9219 22.957 12.7266 25.3008 12.2383 27.5469C12.1406 28.1816 12.5312 28.8164 13.166 28.9629C13.8008 29.0605 14.4355 28.6699 14.5332 28.0352C15.0703 25.5938 15.2656 23.1035 15.2656 20.5645C15.2168 19.2949 16.2422 18.0254 17.9023 18.0254C19.416 18.0254 20.6855 19.2461 20.7344 20.7109C20.7344 23.0547 20.5879 25.4473 20.1973 27.7422C20.0996 28.377 20.5391 28.9629 21.1738 29.0605C22.1504 29.2559 22.4922 28.3281 22.4922 28.1328C22.9316 25.6914 23.0781 23.1523 23.0781 20.6621C23.0293 17.9766 20.7344 15.7305 17.9512 15.6816ZM12.5312 14.7051C12.043 14.3145 11.3105 14.3633 10.8711 14.8516C9.65039 16.4141 8.9668 18.3672 9.01562 20.3203C9.01562 22.1758 8.86914 24.0312 8.52734 25.7891C8.42969 26.4727 8.86914 27.0586 9.50391 27.1562C10.4805 27.3516 10.8223 26.4727 10.8711 26.2285C11.2129 24.2754 11.3594 22.2734 11.3594 20.3203C11.3105 18.8555 11.7988 17.4883 12.7266 16.3652C13.1172 15.8281 13.0195 15.0957 12.5312 14.7051ZM17.9023 11.6777C17.1211 11.6289 16.3887 11.7266 15.6562 11.9219C15.0215 12.0684 14.6309 12.7031 14.7773 13.2891C14.9238 13.9238 15.5586 14.3145 16.1934 14.168C16.7305 14.0703 17.2676 14.0215 17.8535 14.0215C21.5156 14.0703 24.5918 17 24.6406 20.5645C24.6406 22.4199 24.543 24.2754 24.3477 26.1309C24.2988 26.7656 24.7383 27.3516 25.373 27.4004C26.2031 27.498 26.6426 26.8633 26.6914 26.375C26.8867 24.666 26.9844 22.957 26.9844 21.1992C26.9844 20.9551 26.9844 20.7598 26.9844 20.5156C26.8867 15.7305 22.834 11.7266 17.9023 11.6777ZM30.207 17.5859C30.0605 16.9512 29.4258 16.5605 28.791 16.707C28.1562 16.8535 27.7656 17.4395 27.9121 18.0742C28.1074 19.1484 28.1562 19.9297 28.1074 21.1016C28.1074 21.7363 28.6445 22.2734 29.2793 22.2734C29.9629 22.2734 30.4512 21.7852 30.4512 21.1016C30.5 20.0273 30.5 18.9531 30.207 17.5859ZM28.2051 13.1426C25.8613 9.77344 21.9551 7.72266 17.8047 7.67383C14.4355 7.625 11.2617 8.8457 8.91797 11.1895C6.67188 13.4844 5.45117 16.5117 5.5 19.6855V20.7598C5.45117 21.3945 5.98828 21.9316 6.62305 21.9316C6.62305 21.9316 6.62305 21.9316 6.67188 21.9316C7.25781 21.9316 7.79492 21.4434 7.79492 20.8086L7.84375 19.6367C7.79492 17.0977 8.77148 14.7051 10.5781 12.8496C12.4824 10.9941 15.0215 9.96875 17.8047 10.0176C21.1738 10.0664 24.3477 11.7266 26.3008 14.5098C26.6914 15.0469 27.4238 15.1445 27.9609 14.8027C28.4492 14.4121 28.5957 13.6797 28.2051 13.1426Z" fill="#EE333A"/>
</svg>
