<svg width="39" height="36" viewBox="0 0 39 36" fill="none" xmlns="http://www.w3.org/2000/svg">
<path d="M12.8477 29.3945H25.2012C27.2529 29.3945 28.4131 28.2559 28.4131 26.2256V20.0703H28.4561C29.3691 19.7158 29.8203 18.8564 29.8203 17.5674V15.0107C29.8203 13.3027 28.8643 12.2607 27.1885 12.2607H25.835C26.415 11.6484 26.7695 10.8428 26.7695 9.9082C26.7695 7.67383 24.9648 6.0625 22.7412 6.0625C21.0332 6.0625 19.5293 7.07227 19.0244 8.86621C18.5303 7.07227 17.0264 6.0625 15.3076 6.0625C13.084 6.0625 11.29 7.67383 11.29 9.9082C11.29 10.8428 11.6445 11.6484 12.2246 12.2607H10.8711C9.22754 12.2607 8.23926 13.3027 8.23926 15.0107V17.5674C8.23926 18.8564 8.69043 19.7158 9.60352 20.0703H9.64648V26.2256C9.64648 28.2559 10.8066 29.3945 12.8477 29.3945ZM17.7783 12.2607H16.2637C14.6953 12.2607 13.8037 11.4229 13.8037 10.2842C13.8037 9.19922 14.5127 8.49023 15.6299 8.49023C16.8115 8.49023 17.7783 9.51074 17.7783 10.9072V12.2607ZM20.2705 12.2607V10.9072C20.2705 9.51074 21.248 8.49023 22.4189 8.49023C23.5469 8.49023 24.2559 9.19922 24.2559 10.2842C24.2559 11.4229 23.3643 12.2607 21.7959 12.2607H20.2705ZM17.7246 17.9111H11.6338C11.1719 17.9111 10.957 17.6963 10.957 17.2236V15.3438C10.957 14.8818 11.1719 14.6562 11.6338 14.6562H17.7246V17.9111ZM20.335 17.9111V14.6562H26.4258C26.8984 14.6562 27.1025 14.8818 27.1025 15.3438V17.2773C27.1025 17.75 26.8984 17.9111 26.4258 17.9111H20.335ZM17.7246 26.9453H13.5566C12.7832 26.9453 12.3535 26.4834 12.3535 25.7529V20.3174H17.7246V26.9453ZM20.335 26.9453V20.3174H25.7061V25.7529C25.7061 26.4834 25.2656 26.9453 24.4922 26.9453H20.335Z" fill="#EE333A"/>
</svg>
