<svg width="36" height="36" viewBox="0 0 36 36" fill="none" xmlns="http://www.w3.org/2000/svg">
<path d="M22.592 29.4706L18.8333 28.6353V20.5209C22.3606 20.0127 25.0833 16.9786 25.0833 13.3125C25.0833 12.9941 25.0568 12.6569 25.0029 12.2846C25.004 12.2541 25.0019 12.2225 24.9968 12.1915L24.0355 5.9415C23.9969 5.6877 23.7782 5.5 23.5208 5.5H18.9371C18.6889 5.5 18.4752 5.67549 18.4264 5.9186L17.8018 9.0436C17.7713 9.19668 17.811 9.35537 17.9096 9.47593C18.0083 9.59648 18.1568 9.66665 18.3125 9.66665H20.5952L18.5912 13.6731L18.8302 11.281C18.8455 11.1345 18.7977 10.9885 18.699 10.8797C18.6003 10.7703 18.4599 10.7083 18.3124 10.7083H15.7876L16.4468 6.09453C16.4682 5.94497 16.4234 5.79341 16.3247 5.67949C16.2261 5.56563 16.0816 5.5 15.9311 5.5H12.0625C11.8051 5.5 11.5864 5.6877 11.5478 5.9415L10.5854 12.1915C10.5804 12.2235 10.5783 12.2556 10.5804 12.2876C10.5265 12.6589 10.5 12.9952 10.5 13.3125C10.5 16.9787 13.2227 20.0128 16.75 20.521V28.6353L12.9913 29.4706C12.7318 29.5286 12.5579 29.7722 12.5864 30.0361C12.6159 30.3001 12.8386 30.5 13.1042 30.5H22.4792C22.7447 30.5 22.9674 30.3001 22.9969 30.0361C23.0254 29.7722 22.8515 29.5285 22.592 29.4706Z" fill="#EE333A"/>
</svg>
