<svg width="35" height="35" viewBox="0 0 35 35" fill="none" xmlns="http://www.w3.org/2000/svg">
<path d="M29.1506 11.5223L17.6597 5.05769C17.5925 5.01987 17.5166 5 17.4395 5C17.3623 5 17.2865 5.01987 17.2193 5.05769L5.72828 11.5223C5.65902 11.5613 5.60138 11.618 5.56127 11.6865C5.52116 11.755 5.50001 11.833 5.5 11.9123V29.5522C5.5 29.671 5.54725 29.7849 5.63136 29.8689C5.71547 29.9528 5.82954 30 5.94849 30H28.9304C29.0494 30 29.1635 29.9528 29.2476 29.8689C29.3317 29.7849 29.3789 29.671 29.3789 29.5522V11.9117C29.3788 11.8324 29.3576 11.7546 29.3175 11.6862C29.2774 11.6178 29.2198 11.5613 29.1506 11.5223Z" fill="#EE333A"/>
<path d="M8.30273 17.4824C8.30273 16.3779 9.19816 15.4824 10.3027 15.4824H24.5763C25.6808 15.4824 26.5763 16.3779 26.5763 17.4824V30.0004H8.30273V17.4824Z" fill="#F8EEEE"/>
<path d="M21.2058 25.6934H13.1197C12.6116 25.6934 12.1997 26.1052 12.1997 26.6133V28.0496C12.1997 28.5577 12.6116 28.9696 13.1197 28.9696H21.2058C21.7138 28.9696 22.1257 28.5577 22.1257 28.0496V26.6133C22.1257 26.1052 21.7138 25.6934 21.2058 25.6934Z" fill="#EE333A"/>
<path d="M15.2287 27.7392C15.4687 27.7392 15.6632 27.5446 15.6632 27.3046C15.6632 27.0647 15.4687 26.8701 15.2287 26.8701C14.9887 26.8701 14.7942 27.0647 14.7942 27.3046C14.7942 27.5446 14.9887 27.7392 15.2287 27.7392Z" fill="#FAFCFE"/>
<path d="M13.6757 26.8701C13.5898 26.8701 13.5058 26.8956 13.4343 26.9433C13.3629 26.9911 13.3072 27.059 13.2743 27.1384C13.2414 27.2178 13.2328 27.3051 13.2496 27.3894C13.2663 27.4737 13.3077 27.5511 13.3685 27.6119C13.4293 27.6727 13.5067 27.7141 13.591 27.7308C13.6753 27.7476 13.7626 27.739 13.842 27.7061C13.9214 27.6732 13.9893 27.6175 14.037 27.5461C14.0848 27.4746 14.1103 27.3906 14.1103 27.3046C14.1103 27.1894 14.0645 27.0789 13.983 26.9974C13.9015 26.9159 13.791 26.8701 13.6757 26.8701V26.8701Z" fill="#FAFCFE"/>
<path d="M21.2058 22.1309H13.1197C12.6116 22.1309 12.1997 22.5427 12.1997 23.0508V24.4871C12.1997 24.9952 12.6116 25.4071 13.1197 25.4071H21.2058C21.7138 25.4071 22.1257 24.9952 22.1257 24.4871V23.0508C22.1257 22.5427 21.7138 22.1309 21.2058 22.1309Z" fill="#EE333A"/>
<path d="M15.3885 23.3086C15.3026 23.3087 15.2187 23.3342 15.1473 23.382C15.0759 23.4298 15.0202 23.4977 14.9874 23.5771C14.9546 23.6566 14.9461 23.7439 14.9629 23.8282C14.9797 23.9124 15.0211 23.9898 15.0819 24.0505C15.1427 24.1113 15.2201 24.1526 15.3044 24.1693C15.3887 24.1861 15.476 24.1774 15.5554 24.1445C15.6348 24.1116 15.7026 24.0559 15.7503 23.9845C15.7981 23.913 15.8235 23.829 15.8235 23.7431C15.8235 23.686 15.8123 23.6295 15.7904 23.5767C15.7685 23.524 15.7365 23.4761 15.6961 23.4357C15.6557 23.3954 15.6077 23.3634 15.555 23.3415C15.5022 23.3197 15.4456 23.3085 15.3885 23.3086V23.3086Z" fill="#FAFCFE"/>
<path d="M13.8357 23.3086C13.7497 23.3086 13.6657 23.3341 13.5942 23.3818C13.5228 23.4296 13.4671 23.4974 13.4342 23.5768C13.4013 23.6562 13.3927 23.7436 13.4095 23.8279C13.4262 23.9122 13.4676 23.9896 13.5284 24.0504C13.5892 24.1112 13.6666 24.1525 13.7509 24.1693C13.8352 24.1861 13.9225 24.1775 14.0019 24.1446C14.0813 24.1117 14.1492 24.056 14.197 23.9845C14.2447 23.9131 14.2702 23.8291 14.2702 23.7431C14.2702 23.6861 14.2589 23.6296 14.2371 23.5768C14.2153 23.5241 14.1833 23.4762 14.1429 23.4359C14.1026 23.3955 14.0547 23.3635 14.0019 23.3417C13.9492 23.3198 13.8927 23.3086 13.8357 23.3086V23.3086Z" fill="#FAFCFE"/>
<path d="M21.2058 18.5742H13.1197C12.6116 18.5742 12.1997 18.9861 12.1997 19.4942V20.9305C12.1997 21.4386 12.6116 21.8505 13.1197 21.8505H21.2058C21.7138 21.8505 22.1257 21.4386 22.1257 20.9305V19.4942C22.1257 18.9861 21.7138 18.5742 21.2058 18.5742Z" fill="#EE333A"/>
<path d="M15.3885 19.751C15.3026 19.7511 15.2186 19.7766 15.1472 19.8245C15.0758 19.8723 15.0202 19.9402 14.9874 20.0197C14.9546 20.0991 14.946 20.1865 14.9629 20.2708C14.9798 20.3551 15.0213 20.4325 15.0821 20.4932C15.143 20.5539 15.2205 20.5951 15.3048 20.6118C15.3891 20.6285 15.4765 20.6197 15.5559 20.5867C15.6352 20.5537 15.703 20.4979 15.7507 20.4264C15.7983 20.3548 15.8237 20.2708 15.8235 20.1848C15.8233 20.0696 15.7774 19.9592 15.6959 19.8779C15.6143 19.7965 15.5038 19.7509 15.3885 19.751Z" fill="#FAFCFE"/>
<path d="M13.8357 19.751C13.7497 19.751 13.6656 19.7765 13.5942 19.8243C13.5227 19.872 13.467 19.9399 13.4341 20.0194C13.4013 20.0988 13.3927 20.1862 13.4095 20.2705C13.4263 20.3548 13.4678 20.4323 13.5286 20.493C13.5895 20.5537 13.667 20.5951 13.7513 20.6118C13.8356 20.6285 13.923 20.6198 14.0024 20.5868C14.0818 20.5538 14.1496 20.498 14.1973 20.4264C14.2449 20.3549 14.2703 20.2708 14.2702 20.1848C14.2701 20.0697 14.2242 19.9593 14.1427 19.8779C14.0613 19.7966 13.9508 19.7509 13.8357 19.751V19.751Z" fill="#FAFCFE"/>
<path d="M17.4394 13.0613C18.5539 13.0613 19.4574 12.1578 19.4574 11.0433C19.4574 9.92885 18.5539 9.02539 17.4394 9.02539C16.325 9.02539 15.4215 9.92885 15.4215 11.0433C15.4215 12.1578 16.325 13.0613 17.4394 13.0613Z" fill="#ECF1F4"/>
<path d="M17.4394 9.69722C17.916 9.69748 18.3771 9.86651 18.741 10.1743C19.1048 10.4822 19.3479 10.9089 19.4271 11.3788C19.4779 11.0888 19.4646 10.7911 19.3882 10.5067C19.3117 10.2223 19.174 9.95815 18.9846 9.73267C18.7951 9.50719 18.5587 9.3259 18.2918 9.20152C18.0248 9.07715 17.7339 9.0127 17.4394 9.0127C17.145 9.0127 16.8541 9.07715 16.5871 9.20152C16.3202 9.3259 16.0837 9.50719 15.8943 9.73267C15.7049 9.95815 15.5672 10.2223 15.4907 10.5067C15.4143 10.7911 15.401 11.0888 15.4518 11.3788C15.531 10.9089 15.7741 10.4822 16.1379 10.1743C16.5018 9.86651 16.9629 9.69748 17.4394 9.69722V9.69722Z" fill="#F8EEEE"/>
</svg>
