<svg width="35" height="34" viewBox="0 0 35 34" fill="none" xmlns="http://www.w3.org/2000/svg">
<path d="M28.5156 11.6484L25.9766 7.58594C25.7422 7.23438 25.3516 7 24.9219 7H9.14062C8.71094 7 8.28125 7.23438 8.04688 7.58594L5.54688 11.6484C4.21875 13.7578 5.39062 16.6484 7.8125 16.9609C8.00781 17 8.16406 17 8.35938 17C9.53125 17 10.5469 16.4922 11.25 15.7109C11.9531 16.4922 12.9688 17 14.1406 17C15.2734 17 16.2891 16.4922 16.9922 15.7109C17.6953 16.4922 18.75 17 19.8828 17C21.0547 17 22.0703 16.4922 22.7734 15.7109C23.4766 16.4922 24.4922 17 25.6641 17C25.8594 17 26.0156 17 26.2109 16.9609C28.6328 16.6484 29.8047 13.7578 28.5156 11.6484ZM25.6641 18.25C25.2734 18.25 24.8828 18.2109 24.5312 18.1328V22H9.53125V18.1328C9.14062 18.2109 8.75 18.25 8.35938 18.25C8.125 18.25 7.89062 18.25 7.65625 18.2109C7.42188 18.1719 7.22656 18.1328 7.03125 18.0938V25.75C7.03125 26.4531 7.57812 27 8.28125 27H25.7812C26.4453 27 27.0312 26.4531 27.0312 25.75V18.0938C26.7969 18.1328 26.6016 18.2109 26.3672 18.2109C26.1328 18.25 25.8984 18.25 25.6641 18.25Z" fill="#EE333A"/>
</svg>
