<svg width="37" height="36" viewBox="0 0 37 36" fill="none" xmlns="http://www.w3.org/2000/svg">
<path d="M23.7812 5.625H12.8438C11.5254 5.625 10.5 6.69922 10.5 7.96875V28.2812C10.5 29.5996 11.5254 30.625 12.8438 30.625H23.7812C25.0508 30.625 26.125 29.5996 26.125 28.2812V7.96875C26.125 6.69922 25.0508 5.625 23.7812 5.625ZM18.3125 29.0625C17.4336 29.0625 16.75 28.3789 16.75 27.5C16.75 26.6699 17.4336 25.9375 18.3125 25.9375C19.1426 25.9375 19.875 26.6699 19.875 27.5C19.875 28.3789 19.1426 29.0625 18.3125 29.0625Z" fill="#EE333A"/>
<path d="M13.5625 13.0698C14.0137 13.0698 14.2554 12.8174 14.2554 12.3716V11.2544C14.2554 10.7925 14.4863 10.583 14.916 10.583H16.0547C16.5059 10.583 16.7529 10.3359 16.7529 9.89014C16.7529 9.44434 16.5059 9.19727 16.0547 9.19727H14.7656C13.541 9.19727 12.8696 9.86328 12.8696 11.0825V12.3716C12.8696 12.8228 13.1167 13.0698 13.5625 13.0698ZM23.0371 13.0698C23.4883 13.0698 23.73 12.8228 23.73 12.3716V11.0825C23.73 9.86328 23.064 9.19727 21.834 9.19727H20.5503C20.0938 9.19727 19.8467 9.44434 19.8467 9.89014C19.8467 10.3359 20.0991 10.583 20.5503 10.583H21.6836C22.1133 10.583 22.3442 10.7925 22.3442 11.2544V12.3716C22.3442 12.8228 22.5913 13.0698 23.0371 13.0698ZM15.9795 14.3965H17.8379C17.9722 14.3965 18.0688 14.2998 18.0688 14.1655V12.3071C18.0688 12.1729 17.9722 12.0762 17.8379 12.0762H15.9795C15.8452 12.0762 15.7432 12.1729 15.7432 12.3071V14.1655C15.7432 14.2998 15.8452 14.3965 15.9795 14.3965ZM18.7617 14.3965H20.6201C20.7544 14.3965 20.8564 14.2998 20.8564 14.1655V12.3071C20.8564 12.1729 20.7544 12.0762 20.6201 12.0762H18.7617C18.6328 12.0762 18.5308 12.1729 18.5308 12.3071V14.1655C18.5308 14.2998 18.6328 14.3965 18.7617 14.3965ZM16.2104 13.9292V12.5381H17.6016V13.9292H16.2104ZM18.998 13.9292V12.5381H20.3892V13.9292H18.998ZM16.6187 13.5264H17.1987V12.9463H16.6187V13.5264ZM19.4009 13.5264H19.981V12.9463H19.4009V13.5264ZM15.9795 17.1841H17.8379C17.9722 17.1841 18.0688 17.0874 18.0688 16.9478V15.0947C18.0688 14.9604 17.9722 14.8638 17.8379 14.8638H15.9795C15.8452 14.8638 15.7432 14.9604 15.7432 15.0947V16.9478C15.7432 17.0874 15.8452 17.1841 15.9795 17.1841ZM18.5952 15.5083H19.1807V14.9282H18.5952V15.5083ZM20.2065 15.5083H20.7866V14.9282H20.2065V15.5083ZM16.2104 16.7168V15.3257H17.6016V16.7168H16.2104ZM16.6187 16.3086H17.1987V15.7285H16.6187V16.3086ZM19.4009 16.314H19.981V15.7339H19.4009V16.314ZM14.7656 20.063H16.0547C16.5059 20.063 16.7529 19.8159 16.7529 19.3647C16.7529 18.9189 16.5059 18.6719 16.0547 18.6719H14.916C14.4863 18.6719 14.2554 18.4624 14.2554 18.0059V16.8887C14.2554 16.4321 14.0083 16.1904 13.5625 16.1904C13.1113 16.1904 12.8696 16.4321 12.8696 16.8887V18.1777C12.8696 19.397 13.541 20.063 14.7656 20.063ZM20.5503 20.063H21.834C23.064 20.063 23.73 19.3916 23.73 18.1777V16.8887C23.73 16.4321 23.4883 16.1904 23.0371 16.1904C22.5913 16.1904 22.3442 16.4375 22.3442 16.8887V18.0059C22.3442 18.4624 22.1133 18.6719 21.6836 18.6719H20.5503C20.0938 18.6719 19.8467 18.9189 19.8467 19.3647C19.8467 19.8159 20.0938 20.063 20.5503 20.063ZM18.5952 17.1143H19.1807V16.5396H18.5952V17.1143ZM20.2065 17.1143H20.7866V16.5396H20.2065V17.1143Z" fill="#FAFCFE"/>
</svg>
