<svg width="35" height="36" viewBox="0 0 35 36" fill="none" xmlns="http://www.w3.org/2000/svg">
<g clip-path="url(#clip0_2195_53919)">
<path d="M6.82292 14.875H8.64583V25.8125C8.64583 26.3885 9.11146 26.8542 9.6875 26.8542C10.2635 26.8542 10.7292 26.3885 10.7292 25.8125V14.875H12.5521C13.5573 14.875 14.375 14.0573 14.375 13.0521V12.7917H9.6875C8.25104 12.7917 7.08333 11.624 7.08333 10.1875C7.08333 8.75104 8.25104 7.58333 9.6875 7.58333H14.375V7.32292C14.375 6.31771 13.5573 5.5 12.5521 5.5H6.82292C5.81771 5.5 5 6.31771 5 7.32292V13.0521C5 14.0573 5.81771 14.875 6.82292 14.875Z" fill="#EE333A"/>
<path d="M28.1771 21.1247H26.3542V10.1872C26.3542 9.61113 25.8885 9.14551 25.3125 9.14551C24.7365 9.14551 24.2708 9.61113 24.2708 10.1872V21.1247H22.4479C21.4427 21.1247 20.625 21.9424 20.625 22.9476V23.208H25.3125C26.749 23.208 27.9167 24.3757 27.9167 25.8122C27.9167 27.2486 26.749 28.4163 25.3125 28.4163H20.625V28.6768C20.625 29.682 21.4427 30.4997 22.4479 30.4997H28.1771C29.1823 30.4997 30 29.682 30 28.6768V22.9476C30 21.9424 29.1823 21.1247 28.1771 21.1247Z" fill="#EE333A"/>
<path d="M28.1772 5.5H22.4481C21.4429 5.5 20.6252 6.31771 20.6252 7.32292V9.14583H9.68766C9.11162 9.14583 8.646 9.61146 8.646 10.1875C8.646 10.7635 9.11162 11.2292 9.68766 11.2292H20.6252V13.0521C20.6252 14.0573 21.4429 14.875 22.4481 14.875H22.7085V10.1875C22.7085 8.75104 23.8762 7.58333 25.3127 7.58333C26.7491 7.58333 27.9168 8.75104 27.9168 10.1875V14.875H28.1772C29.1825 14.875 30.0002 14.0573 30.0002 13.0521V7.32292C30.0002 6.31771 29.1825 5.5 28.1772 5.5Z" fill="#EE333A"/>
<path d="M6.82292 30.5H12.5521C13.5573 30.5 14.375 29.6823 14.375 28.6771V26.8542H25.3125C25.8885 26.8542 26.3542 26.3885 26.3542 25.8125C26.3542 25.2365 25.8885 24.7708 25.3125 24.7708H14.375V22.9479C14.375 21.9427 13.5573 21.125 12.5521 21.125H12.2917V25.8125C12.2917 27.249 11.124 28.4167 9.6875 28.4167C8.25104 28.4167 7.08333 27.249 7.08333 25.8125V21.125H6.82292C5.81771 21.125 5 21.9427 5 22.9479V28.6771C5 29.6823 5.81771 30.5 6.82292 30.5Z" fill="#EE333A"/>
</g>
<defs>
<clipPath id="clip0_2195_53919">
<rect width="25" height="25" fill="white" transform="translate(5 5.5)"/>
</clipPath>
</defs>
</svg>
