<svg width="35" height="40" viewBox="0 0 35 40" fill="none" xmlns="http://www.w3.org/2000/svg">
<path d="M28.8281 19.8809L24.1406 18.0742V12.8008C24.1406 12.0684 23.6523 11.4336 22.9688 11.1406L18.0859 9.33398C17.6953 9.1875 17.2559 9.1875 16.8652 9.33398L11.9824 11.1406C11.2988 11.4336 10.8105 12.0684 10.8105 12.8008V18.0742L6.12305 19.8809C5.43945 20.125 5 20.7598 5 21.4922V26.8633C5 27.5469 5.3418 28.1816 5.92773 28.4746L10.8105 30.916C11.3477 31.1602 11.9336 31.1602 12.4219 30.916L17.5 28.377L22.5293 30.916C23.0664 31.1602 23.6523 31.1602 24.1406 30.916L29.0234 28.4746C29.6094 28.1816 30 27.5469 30 26.8633V21.4922C30 20.7598 29.5117 20.125 28.8281 19.8809ZM22.4805 18.123L18.3301 19.6855V16.3652L22.4805 14.5586V18.123ZM12.5195 12.752L17.5 10.8477L22.4805 12.752L17.5 14.8027L12.5195 12.752ZM16.6211 26.9609L12.4707 29.0117V25.1543L16.6211 23.25V26.9609ZM16.6211 21.4922L11.6406 23.4941L6.66016 21.4922V21.4434L11.6406 19.5879L16.6211 21.4434V21.4922ZM28.3398 26.9609L24.1895 29.0117V25.1543L28.3398 23.25V26.9609ZM28.3398 21.4922L23.3594 23.4941L18.3789 21.4922V21.4434L23.3594 19.5879L28.3398 21.4434V21.4922Z" fill="#EE333A"/>
</svg>
