<svg width="37" height="38" viewBox="0 0 37 38" fill="none" xmlns="http://www.w3.org/2000/svg">
<path d="M18.7812 20.0312C19.625 20.2656 20.375 20.6875 21.0781 21.2031L28.6719 18.6719C29.0469 18.5312 29.2812 18.1094 29.1406 17.7344L26.2812 9.25C26.1875 8.82812 25.7656 8.64062 25.3438 8.78125L22.4844 9.71875L24.0312 14.3594L21.2188 15.2969L19.625 10.6562L16.7656 11.6406C16.3438 11.7344 16.1562 12.1562 16.2969 12.5781L18.7812 20.0312ZM31.9531 22.3281L31.4844 20.875C31.3438 20.5 30.9219 20.3125 30.5 20.4062L20.5156 23.7812C19.7188 22.75 18.4531 22.0469 17.0469 22.0469L12.4062 8.03125C12.2188 7.42188 11.6094 7 11 7H5.75C5.32812 7 5 7.375 5 7.75V9.25C5 9.67188 5.32812 10 5.75 10H9.875L14.2344 22.9844C13.0156 23.9688 12.2656 25.5156 12.5469 27.25C12.8281 29.0781 14.3281 30.625 16.1562 30.9531C18.9688 31.4688 21.4062 29.3125 21.4531 26.5938L31.4844 23.2656C31.8594 23.125 32.0938 22.7031 31.9531 22.3281ZM17 28.75C15.7344 28.75 14.75 27.7656 14.75 26.5C14.75 25.2812 15.7344 24.25 17 24.25C18.2188 24.25 19.25 25.2812 19.25 26.5C19.25 27.7656 18.2188 28.75 17 28.75Z" fill="#EE333A"/>
</svg>
