<svg width="35" height="36" viewBox="0 0 35 36" fill="none" xmlns="http://www.w3.org/2000/svg">
<path d="M28.6423 16.1992C28.6039 16.1495 28.5669 16.1015 28.5316 16.0549C28.0909 15.4742 27.7347 14.8207 27.4204 14.244C27.1122 13.6786 26.8211 13.1445 26.5033 12.7752C25.7943 11.9513 25.1271 11.5508 24.4637 11.5508H21.1878C21.1847 11.5508 20.8717 11.5546 20.4951 11.5546H19.9609C19.5791 11.5546 19.2461 11.8139 19.1512 12.1851L19.1468 12.2024V19.4354L19.1476 19.4503C19.148 19.4547 19.1561 19.5583 19.0744 19.6474C18.9843 19.7459 18.8113 19.7979 18.5741 19.7979H5.81442C5.36534 19.7978 5 20.1415 5 20.564V23.1976C5 23.62 5.36534 23.9637 5.81442 23.9637H8.61677C8.76359 25.6414 10.1754 26.962 11.8907 26.962C13.6061 26.962 15.018 25.6414 15.1648 23.9637H19.8549C20.0017 25.6414 21.4135 26.962 23.1288 26.962C24.8442 26.962 26.2561 25.6414 26.4029 23.9637H28.5344C29.3425 23.9637 29.9999 23.3064 29.9999 22.4984V19.9838C30 17.9601 29.183 16.9004 28.6423 16.1992ZM24.3546 23.6751C24.3546 24.3507 23.8047 24.9004 23.1288 24.9004C22.4532 24.9004 21.9035 24.3507 21.9035 23.6751C21.9035 22.9994 22.4532 22.4496 23.1288 22.4496C23.8047 22.4496 24.3546 22.9993 24.3546 23.6751ZM27.1731 17.2953C27.1475 17.3376 27.0743 17.3558 26.9633 17.3487L21.3315 17.3484V12.7546H23.7663C24.4214 12.7546 24.8856 13.0398 25.3687 13.7389C25.6899 14.2039 26.5404 15.6679 26.5838 15.7426C26.614 15.8009 26.6451 15.8602 26.6764 15.92C26.9218 16.389 27.2927 17.0976 27.1731 17.2953ZM11.8907 22.4496C12.5666 22.4496 13.1165 22.9994 13.1165 23.6751C13.1165 24.3507 12.5666 24.9004 11.8907 24.9004C11.2151 24.9004 10.6654 24.3507 10.6654 23.6751C10.6654 22.9993 11.2151 22.4496 11.8907 22.4496Z" fill="#EE333A"/>
<path d="M6.71663 18.633H10.5773C10.9686 18.633 11.2869 18.3147 11.2869 17.9234V15.0847C11.2869 14.6933 10.9686 14.375 10.5773 14.375H6.71663C6.32529 14.375 6.00696 14.6933 6.00696 15.0847V17.9234C6.00696 18.3147 6.32535 18.633 6.71663 18.633Z" fill="#EE333A"/>
<path d="M13.132 18.633H16.9927C17.384 18.633 17.7023 18.3147 17.7023 17.9234V15.0847C17.7023 14.6933 17.384 14.375 16.9927 14.375H13.132C12.7407 14.375 12.4224 14.6933 12.4224 15.0847V17.9234C12.4224 18.3147 12.7408 18.633 13.132 18.633Z" fill="#EE333A"/>
<path d="M6.71663 13.2961H10.5773C10.9686 13.2961 11.2869 12.9778 11.2869 12.5864V9.74776C11.2869 9.35642 10.9686 9.03809 10.5773 9.03809H6.71663C6.32529 9.03809 6.00696 9.35642 6.00696 9.74776V12.5864C6.00696 12.9778 6.32535 13.2961 6.71663 13.2961Z" fill="#EE333A"/>
<path d="M13.132 13.2961H16.9927C17.384 13.2961 17.7023 12.9778 17.7023 12.5864V9.74776C17.7023 9.35642 17.384 9.03809 16.9927 9.03809H13.132C12.7407 9.03809 12.4224 9.35642 12.4224 9.74776V12.5864C12.4224 12.9778 12.7408 13.2961 13.132 13.2961Z" fill="#EE333A"/>
</svg>
