<svg width="36" height="35" viewBox="0 0 36 35" fill="none" xmlns="http://www.w3.org/2000/svg">
<path fill-rule="evenodd" clip-rule="evenodd" d="M23.5867 25.2292C25.8042 23.5868 27.2416 20.9513 27.2416 17.98C27.2416 13.0011 23.2054 8.96484 18.2265 8.96484C13.2475 8.96484 9.2113 13.0011 9.2113 17.98C9.2113 21.0127 10.7088 23.6956 13.0046 25.3297C13.2454 22.693 14.6074 20.5075 16.4481 19.6145C15.6136 19.0145 15.0702 18.0351 15.0702 16.9288C15.0702 15.1032 16.5501 13.6233 18.3757 13.6233C20.2014 13.6233 21.6813 15.1032 21.6813 16.9288C21.6813 18.0625 21.1106 19.0628 20.2409 19.6583C22.0138 20.5656 23.3252 22.6795 23.5867 25.2292Z" fill="#EE333A"/>
<path d="M20.0125 4.99191C22.3199 5.36314 24.4796 6.36538 26.2528 7.88775L25.4275 8.84899C23.8317 7.47885 21.8879 6.57684 19.8112 6.24274L20.0125 4.99191Z" fill="#EE333A"/>
<path d="M29.6204 12.4529C30.5514 14.5965 30.8714 16.9559 30.5449 19.27L29.2904 19.093C29.5843 17.0103 29.2963 14.8869 28.4584 12.9576L29.6204 12.4529Z" fill="#EE333A"/>
<path d="M27.8984 25.409C26.4396 27.2348 24.5042 28.6215 22.3062 29.4158L21.8756 28.2243C23.8538 27.5095 25.5957 26.2614 26.9086 24.6181L27.8984 25.409Z" fill="#EE333A"/>
<path d="M15.4842 29.9079C13.1954 29.4351 11.082 28.3385 9.37778 26.7393L10.2447 25.8155C11.7785 27.2547 13.6806 28.2417 15.7404 28.6671L15.4842 29.9079Z" fill="#EE333A"/>
<path d="M5.89985 21.2556C5.2071 19.0236 5.14525 16.6434 5.72112 14.3784L6.94897 14.6906C6.43068 16.7291 6.48635 18.8712 7.10982 20.88L5.89985 21.2556Z" fill="#EE333A"/>
<path d="M8.27206 9.38311C9.76932 7.58866 11.7338 6.24332 13.9481 5.49592L14.3532 6.6963C12.3604 7.36896 10.5924 8.57976 9.24482 10.1948L8.27206 9.38311Z" fill="#EE333A"/>
<path d="M9.74777 11.212C9.61149 12.4992 8.45749 13.4323 7.17025 13.296C5.883 13.1597 4.94997 12.0057 5.08625 10.7185C5.22253 9.43121 6.37652 8.49817 7.66377 8.63446C8.95101 8.77074 9.88405 9.92473 9.74777 11.212ZM6.25163 10.8418C6.18349 11.4855 6.65001 12.0625 7.29363 12.1306C7.93725 12.1987 8.51425 11.7322 8.58239 11.0886C8.65053 10.445 8.18401 9.86798 7.54039 9.79984C6.89677 9.7317 6.31977 10.1982 6.25163 10.8418Z" fill="#EE333A"/>
<path d="M9.13191 23.0108C9.13191 24.3052 8.08256 25.3546 6.78812 25.3546C5.49369 25.3546 4.44434 24.3052 4.44434 23.0108C4.44434 21.7163 5.49369 20.667 6.78812 20.667C8.08256 20.667 9.13191 21.7163 9.13191 23.0108ZM5.61623 23.0108C5.61623 23.658 6.1409 24.1827 6.78812 24.1827C7.43534 24.1827 7.96002 23.658 7.96002 23.0108C7.96002 22.3636 7.43534 21.8389 6.78812 21.8389C6.1409 21.8389 5.61623 22.3636 5.61623 23.0108Z" fill="#EE333A"/>
<path d="M20.2801 5.27347C20.2801 6.56791 19.2308 7.61726 17.9363 7.61726C16.6419 7.61726 15.5925 6.56791 15.5925 5.27347C15.5925 3.97904 16.6419 2.92969 17.9363 2.92969C19.2308 2.92969 20.2801 3.97904 20.2801 5.27347ZM16.7644 5.27347C16.7644 5.92069 17.2891 6.44537 17.9363 6.44537C18.5835 6.44537 19.1082 5.92069 19.1082 5.27347C19.1082 4.62626 18.5835 4.10158 17.9363 4.10158C17.2891 4.10158 16.7644 4.62626 16.7644 5.27347Z" fill="#EE333A"/>
<path d="M19.7484 29.9475C19.688 31.2405 18.5909 32.2398 17.2979 32.1794C16.0048 32.1191 15.0055 31.022 15.0659 29.7289C15.1262 28.4359 16.2234 27.4366 17.5164 27.497C18.8094 27.5573 19.8087 28.6545 19.7484 29.9475ZM16.2365 29.7836C16.2063 30.4301 16.706 30.9787 17.3525 31.0088C17.999 31.039 18.5476 30.5394 18.5778 29.8928C18.6079 29.2463 18.1083 28.6978 17.4618 28.6676C16.8153 28.6374 16.2667 29.1371 16.2365 29.7836Z" fill="#EE333A"/>
<path d="M30.7819 10.7193C30.9194 12.0064 29.9874 13.1613 28.7003 13.2988C27.4132 13.4363 26.2583 12.5044 26.1208 11.2172C25.9833 9.93013 26.9152 8.77525 28.2024 8.63774C29.4895 8.50023 30.6443 9.43218 30.7819 10.7193ZM27.2861 11.0928C27.3548 11.7363 27.9323 12.2023 28.5758 12.1335C29.2194 12.0648 29.6853 11.4873 29.6166 10.8438C29.5478 10.2002 28.9704 9.73425 28.3268 9.803C27.6833 9.87176 27.2173 10.4492 27.2861 11.0928Z" fill="#EE333A"/>
<path d="M30.956 23.7828C30.8801 25.075 29.7709 26.061 28.4787 25.985C27.1865 25.909 26.2006 24.7999 26.2765 23.5077C26.3525 22.2155 27.4616 21.2295 28.7538 21.3055C30.046 21.3815 31.032 22.4906 30.956 23.7828ZM27.4464 23.5765C27.4084 24.2226 27.9014 24.7771 28.5475 24.8151C29.1936 24.8531 29.7482 24.3601 29.7861 23.714C29.8241 23.0679 29.3311 22.5134 28.685 22.4754C28.0389 22.4374 27.4844 22.9304 27.4464 23.5765Z" fill="#EE333A"/>
</svg>
